<svg id="Layer_1" data-name="Layer 1" xmlns="http://www.w3.org/2000/svg" viewBox="0 0 3840 2160"><defs><style>.cls-1{fill:#fdfdfd;}.cls-2{fill:#fefefe;}.cls-3{fill:#003187;}.cls-4{fill:#e5d1fe;}.cls-5{fill:#8ea4ca;}.cls-6{fill:#50ff14;}.cls-7{fill:#eaf1fe;}.cls-8{fill:#003188;}.cls-9{fill:#013188;}.cls-10{fill:#013288;}.cls-11{fill:#023288;}.cls-12{fill:#e8effd;}.cls-13{fill:#023388;}.cls-14{fill:#033389;}.cls-15{fill:#023389;}.cls-16{fill:#e9f0fd;}.cls-17{fill:#07378b;}.cls-18{fill:#09388c;}.cls-19{fill:#06368a;}.cls-20{fill:#05348a;}.cls-21{fill:#043489;}.cls-22{fill:#8ea3cb;}.cls-23{fill:#04348a;}.cls-24{fill:#05358a;}.cls-25{fill:#008901;}.cls-26{fill:#06358a;}.cls-27{fill:#f7f9fb;}.cls-28{fill:#fdfcfe;}.cls-29{fill:#fcfafe;}.cls-30{fill:#f8f9fc;}.cls-31{fill:#06368b;}.cls-32{fill:#0c3b8e;}.cls-33{fill:#f9fafc;}.cls-34{fill:#fdfefe;}.cls-35{fill:#f8f9fb;}.cls-36{fill:#f3f2fb;}.cls-37{fill:#fafbfc;}.cls-38{fill:#f8fafc;}.cls-39{fill:#e5edfb;}</style></defs><path class="cls-1" d="M2919.89,1748.88c0,10.49-.08,21,.06,31.48,0,2.14-.39,3-2.56,2.54a13,13,0,0,0-2.5,0q-994.41,0-1988.84.12c-4.38,0-5.06-1.09-5-5.17q.21-121,.1-241.9a1.33,1.33,0,0,1,1.63.18c5.33,9.67,14.34,13.37,24.55,15.16,5.94,1,6.67,1.91,5.55,8-4.44,24.24-8.83,48.49-12.77,72.83-4.12,25.48-7.73,51-11.07,76.63-.23,1.74-.82,3.61.94,5.33,2-1.3,1.74-3.46,2-5.27q6.69-52,15.67-103.73c4.59-26.59,9.51-53.11,15.18-79.49,1.46-6.77,2.72-7.86,9.43-9,30.39-5.19,61.07-4.81,91.68-3.87,28.42.87,56.8,3.23,85,6.79,2.17.27,4.31.53,6.18,1.76,2.41,2.19,1.5,5,1.12,7.51-5.86,39.2-11.28,78.46-17.19,117.66-3.47,23-7.29,46.06-7.42,69.45,0,6.82.6,13.68,3.66,20,6.24,12.89,17.45,15,27.86,5.28a8.66,8.66,0,0,1,2.38-1.79c3.67-.21,4.86-2.46,5.45-5.83,2.19-12.44,4.9-24.79,7.33-37.18a22,22,0,0,1,1.82-6.2c4-11,5.9-22.45,8.4-33.76,6.37-28.82,10.67-58,15-87.19.65-4.38,1.73-8.82,1.16-13.35,1.92-14.7,4.8-29.24,7.3-43.85,9-52.7,17.81-105.44,26-158.28a64.16,64.16,0,0,1,1.9-8.78,24.25,24.25,0,0,1,1.39-3.19c3.49-7.37,2.59-12.76-2.8-16.88a15.78,15.78,0,0,0-19.41.51c-6.08,5-9.19,12.13-13.14,18.65-1,1.63-1.33,3.91-3.82,4.17-4-1.68-5-1.09-4.46,3.16.29,2.43.92,4.83.57,7.32-2.4,8.32-6.33,16-9.19,24.21-13.06,37.31-20.8,75.89-27.67,114.69-1.11,6.3-.86,13-4.26,18.77-1.68,1-3.5.87-5.34.65q-32-4-64.11-5.8c-21.11-1.19-42.21-2.14-63.35-1.81a407.78,407.78,0,0,0-50.22,3.92c-7.92,1.12-8.78.2-7.13-7.38q18.71-85.71,43.7-169.79c4.59-15.49,9.44-30.9,14.28-46.31a10.69,10.69,0,0,1,2.11-4.46c3-1.58,2.94.9,3.17,2.53.38,2.62.14,5.31,1.06,7.88,2,5.68,5.84,7.75,11.7,6.34,5.44-1.31,10.23-4,14.75-7.16,17-11.71,34.45-22.69,50.34-36a320,320,0,0,0,97.3-143c1.6-4.79,2.28-9.67,3.16-14.56,1-1.53,2.59-2,4.11-2.68,25.6-10.55,51.61-19.89,78.43-26.88,2.24-.59,4.48-1.43,6.87-.72,1.59.59,1.74,2,1.56,3.3-1.46,10.48,3.23,18.94,9.39,26.55,17.41,21.5,37.29,40.38,61.35,54.32,16.49,9.55,34.5,14.58,53.53,16.53q44.43,4.58,82.14-18.89c18.74-11.68,33.9-26.85,42.12-47.94a63.08,63.08,0,0,0,4.67-26.36c-.09-1.73-.77-3.79,1.66-4.69,8-1.08,16-.78,23.92-.23,4.32.29,8.62.65,13,.67,26.63.12,53.21,1.64,79.83,2.21q30.18.64,60.35,1.91c27.92,1.16,55.87,1.45,83.78,2.94,5.36.28,6.63,1.72,5.28,7a304.81,304.81,0,0,0-8.29,50.72c-2.12,25.37-3.9,50.77-1.73,76.25.25,3,.51,6-.6,8.88-1.23,2.08-3.35,1.88-5.31,2-16.57,1.41-33.2,2-49.79,3.12a157.62,157.62,0,0,0-23.26,3.07c-16.29,3.55-26.51,13.74-32.28,29a106.47,106.47,0,0,0-6.4,30.73c-1.77,26.62-7.35,52.46-15.41,77.74-10.12,31.75-15.12,64.48-19.89,97.29-2.38,16.35-6.62,32.3-10.43,48.34-8,33.73-14.66,67.7-18.81,102.15-1.85,15.4-5.84,30.41-9.61,45.43-4.41,17.55-7.15,35.25-6.16,53.39.65,12,3,23.63,11.41,32.83,6.67,7.28,14.67,12.67,25,12.93,8.35.22,11.89-4.23,10.29-12.47-1-5-3.75-9.66-3.6-15,.14-9.13,3.54-17.19,8.24-24.81,3.24-5.23,7.29-9.94,9.82-15.64a29.27,29.27,0,0,0,2.51-17c-2.77-16.58-6.07-33.09-7.17-49.91a285.07,285.07,0,0,1-.16-34.46c2-34.94,11.57-68.23,22.93-101,8.73-25.2,17.16-50.49,23.56-76.38a610.48,610.48,0,0,0,15.38-89.05,46,46,0,0,1,1.26-6.88,16.63,16.63,0,0,1,7.26-8.51c27.33-6,54.75-11.61,82.08-17.63,4.1-.91,6.84.18,9.55,3.4,8.27,9.86,18.1,8.13,22.27-4,1.6-4.65,4.08-7,8.93-8,36.49-7.81,73-15.31,109.49-23.37,13.56-3,26.69-7.08,39.13-13.4,23.76-12.06,35.18-32.09,37.94-57.82,3.44-31.94-3.58-62.34-14.41-92-21.06-57.6-44.49-114.26-69-170.47-16.64-38.19-34.7-75.71-54.67-112.3a13.37,13.37,0,0,0-6.63-6.41,1.87,1.87,0,0,1-.05-1.6c2.06-2.93,2.93-6.29,3.62-9.74A172.24,172.24,0,0,0,1897,694.8c-.75-1.79-2.08-3.5-1.24-5.66,1.87-1.51,3.85-.61,5.72-.13,58.09,14.88,116.27,29.38,174.4,44.09,1.74.44,3.66.69,4.62,2.59a3.72,3.72,0,0,1,0,1.66c-9.2,22.65-13.81,46-10.91,70.47,2.46-1.44,2-3.68,1.94-5.67a155,155,0,0,1,2-29.26,12.93,12.93,0,0,1,1.81-5.64c6.2-2.2,12.09.24,18,1.48a35.75,35.75,0,0,1,18,10.32c6.88,7,14.6,7.11,22.93,3.36a77.42,77.42,0,0,0,8.43-4.38c1.54-.93,3.08-2.09,5.09-1.3,1.46,3.32-1.62,5-2.65,7.48-.9,2.13-4.16,4.8-1.82,6.31s3-2.59,4.32-4.26c6.76-8.78,14.46-16.55,24-22.37,8.53-5.22,17.29-10,26.13-14.68,12-6.32,23.14-13.84,32.57-23.73,4.13-4.34,8.34-8.62,12.78-12.66,2.14-2,4.65-3.6,7.67-2.2s3.37,4.31,3.51,7.23a22.14,22.14,0,0,1-1.24,7.85c-2.41,7.52-6.36,14.28-10.42,21-8.76,14.44-18.66,28.1-30.84,39.78-16.54,15.89-28.05,34.85-37.23,55.63-22.65,51.22-38.86,104.53-52.61,158.68-5.53,21.79-10.95,43.62-16.07,65.51-.48,2.07-2.55,5.45.06,6.16s2.66-3.18,3.14-5.25c9.07-38.76,18.56-77.42,29.77-115.63,12.77-43.53,27.62-86.28,48-126.95a113.84,113.84,0,0,1,20.09-27.84c7.94-8.29,15.92-16.55,23-25.63,1.8-2.31,3.26-5.12,6.41-6.08,2.21-.46,4.3.22,6.39.74q58.91,14.63,117.37,30.94c1.72.48,5.41-.1,4.08,3.94-2.89,1.15-5.58-.09-8.29-.76-36.2-9-72.38-18.11-108.59-27.09-2.34-.58-4.72-1.78-7.65-.38,1.1,2.63,3.59,2.67,5.63,3.19q28.1,7.1,56.22,14.09c57.5,14.42,115,28.85,172.72,42.43,6.52,1.53,6.5,1.6,9.44-3.85,4.53-1.49,9.21-.79,13.82-.74,6.76.07,13.54-.67,20.28.25,1.64,2.45-.42,3.6-1.8,4.9a159.77,159.77,0,0,0-41.44,62.81c-5.81,15.92-8.1,32.54-9.27,49.41-1.25,18.23-1.63,36.54-5,54.62-5.57,29.83-21.54,51.48-49.14,64.37-7.32,3.42-14,7.71-19.41,13.8a29.12,29.12,0,0,0-7.08,15.18c-.34,2.22-.64,4.61,1.43,6.31,1.73-.54,1.58-1.87,1.61-3,.2-9.29,5-16,12-21.41a68.5,68.5,0,0,1,13.15-8.16c30.92-14.3,46.83-39.24,51.59-72.21a357,357,0,0,0,3.27-40.27c1-34.21,9.27-66.17,29.28-94.49a151.81,151.81,0,0,1,34.48-35.16,10.75,10.75,0,0,1,4.86-2.43c3,.07,3.51,1.46,1.81,3.75a38.9,38.9,0,0,1-4.81,5.05c-10.57,10-19.52,21.28-27.66,33.27-2.71,1.88-5.71,3.58-4.93,7.72-3.16,8.08-7.79,15.46-11,23.51-8.33,20.57-12.55,42-14.43,64.06-1.38,16.23-1.92,32.53-4.87,48.63-3.73,20.3-13.8,36.44-29.8,49.29-6.34,5.09-12.38,10.67-16.29,18.06-6.73,12.72-2.74,23.82,10.61,29.13a72.41,72.41,0,0,0,13.4,4,16,16,0,0,1,6.55,2.27c2.15,2.72,4.41,4.87,7.7,1.38a10.26,10.26,0,0,1,5.81-.16c2.34,1.33,4.7,1.64,7.09.09,19.83-2.1,33.31-12.72,41.34-30.7a31.15,31.15,0,0,0,1.72-5.18c.37-1.55.21-3.39,2.07-4.35,2.34,1.62,1.49,4.14,1.8,6.33.31,13.72-2,27.2-3.66,40.74-.2,1.66-.57,3.29-.76,4.94-.16,1.39-1.07,3.51.78,3.89s2-1.88,2.2-3.24c1.64-9.52,2.84-19.1,3.71-28.72a39.51,39.51,0,0,1,.42-4.47c1-4.87,2.25-5.74,7.23-5.24,10.51,1,20.51-1,30.24-4.93,15.61-6.33,24.83-18.49,30.9-33.57.88-2.17,1.61-4.38,2.49-6.55.42-1,1.1-2.32.06-3.25-1.29-1.15-2.58-.1-3.57.66a84.51,84.51,0,0,1-16,9.26,78.54,78.54,0,0,1-32.8,7.69c-13.66.21-23.72-5.89-31.25-16.58-10.86-15.41-14.54-33-14.75-51.54.25-9,.25-9,8.16-5.79,7.47,3.06,13-.71,12.88-8.85-.11-10.94-5.48-17.55-16.25-20a4,4,0,0,1-1.8-.8c-1.31-2.16-1-4.51-.67-6.81,2.3-15.66,4.93-31.25,8.42-46.71a10.28,10.28,0,0,1,7-8.16c21-8.09,38.54-20.89,51.89-39.17.39-.54.77-1.09,1.18-1.61,3.18-4,4.61-3.86,6.31.9,7.05,19.83,21.19,33.13,39.32,42.64a16.22,16.22,0,0,1,8.64,10.28c7.28,23.93,7.79,48.08,3.24,72.56-3.51,18.85-8.62,37.34-11.89,56.22-3.55,20.47-5.14,41,.19,61.38,4.06,15.56,11.85,28.89,24.12,39.47a25.92,25.92,0,0,0,4.42,3.25c1.37.75,3.18,2.38,4.34.56,1-1.57-1.29-2.3-2.34-3.23-2.9-2.61-7.12-3.89-8.33-8.22.69-2.66,2.47-2,3.79-.92,19.52,15.62,43.43,21.37,66.24,29.6a34,34,0,0,1,6.91,2.86c2.86,1.8,1.5,2.71-.85,3.27-10.41-1.43-20.31-5-30.55-7.22-17.25-3.69-34.51-7.25-52-9.73-1.55-.22-3.27-1-4.8,1,1.78,2.14,4.38,2,6.7,2.37,11,1.66,22,3.73,32.9,6a10.44,10.44,0,0,1,4.64,1.67c1.84,3.68-1.7,2.91-3,3.23a123.78,123.78,0,0,0-37,15.92c-16.5,10.4-31.6,22.62-46.19,35.54q-14,12.43-26.8,26.09c-15.66,16.74-32,32.89-46.09,51a128.65,128.65,0,0,0-9.11,13.1c-.84,1.41-1.23,3.75-3.86,2.91-3.67-6.28-4.67-13.46-6.55-20.29q-19.83-71.78-37.89-144c-.56-2.27-.66-4.91-3.11-6.42-1.93,2.14-.84,4.11-.39,5.94q15.9,63.76,33.15,127.18c5.26,19.45,10.67,38.87,16.06,58.29,3.61,13,7.43,25.93,11.33,38.85.4,1.3.55,3.56,2.47,2.94,1.68-.55,1-2.63.59-4-2.8-10.11-5.66-20.22-8.83-30.21-1.67-5.28-.43-8.77,3.4-12.37,20.17-18.94,41-37.1,62.7-54.24a921.22,921.22,0,0,1,97.91-67.4c15.87-9.5,32.2-18.17,48.43-27,2.71-1.48,5.38-2.32,8.58-1.34a731,731,0,0,1,69.38,25.49c30.34,12.75,47.39,36.3,56.38,67.1,9.84,33.74,15,68.29,19.23,103q4.93,40.15,9.66,80.32c3.16,27,6.55,53.87,9.5,80.84.45,4.13,1,8.26,1.56,12.39.37,2.75,1,5.64-1,8.16a2.22,2.22,0,0,1-1.47.1c-14.13-7.06-28.33-3.52-41.73,1.28-32.64,11.7-66.56,17.46-100.41,23.74-2.67.49-5,.52-6.32-2.38-2.33-7.68-3-15.66-4.13-23.54-2.77-19.26-5.17-38.58-9-57.67a18.52,18.52,0,0,1-.35-3c-.38-12.26-1.73-24.38-6.34-35.88-2.29-5.7-5.85-10.36-11.9-12.58-.51-.15-1-.33-1.51-.5-7.17-.6-13.7,5.44-15.2,14.13a52.87,52.87,0,0,0,.4,19.39c3,15.19,5.17,30.55,8.14,45.75,4,20.33,4.7,41,7.21,61.47,5.29,43,10.51,86,21.49,128,4.12,15.8,8.56,31.55,17.35,45.6,4.94,7.89,10.94,14.7,19.21,19.25,3.47,1.91,7,3.12,10.77.56,1.39-1.33,1.44-3.16,1.8-4.87,3.29-12.88,1.35-25.5-2.07-38-10-36.31-17.86-73.1-25.8-109.88-.56-2.64-1.85-5.57.92-7.91,8.2-2.53,16.78-2.46,25.17-3.5a670.49,670.49,0,0,0,107.52-22.51c12.25-3.63,12.2-3.54,13.63,9,5.74,50.3,11.7,100.58,17.17,150.92C2914.87,1745.76,2916.11,1748.25,2919.89,1748.88Z"/><path class="cls-1" d="M1904,808.23c0,.33,0,.66.07,1,7.08,16.35,15.93,31.81,23.92,47.7,21,41.64,39.68,84.3,57.51,127.35,14.32,34.6,28.35,69.32,41.66,104.32,7.93,20.86,14.66,42.13,17.53,64.41a46.72,46.72,0,0,1,.52,9.45c-.29,2.21-1.47,3.34-3.74,2.82-3-.7-5.53.31-7.91,2.08-37.58,27.9-80.74,41.79-126.17,49.56a599.07,599.07,0,0,1-70.39,7.61c-5.47.27-10.92,1-16.43.83-3-.11-5.64-.78-6.61-4.14-2.21-18.08-1.71-36.17-.82-54.31a506,506,0,0,1,5.34-55.11c1.24-7.73,3-15.34,4.94-22.93,1.1-4.38,3.51-6.56,8.1-6.41,2.28.07,4.65.23,6.74-.91.16-2-1.35-1.81-2.33-2a23.69,23.69,0,0,0-6.42-.85c-14.16.44-28.27-.85-42.4-1.09-25.45-.44-50.87-1.62-76.31-2.2q-29.93-.67-59.83-2c-24.59-1.06-49.2-1.07-73.77-2.65-11.78-.76-23.63.23-35.41-1.1-2.74-.31-5.79-.41-7.51,2.65-6,4.85-13.47,7-20.33,10.22-1.48.7-3.23.79-4.59,1.85-20.42,12.38-42.62,19-66.35,21.22a162.89,162.89,0,0,1-78.11-11.48c-9.67-3.93-19.21-8.38-27.5-15-1.14-2-4.82-2.87-3-6.32a9.44,9.44,0,0,0,2.09-6.52c-.54-13,1.59-25.93,1-38.93-1.06-25.43-.85-50.91-2.76-76.32-.52-7-1.11-13.94-1.29-20.93a20.23,20.23,0,0,0-1.8-9c-2.41,1.52-1.85,3.59-1.68,5.4,4.27,45.5,3.78,91.13,3.61,136.75a19.25,19.25,0,0,1-.31,3.48c-2,5.14-2.2,5.29-7,3.33-2.08-.85-4.53-1.26-5.63-3.66-.21-4.29-3-4.06-6-3.44a467.49,467.49,0,0,0-46.94,12.07c-34.41,10.79-67.53,24.82-100.32,39.72-17.75,8.06-35.54,16-52,26.61-27.35,17.64-46.95,42.09-62.16,70.39-16.19,30.09-27,62.3-37.05,94.82-14.8,48.1-28.34,96.55-40.16,145.47-4.54,18.78-9.09,37.57-12.83,56.53-.94,4.77-3,7.27-7.82,8.24a181.62,181.62,0,0,0-21.15,6c-4.7,1.56-8.89,3.76-11.62,8.1a1.13,1.13,0,0,1-1.45,0Q921.1,956.45,921,382c0-3.82.43-5,4.73-5q214.65.22,429.32.13a1,1,0,0,1-.27,1.44c-4.12,1.55-8.51,1.33-12.78,1.81A191.13,191.13,0,0,0,1257.28,411c-.55.36.11-.13-.41.28-1.64,1.31-4.18,2.3-3.43,4.92.64,2.24,3.12,2.22,5,2.53,29.59,4.87,59.13,10.07,88.7,15,15.45,2.58,30.87,5.32,46.32,7.87,2,.32,4,.53,5.54,2a3,3,0,0,1,.7,1.48c0,7.81,1,15.58,1.19,23.38a183.6,183.6,0,0,1-3.12,39.21,178.27,178.27,0,0,1-17.45,50.87c-3.59,6.74-4.29,7.32-11.7,6L1246.6,542.94c-5.08-.9-10.13-2-15.26-2.68-4.58-.58-5.44.47-4.25,5,2.66,10,7.93,18.76,14.45,26.61,23.85,28.72,53.9,48.22,89.49,59.37a178.91,178.91,0,0,0,63.57,8.4c32.14-1.75,62.27-10.65,90-27.33a45.08,45.08,0,0,0,5.07-4.06c10.47-5.14,21.77-7,33.2-8.44a6.8,6.8,0,0,1,4.34.87,9.46,9.46,0,0,0,6.58,3c24.18,1.34,48,5.39,71.52,10.81,39.93,9.21,79.45,20,119.23,29.83a18.35,18.35,0,0,0,7.39.7c1.44,0,2.84.13,3.55,1.69.28,2.08-1.14,3.41-2.27,4.8-4.62,5.67-6,12.06-4.71,19.22,1.38,7.73,3.65,15.23,5.62,22.8,7,27.08,12.5,54.59,21.45,81.15,5.06,15,12.34,28.78,24.22,39.69,1,.9,1.8,2.09,3,2.65,8.35,4,10.39,11.36,12.07,19.76,15.86,79.45,35.4,158,58.08,235.78,9.05,31,18.89,61.81,28.84,92.56.65,2,.78,5.92,3.43,5.1s.61-4.12-.07-6.15c-21.25-63.37-39.69-127.58-56.2-192.33q-17.53-68.78-31.29-138.43c-.45-2.31-.89-4.6,0-6.9s.12-3.9-1.93-5c-22.73-12.37-32.76-33.64-39.89-56.92-2.79-9.09-5-18.34-7.34-27.53-5.3-20.48-10.21-41.07-15.49-61.56-2.42-9.39-1.19-17.43,5.55-25,12.08-13.55,23.62-27.58,35.38-41.41a26.11,26.11,0,0,1,8.53-6.83c2.81-1.34,4.55-.43,4.85,2.7a32.73,32.73,0,0,1-.82,11.4,354.25,354.25,0,0,1-15.3,46c-2,4.86-1.55,8.09,2.22,11.93a189.24,189.24,0,0,1,26.52,33.7,14.2,14.2,0,0,1,2.33,4.94c-.49,22.51,4.51,43.87,13.55,64.37,3.44,7.82,7.68,15.15,13.94,21.08,7.06,6.7,16.62,5.63,22.45-2.21,3.42-4.61,4.47-10.38,7.73-15a12.73,12.73,0,0,0,.73-6.86c-1.84-16.15.92-31.66,6.48-46.76a6.07,6.07,0,0,0-1.56-7.17c-.9-2.87-3-6.09,2-7.36,4.53-.4,8.79,1.31,13.22,1.77,1.4.14,3.48.9,4-.86s-1.67-2.2-3-2.42c-3.77-.64-5.48-2.88-6.53-6.47-1.57-5.38-3.79-10.58-5.23-16-.53-2-1.47-4.15.17-6.16,7-1,13.16,1.56,19.36,4.16,11.71,21.84,17.33,45.25,18.07,69.94.44,15-.36,30-4.07,44.62C1902.76,803.82,1903.33,806,1904,808.23Z"/><path class="cls-2" d="M1370.05,377.13q772.53,0,1545.05-.11c4,0,4.9.7,4.9,4.82q-.18,593.54-.11,1187.07c-5-.7-9.39,1.65-14,3-5.86,1.75-7.73.55-8.43-5.33q-6.4-54.28-12.83-108.55c-4.69-39.15-9.13-78.33-14.28-117.43-3.93-29.9-9.07-59.57-18.75-88.26-1.17-3.48-2.57-6.86-3.87-10.28-.63-1.66-1.75-3.3-.74-5.21,4.31-.86,5.93-4,7.35-7.82q17.65-47.34,2.69-95.54c-7.08-22.92-20.43-41.7-38.62-57.19-12.94-11-27.18-20.35-40.18-31.33-14.46-12.2-23.92-27.55-30.52-44.93-5.6-14.72-8.35-30.15-10.79-45.63a5.54,5.54,0,0,1,.63-4.33c.41-.27.94-.6,1.36-.39,8.21,4.16,15.22.95,22-3.53,8.61-3.14,15.79-8.63,22.59-14.49,25.52-22,40.58-49.74,43.68-83.26,2.68-29-6.1-55-24.23-77.71-23.82-29.8-55.34-46.28-92.67-52.18-30.42-4.81-60.41-1.88-90.06,5.74-4,1-8.14,1.81-12,3.4-.92.38-2.08,1-1.87,2.06.31,1.58,1.77,1.16,2.89,1a36.46,36.46,0,0,0,4.34-1.14c16.26-4.41,32.61-8.29,49.55-8.87,1.41.23,3.49,0,3.51,1.85s-2.12,1.8-3.49,2.1c-23.81,5.24-47.22,12.11-71,17.32-2.15.39-4.3.77-6.45,1.22a251.66,251.66,0,0,1-27.78,2.86,105.44,105.44,0,0,1-28.14-3.31c-47.44-11.47-95-22.68-142.4-34.09Q2279.8,682.8,2172.3,656.4c-72.47-17.85-144.91-35.75-216.83-55.71-61.49-17.07-123.76-31-185.76-46.06-39.19-9.5-77.49-22.22-116.31-33.1-14.58-4.1-29.4-7.45-43.46-13.24-1.43-.59-4.91-.31-3-3.83,1.62-.74,3.25-.41,4.89,0,99,23.53,197.76,48.48,296.49,73.36,38.94,9.81,77.91,19.52,116.84,29.38q109.27,27.66,218.59,55.18,80.22,20.25,160.42,40.56c30.54,7.67,60.86,16.26,91.71,22.65,27.61,5.72,55.39,10.09,83.75,9.09,4.27-.15,8.55-.28,12.8-2.41-1.65-2.24-3.73-1.83-5.55-1.62-19.55,2.26-38.89,0-58.21-2.67-34.43-4.75-67.86-14-101.45-22.5-1.94-.49-3.85-1.09-5.79-1.57-49-12.07-97.91-24.7-146.87-37q-97.2-24.48-194.36-49.1c-39.57-10-79.22-19.75-118.78-29.87-86.69-22.16-173.58-43.56-260.38-65.32-32.81-8.22-65.93-15.22-98.52-24.27-23.21-6.44-45.21-16-65.21-29.68-8.73-3.72-15.28-10.57-22.81-16-1.75-1.27-3.44-2.61-5.31-3.71-4.82-4.61-8.63-10.1-13.37-14.81-29-28.77-63.9-45.69-103.91-52.72-7.2-1.26-14.55-1.19-21.68-2.86A1,1,0,0,1,1370.05,377.13Z"/><path class="cls-3" d="M2847.87,1236.76c-.73.37-.67.78-.34,1.53,11.47,26.1,17,53.8,21.26,81.73,7.05,45.69,11.72,91.69,17.22,137.58q6.63,55.22,12.95,110.48c.42,3.66,1.5,4.54,4.94,3,3.17-1.42,6.65-2.12,9.85-3.49,2.53-1.08,4.42-.68,6.14,1.32v2c-1.84,4-5.86,4.61-9.42,5.84-8.4,2.9-8.35,2.85-7.38,11.58,4.72,42.3,9.8,84.56,14.49,126.86,1,9.22.83,18.52,2.31,27.69v6c-4.82,2.33-5.81,2-6.43-3.23-2.29-19.16-4.38-38.33-6.58-57.5q-5.27-45.84-10.56-91.69c-.46-4-1.25-7.92-1.32-11.89-.06-3.77-1.35-3.83-4.48-2.84a641.3,641.3,0,0,1-81.77,19.85c-19.16,3.37-38.48,5.71-57.85,7.51-3.19,1.09-2.3,3.67-2,5.88q4.11,29.94,9.52,59.7a831,831,0,0,0,19.51,84.16,26.32,26.32,0,0,1,.81,6.35,5.87,5.87,0,0,1-.87,4.61c-4.09,1.91-5.78-.54-6.92-3.87-3.22-9.46-5.71-19.14-8.19-28.81-9.83-38.26-16.47-77.13-22.23-116.17-.22-1.48-.55-3-.63-4.45-.21-4-2.18-5.57-6.16-5.09-2.84.34-5.75-.22-6-3.66-.26-3.62,2.66-4.9,5.64-5,3.6-.12,4.46-1.47,3.94-4.94-5-33.57-8.74-67.34-14.7-100.77-3.47-19.43-8.48-38.37-18.81-55.49-1.2-2-2.54-4.21-1.17-6.54,1.21-2,3.26-1.93,5.27-1.06h0c4.12,2.94,6.12,7.44,8.21,11.74,5.76,11.85,10.07,24.2,11.76,37.36,2.83,17.81,5.7,35.61,8.47,53.43,1.63,10.47,3.12,21,4.67,31.44,3.55,8.94,3.38,18.57,5.14,27.85,1,5.28,1.79,6,7.27,5.52a673.78,673.78,0,0,0,126.76-24.15c1.87-.55,3.74-1.14,5.62-1.72,6.71-2.06,6.72-2,5.66-9-.53-7.19-3-14.24-1.44-21.55-1.84-16.7-3.6-33.41-5.56-50.1-3.46-29.59-6.92-59.18-10.62-88.74-5.43-43.4-9.13-87.08-19.92-129.66-3.76-14.84-8.31-29.38-15.52-43-10.19-19.24-26.62-31-46-39.46a663.43,663.43,0,0,0-67.79-24.92,6.65,6.65,0,0,0-5.52.6,917,917,0,0,0-211.83,150.32c-2.7,2.56-3.2,4.76-2.15,8.18,3.23,10.47,6.15,21.05,9.19,31.58.23.8.52,1.59.69,2.4.41,1.94,1.2,4.19-1.49,5-2.85.89-3.75-1.2-4.39-3.44-3-10.39-6-20.75-8.94-31.14-18.44-65.21-36.08-130.63-52.35-196.42-.2-.81-.51-1.59-.68-2.4-.43-1.92-.43-3.89,1.81-4.54,2.5-.73,3.55.91,4.1,3.14,2.62,10.48,5.29,21,7.94,31.43,11.49,45.44,23.72,90.68,36.19,135.86a22.74,22.74,0,0,0,.93,2.31c2.39,2,2.41,5.06,3.14,7.71,1,3.78,2.7,3.65,5.15,1.42,5.4-4.93,10.62-10.06,16.06-15a909.43,909.43,0,0,1,79.45-63.61c25.32-18.16,51.64-34.73,78.59-50.33,9.5-5.5,19.18-10.69,29.39-16.08-9.34-2.41-18.17-5.07-27.21-7-4.34-.94-8.9-1.31-12.75-3.91-13.88-3.46-28-5.54-42.11-7.83-2.28-.37-5.27-.3-4.72-3.66.58-3.6,3.59-2.6,6-2.23a677.14,677.14,0,0,1,82.29,17.48,6.67,6.67,0,0,0,1.49.1c13.23,1.65,25.55,6.56,38,10.85,14.58,5,29,10.51,43.1,16.75a141.88,141.88,0,0,1,22.39,11.87c13.82,9.11,23.85,21.45,31,36.25A2.45,2.45,0,0,1,2847.87,1236.76Z"/><path class="cls-2" d="M2919.89,1742.88c-2.42-5.72-2.06-11.89-2.76-17.86-5.49-46.54-10.68-93.12-16.19-139.67-.61-5.16.38-7.73,5.79-9,4.55-1.08,9.36-2.22,13.16-5.43Z"/><path class="cls-4" d="M1370.05,377.13l.06.82a15,15,0,0,1-15.1,0c0-.28,0-.56,0-.84Z"/><path class="cls-5" d="M921.1,1530.92a.86.86,0,0,1,.83-.11c1.66,1.73,1.65,3.46,0,5.2l-.43,0-.42-.11Z"/><path class="cls-6" d="M1607.26,505c2.22,3,5.86,3.18,8.94,4.24,20.09,6.9,40.82,11.64,61.14,17.76,23,6.93,46.15,13.52,69.26,20.15,26.92,7.73,54.31,13.56,81.55,20,25.3,6,50.59,12.1,75.79,18.52q37.1,9.45,74,19.66c62.27,17.34,125.11,32.48,187.81,48.17q47.25,11.82,94.6,23.23,46.83,11.38,93.73,22.56,59.18,14.25,118.35,28.47c21.9,5.23,43.81,10.48,65.8,15.3,13.41,2.93,27,1.77,40.4-.43a46.38,46.38,0,0,1,7.42-.47c.33,2-1.26,2.9-2.48,4-14.13,12.4-24.68,27.25-31,45a22.71,22.71,0,0,0-.84,2.35c-.3,1.28-.84,2.92.77,3.47s2.25-1.09,2.66-2.3a113.85,113.85,0,0,1,11-22.82,100,100,0,0,1,22.12-24.77c2-1.65,2.43-3.83,3.51-5.81,5.13-2.33,10.72-3,16.11-4.34q24.33-6.2,48.68-12.23c3-.75,6.13-1.3,9.24-1.95-.85-1.12-2.12-.37-3.11-.74.39-2.34,2.34-2.12,3.89-2.18,34.69-1.32,68.15,3.17,98.35,21.9,20.92,13,37.65,30,48.77,52.17,1,1.94,2,3.86,2.06,6.1.22,6.69,2.8,12.9,3.7,19.49,3.6,26.24-.57,51.13-11.84,75a17.43,17.43,0,0,0-2,5.07c-4.33,10.16-12,17.81-19.73,25.28a93.78,93.78,0,0,1-21.1,15.71c-2.69,1.42-3.58,3.71-4,6.42-7,6.38-14.56,8.51-23.14,3.13-1.56,0-1.87-1.28-2.05-2.4-1.69-10.86-3.83-21.65-5.69-32.48a3.5,3.5,0,0,1,.23-1.46c.4-1.25,2-.7,2.63-2.17,4.08-10.16,11-18.57,17.26-27.4,1.82-2.59,3.47-5.3,5.34-7.85,16.48-22.53,14.28-45.86,1.34-68.51-13.75-24.06-36.2-36.13-63-40.23a126.13,126.13,0,0,0-46.66,1.52c-1.92.42-3.88,1.09-5.9.41-1.53-1.64-.16-3.1.34-4.56a32,32,0,0,0,1.49-4.22c.25-1.27.78-2.91-1-3.36-1.42-.37-1.8,1.18-2.24,2.22a32.27,32.27,0,0,1-4.22,7.87,25.21,25.21,0,0,1-16.86,9.65,62,62,0,0,0-8.77,1.82c-5.8,1.68-10.14,4.86-11.59,11.08q-13.95,10-28.79,18.58c-17-1.89-30.61,5.73-43.5,15.51-2.52,1.91-4.39,5.12-8.22,4.9l-35.36.21c-1.84,1.49-3.82.73-5.73.28-36-8.54-72-17.11-107.81-26.22-2-.5-4.47-.4-5.31-3,.05-2.1-1.93-1.7-2.88-2-40.15-10.78-80.24-21.76-120.63-31.59-1.44-.35-2.94-.46-4.4-.68-.51-3,1.72-4.93,3.14-7.08,7-10.56,14-21.1,17.72-33.41a21.91,21.91,0,0,0,.29-12.8c-1.61-5.38-5.43-7.35-10.84-5.74-3.47,1-6,3.39-8.6,5.82-7.71,7.34-14.56,15.58-23.23,21.92-9.73,7.11-20.38,12.62-31,18.2a4.49,4.49,0,0,1-2.89.59c-27.83-7.38-55.93-13.64-83.94-20.23-7.61-1.79-15.21-3.65-22.83-5.39-2.26-.51-4.48-1.32-6.87-.91a21.75,21.75,0,0,1-5.89-1c-23.13-5.67-46.22-11.51-69.31-17.37q-79.66-20.24-159.37-40.32c-14.54-3.65-29-7.54-43.57-11.11-2.61-.64-5.2-1.4-7.68.39a3.62,3.62,0,0,1-3,.66c-1.36-2.23,0-4.16.72-6.13A334.15,334.15,0,0,0,1790,615.92c1.19-5,1.79-10.12.35-15.28-1-3.47-2.85-4.61-6.28-3.34-5,1.83-8.89,5.11-12.33,9-10.2,11.6-20.12,23.45-30.13,35.22-1.8,2.11-3.06,5.24-6.57,5.42-.77-1.1-2-.85-3-.93-1.43-2.93-3.91-4.31-7-5-43.22-10.32-86-22.6-129.39-32a492.9,492.9,0,0,0-54.73-8.38,60.81,60.81,0,0,0-13.94.5c-12.75.31-24.9,3.39-36.72,8-3-1.5-5.68-.83-8.46.84a183.22,183.22,0,0,1-74.22,25.1c-34.41,4-67.29-1.57-98.75-16.07a187.48,187.48,0,0,1-59.09-42.83,92.32,92.32,0,0,1-16.38-23.76c-1-2.19-2.89-4.7-1.15-7s4.41-.79,6.6-.42c23.47,4,46.91,8.27,70.36,12.44,21.32,3.78,42.66,7.47,64,11.39,3.89.72,6.23-.34,8.09-3.85a195.35,195.35,0,0,0,22.51-110c-.32-3.88-.68-7.7-4.59-9.91,0-.31,0-.62,0-.92,1.63-4.6-1.33-5.22-4.77-5.81q-55.63-9.62-111.33-18.88c-5.75-1-11.48-2.07-17.22-3.09-1.48-.27-3.13-.62-3.54-2.32s1.16-2.7,2.35-3.45A187,187,0,0,1,1295.77,395a178.58,178.58,0,0,1,78.38-12.09c43.49,3.06,81.66,19.22,113.94,48.79,11.29,10.33,21.3,21.57,26.3,36.44.36,1,.89,2.61,2.3,2.12,1.73-.6.94-2.25.6-3.45a48.71,48.71,0,0,0-5.82-13.21c-1-1.6-2.65-3.15-1.62-5.42,6.73,3.51,12,9,18.09,13.38,2.89,2.09,5.66,4.29,9.13,5.36-3,2.71-1.83,4.68,1,6.62,9.52,6.48,19.87,11.38,30.33,16A267.46,267.46,0,0,0,1603,502.08C1604.7,502.56,1606.76,502.66,1607.26,505Z"/><path class="cls-7" d="M2793.94,1187.8c-26.46-11.19-53.64-20.38-81.09-28.79a1.41,1.41,0,0,0,.48-.1,7.26,7.26,0,0,0,.65-.58c-2.73-1.08-5.41-2.29-8.18-3.23-17.23-5.83-34.61-11.27-50.89-19.59-5.47-2.8-10.82-5.74-15.19-10.18-.8-.81-1.69-1.82-2.81-.32-2.5.44-3.51-1.54-4.72-3-11.14-13.62-16.32-29.45-17.69-46.82-2-25.3,3.79-49.57,9.42-73.86,4-17.36,7.71-34.81,8.41-52.63a136.66,136.66,0,0,0-5.28-41.91c-3.88-14-9.07-27.49-17.17-39.68-1-1.5-2-4.48-4.14-3.15-1.79,1.12.49,3.17,1.23,4.72,1.57,3.25,4.29,6,4.43,9.86-1.45,2.17-3.19.88-4.72.25-3.32-1.35-6.6-2.77-10.21-3.16-4.23-1.73-6.65-5.39-9.11-8.88-6.68-9.49-11.6-19.68-11.84-31.61,0-1.49-.21-3,.55-4.37,4.26-6.55,10.74-10,18-11.7,21.92-5.22,41,.61,57.69,15.46,16.4,14.58,26.12,33.49,34.51,53.15,11.52,27,19.89,55.09,29.37,82.8,8,23.35,17.48,46,30.45,67.15a202.19,202.19,0,0,0,25.79,33c9.71,10.28,20.37,19.64,29.46,30.52,1.16,1.38,2.75,2.48,2.88,4.51a1.65,1.65,0,0,1-1.58,1c-1.37.13-3.29-1.51-4,.46-.82,2.29,1.57,3.06,3,3.9,9.32,5.29,16.62,12.7,22.74,21.38a18.09,18.09,0,0,1,3.4,7.16c3,8.77,6.15,17.51,7.08,26.82.66,6.61,1,13.21-2.06,19.42-2.08,1.38-2.76-.37-3.22-1.69-9.93-28.06-32.07-45.12-55.24-61.18-12.86-8.91-26.24-17.12-38.26-27.2-10.61-8.9-20.63-18.42-27.4-30.78-.32-.58.14.1-.27-.42-1.07-1.34-1.78-4.28-3.72-3.17-2.38,1.36-.07,3.54.77,5.09,7.8,14.34,19.37,25.3,32,35.25,15.85,12.49,33.54,22.36,49.39,34.84,13,10.24,25.14,21.3,33.43,36a59.62,59.62,0,0,1,6.59,15.59c.45,1.87,1.46,3.85-.17,5.7-6.83,3.21-13.44,1.79-19.95-1C2802.56,1190.8,2798.59,1188.4,2793.94,1187.8Z"/><path class="cls-7" d="M1657,1734.73c-.21,4,1.22,7.53,2.59,11.08,2.19,5.68,2.68,11.36-2,15.77-4.35,4.11-10.17,3.06-15.15,1.42-17.8-5.87-27.71-18.57-30.37-37-3.33-23.1.52-45.54,6.35-67.81,5.06-19.39,8.25-39.09,10.83-59,2.67-20.47,6.58-40.79,11.16-61,5.17-22.75,10.94-45.39,15.26-68.3,3.55-18.81,5.56-37.91,9.1-56.75,3.44-18.29,9.52-35.85,14.27-53.78,4.94-18.72,9.62-37.43,11.21-56.89,1.34-16.43,2.86-33,10.57-48.2,7.62-15,20.29-22.25,36.38-24.36,19.56-2.56,39.26-3.24,58.94-4.18,4.27-.21,8.56-.88,12.87-.85,1.78,1.34,2,3.36,2.28,5.34a226.77,226.77,0,0,0,11.51,50.06c3,8.54,2.55,9.26-6.59,11.09-23.54,4.68-46.87,10.32-70.43,14.85-3.37.64-6.07,1.73-6.7,5.52l-5.87,7.14c-1.71-1.4-1.28-3.27-1.12-5.08,1.55-18.07,1.88-36.2,2.44-54.32.16-5.18-.69-10.34-1.75-16.07-2.57,2.06-2.24,4.13-2.26,6-.06,7.66,0,15.32,0,23,.09,34.9-3.89,69.39-9.88,103.73-7.27,41.68-20.52,81.63-34,121.56-8.78,25.87-16.31,52.1-19.35,79.44a289.11,289.11,0,0,0,3.1,85c.36,2,.66,4,1.19,5.87,3.69,13.47,1.13,25.2-7.57,36.5-10.46,13.58-14.6,29.38-11.34,46.64.49,2.62.49,2.63,2.78,5.08,1.59-3.36.05-6.58-.09-9.74-.12-2.48-.85-4.94-.59-7.45C1654.84,1737.42,1654.47,1735.3,1657,1734.73Z"/><path class="cls-7" d="M1360.63,1537.92q-18.87,0-22-16.07c-1-5.35,1.27-10,4.37-14.27,7.11-9.66,16.44-16.93,26.66-22.82,25.19-14.51,50.62-28.61,78-38.66a430.12,430.12,0,0,1,70.39-19.34,196.29,196.29,0,0,1,30.5-3.5c14.07-.34,28.25.7,41,8,18.53,10.59,15.8,33.91,5.13,45.69-12.31,13.58-28.5,19-45.49,22.92a238.08,238.08,0,0,1-36.8,5.13c-39,2.76-77.88,6.79-114.85,21-7.44,2.85-14.81,5.87-22.19,8.86C1370.37,1536.82,1365.33,1538.4,1360.63,1537.92Z"/><path class="cls-7" d="M1209.08,1102c.34,11.56-5.09,21.56-9.09,31.83a303.53,303.53,0,0,1-41.31,73.61c-17.11,22.53-36.57,42.85-59.28,60-15,11.29-30.66,21.53-46.28,31.88a34.06,34.06,0,0,1-11.07,4.41c-6.86,1.66-12.33-3.41-13-11.5-.19-2.42.83-5-.83-7.26-1.6-1.74-.46-3.51.1-5.13,9.59-27.73,20.35-54.93,35.86-80,17.57-28.42,40.76-50.63,70.76-65.73,21.88-11,44.32-20.75,66.71-30.61C1203.93,1102.48,1206.22,1100.43,1209.08,1102Z"/><path class="cls-7" d="M1334.06,1074l4,4c-3,3.43-3,4.07,1,6.68a149.91,149.91,0,0,0,41.31,18.43c42.64,11.89,83.89,8.17,123.61-11.57,1.64-.82,3.2-1.76,4.79-2.67,3.25-1.89,3.21-3.82.24-5.91,8.46-2.32,15.68-7.67,24.16-10a45.59,45.59,0,0,1,19.84,2.09c2.49,8.35.57,16.46-1.76,24.38-6.22,21.1-19.8,36.77-37.2,49.56a126.22,126.22,0,0,1-58.36,23.78,138,138,0,0,1-72.51-9.65c-19.69-8.15-35.84-21.1-51.25-35.45a275.39,275.39,0,0,1-20.44-21c-8.6-9.93-15.16-20.83-13.7-34.8.1-.49.18-1.11.65-1.27,7.33-2.54,14.74-4.63,22.61-4.33,2.63,1.23,5.32,2.33,7.87,3.7s1.81-1.49,2.87-2C1333.73,1069.57,1333.69,1071.87,1334.06,1074Z"/><path class="cls-7" d="M2468.71,1113l-6.75,0c-4-2.74-3.84-7.17-4.22-11.16-1.71-18,2.1-34.34,14.8-47.92,1-1.05,2.56-2.57,1.21-3.82-1.72-1.59-3,.55-4,1.63a59.53,59.53,0,0,0-14.38,27.49c-2.16,9.34-2.67,18.69-.27,28.09.4,1.54,1.13,3.22-.28,4.7-6.66-2-13.41-3.69-20-6-4.85-1.7-9.42-4.21-12.32-8.76-3.79-5.93-3.6-12.35-1.35-18.62,3.38-9.46,10.6-16.26,18.17-22.1,18-13.93,27.52-32.25,30.6-54.44,2.21-15.92,2.41-32,4.14-48,2.89-26.7,9.15-52.56,22.4-76.29,1.3-2.32,2.4-4.76,3.59-7.14,23.76-7.13,42.68-21.28,58.14-40.35,1.44-1.77,4.55-4.26,2.14-6.12-2-1.51-3.55,2.15-4.92,3.86a119.17,119.17,0,0,1-45.36,35.11c-1.61.71-3.28,1.81-5.17.65,5.06-9.52,12.21-17.5,19.27-25.5,3.94-4.46,8.41-8.44,12.56-12.71.75-.77,3.27-2-.13-2.77a2.35,2.35,0,0,1,1-2.16c7.1-4.15,14-8.82,22.82-8.24,4.65,3.15,9.22,6.39,11.25,12,1.47,7.83.43,14.71-4.62,21.55-13,17.57-29,31.1-49.18,39.55-1.86.77-3.7,1.68-5.74,1.55-3.53-.23-5.08,1.62-5.82,4.81a601.13,601.13,0,0,0-11.15,63.92,196.32,196.32,0,0,0-1.49,22.37c-.08,23.59,3,46.53,18.3,66,2.59,3.28,6.37,5.4,8.39,9.14A35.55,35.55,0,0,0,2523,1065a34.92,34.92,0,0,1,.31,8.84c-.11,1.74,0,3.74-2.26,4.45-.14-1.73-.28-3.47-.5-6.08-3.81,22.81-24.25,40.76-45.6,40.81-3.32-3.65-2.87-8.36-3.3-12.7a51.15,51.15,0,0,1,2.07-19.69,15.37,15.37,0,0,0,.72-2.9c.08-.83.17-1.83-.72-2.19-1.22-.49-1.87.56-2.21,1.43a44.71,44.71,0,0,0-3.13,15c-.15,5.47-.33,11,.9,16.37C2469.65,1109.89,2470.25,1111.63,2468.71,1113Z"/><path class="cls-7" d="M2633.19,1560.78c-10.86-1-20.88-5.14-31-8.79-26.23-9.47-51.05-22.45-77.55-31.24-17.35-5.76-35-9.9-53.47-10-8.42-.07-16.75-.7-25.25,0-13.22,1.06-26.49-.42-39.71-1.49a105.48,105.48,0,0,1-28.14-5.73c-10.55-3.89-20.19-9.37-28.3-17.24-6.07-5.89-4.86-10.94,3.19-14.27.88,3.25,3.13,4.74,6.32,5.57,13.27,3.43,26.74,5.12,40.41,6.11a367.37,367.37,0,0,0,41.43.64c12-.47,23.94-.79,35.93-.81,29.79,0,59.09,3.93,88,10.75,27.58,6.49,54.71,14.57,81.56,23.59,4.29,1.44,8.57,2.7,13.17,2,3.69,4.63,8.23,8.61,11.17,13.82,3.57,6.34,7.34,12.73,5,20.47a15.35,15.35,0,0,1-14,10.83,76,76,0,0,1-21.1-2c.18-3-1.2-4.8-3.92-6.16-18-9-36.35-17.26-54.23-26.49a10.28,10.28,0,0,0-1.85-.76c-1.12-.32-2.47-.86-3.16.38s.49,2.09,1.48,2.72a39.41,39.41,0,0,0,3.52,1.86c15,7.88,30.64,14.58,45.7,22.39C2630.26,1557.79,2632.68,1558.18,2633.19,1560.78Z"/><path class="cls-7" d="M1166.12,1739.86c-8.31,10.11-17,11.81-26.26,4.84-4.26-3.2-6.57-8-7.74-13-2.3-9.92-2.19-19.9-1.39-30.09,1-13.21,2.77-26.3,4.42-39.41,1.52-12.12,3.61-24.17,5.41-36.26q3.29-22,6.51-44.1c2.2-15,4.5-30,6.5-45.11.64-4.85,2.31-9.62,1.5-14.63,1.32-1.53,3-1,4.66-.84q19.82,2.52,39.48,6.09c5.43,1,6.35,2.21,5.39,7.92-3,18.22-6.45,36.38-9.73,54.57-8.77,48.66-18.2,97.19-27.51,145.74A11.71,11.71,0,0,1,1166.12,1739.86Z"/><path class="cls-3" d="M1166.12,1739.86c-1.21-6.29,1.27-12.14,2.44-18.08q16.51-84.57,31.56-169.4c1.16-6.54,2.29-13.08,3.61-19.59.46-2.25.07-3.37-2.38-3.76-15.4-2.46-30.75-5.3-46.28-6.94-27.87-4-55.89-6.14-84-7.35-23.3-1-46.58-1.41-69.87.16a322.39,322.39,0,0,0-32.2,3.82c-2.56.44-3.59,1.32-4.13,3.91q-8.62,41-15.73,82.29-9.33,53.85-16.09,108.07c-.27,2.2-.87,4.15-3.46,4-3.21-.26-2.76-2.85-2.48-5,2.39-18,4.63-36,7.33-53.9,5.07-33.7,10.63-67.32,17.42-100.73.64-3.16-.29-4-3.31-4.34a41,41,0,0,1-19-6.87A17.12,17.12,0,0,1,922,1536l0-5.2c1.18-4.31,4.44-6.39,8.31-7.89a168.54,168.54,0,0,1,26.26-7.74c3.19-.68,4.26-2,4.91-5.07q23.7-110.17,57.83-217.6c9.38-29.46,20-58.43,35-85.59,19.81-35.69,47.51-62.93,84.65-80.38,45.26-21.28,90.79-41.87,139-55.91,12.61-3.67,25.38-6.67,38.24-9.3,4.94-1,6.19.31,4.94,4.94-7.62,2.4-15.72,2.84-23.26,5.6-18.72,3.87-36.74,10.07-54.66,16.52-11.51,4.15-23.05,8.28-34.08,13.64-27.23,11-54.11,22.78-80,36.69-24.24,13-43.48,31.52-58.87,54.19-12.39,18.23-21.91,37.93-30,58.36-4.39,11.09-8.7,22.22-12,33.7-8.75,25.47-16.26,51.32-23.66,77.19q-21,73.38-37,148c-.17.77-.66,1.54.18,2.65,25.47-4.53,51.37-5.28,77.32-4.87a943.41,943.41,0,0,1,107.53,7.66c1.47.19,3,.15,4.47.22,1.84-1.34,3.86-.7,5.8-.44,10.73,1.45,21.44,3,32.09,5s8.91,2.4,10.64-7.66q14.63-84.67,28-169.57a35.22,35.22,0,0,1,1.47-6.83c.85-2.29,2.45-3.64,5-3s3.2,2.6,3,5c-.18,2-1.4,3.73-1.79,5.69-6.38,39-12.66,78.08-19.17,117.09-5,30-10.29,59.94-15.43,89.91-.28,1.63-.39,3.29-.57,4.93q-7.8,51.75-18.06,103.07c-2.13,10.69-4.19,21.4-7,32q-4.5,22.33-9,44.67C1171.38,1738.83,1170.85,1742.2,1166.12,1739.86Z"/><path class="cls-7" d="M2707.9,1434c-1.65-.47-3.36-.85-4.51.85-1,1.41-.42,2.82.44,4.17,12.86,20.26,18.2,43.07,21.76,66.32,4.79,31.23,8.84,62.57,13.4,93.83.57,3.89-.21,5.38-4.18,5a15.14,15.14,0,0,0-3.95.35,2.7,2.7,0,0,0-2.42,3.19c.13,1.82,1.31,2.57,3,2.62.16,0,.33,0,.49,0,8.8.39,8.62.41,9.94,9.49,7.1,48.88,15.73,97.46,30,144.86.89,3,1.2,6.66,6,5.2-4.73,3.51-9.28,2.32-13.86-.42-11.93-7.15-19.59-18-24.84-30.37-11.67-27.5-17.19-56.66-22.37-85.91-3.43-19.38-6.05-38.87-8.58-58.36-1.9-14.58-3.94-29.17-4.47-43.94-.46-12.71-3.42-25.21-5.26-37.8-2.72-18.64-7.7-37-9.1-55.74-.59-7.88,1-16,8.16-21.45C2700.68,1433.45,2703.93,1431.62,2707.9,1434Z"/><path class="cls-7" d="M1241.23,1343.94c.24-1.64.49-3.27.7-4.91.28-2.25.38-4.67-2.59-5-2.61-.27-3.08,1.83-3.41,4-2.25,14.46-4.49,28.91-6.88,43.35q-10.17,61.48-20.47,123c-.87,5.25-1.67,10.51-2.68,15.73-.29,1.5.17,3.73-3.05,3.18-15.24-2.62-30.52-5-45.78-7.43q4.2-27.63,9.79-55c5.53-27.26,12.18-54.2,21.56-80.41,2.73-7.63,5.83-15.13,8.77-22.69,3.34,1.71,2.58,5.14,3,7.87,2.07,12.13,3.59,24.34,5.14,36.55.22,1.74.19,3.59,2,5.34,1.82-3,1.18-5.79.84-8.47q-2.7-21.78-6.33-43.44c-.42-2.49-1.78-5.17.29-7.63,5-7.71,8.28-16.55,15.31-23,9.21-8.41,23.83-4.7,27.06,7C1245.85,1336.64,1243.54,1340.29,1241.23,1343.94Z"/><path class="cls-8" d="M1553,1075.05c-5.08-.29-10.15-.64-15.23-.86-1.66-.07-3.28,0-4.61-1.23-.91-5.07,2.49-4.9,5.83-4.79l57.85,1.89,106.74,3.42,132.67,4.35c2.29.07,5.3-.44,5.21,2.94-.1,3.56-3.23,3.11-5.7,3-9.57-.22-9.57-.23-11.89,9.21-7,28.44-8.89,57.47-9.86,86.59a291,291,0,0,0,1.17,42.37c2.63,4.66,2.34,9.94,3.08,15a208.8,208.8,0,0,0,10.65,42.57c2.15,5.74,2.29,5.73,8.43,4.44q65.28-13.73,130.49-27.76c14.82-3.22,29.36-7.33,42.77-14.88,19.89-11.21,29.18-28.84,31.91-50.75,1.19-9.55,1-19.14,1.48-28.7-.85-18.62-5.4-36.54-11.52-54-19.11-54.41-41.47-107.55-64-160.59-19.06-44.83-39.89-88.83-63.28-131.59-1.13-2.07-2.3-4.09-1.14-6.55,4-1.86,5.23,1.19,6.68,3.85,22,40.29,41.71,81.65,59.85,123.78,23.18,53.84,45.63,108,65.62,163.11,9.64,26.58,15.93,53.93,14.55,82.48-.93,19-5.42,36.86-18.68,51.43-9.9,10.87-22.46,17.49-36.13,22.27-19.84,6.95-40.58,10.27-61,14.75q-37.5,8.2-75.11,15.95c-2.67.55-4.2,1.49-4.52,4.23a12.62,12.62,0,0,1-.76,2.88c-2,5.52-5.45,9.68-11.45,10.68-5.74,1-10.22-2-13.08-6.54-2.31-3.66-4.64-4-8.51-3.17-25.65,5.65-51.35,11-77,16.56a13.66,13.66,0,0,1-5.43.36c-2.21-3.77-.68-5.25,3.21-6.07,26.17-5.51,52.3-11.17,78.46-16.72,2.19-.46,3.76-.48,2.51-3.63a214.35,214.35,0,0,1-13.59-57.54,22.88,22.88,0,0,0-.66-2.9c-.94-17.46-1.64-34.92-.78-52.4,1.41-28.77,3.43-57.48,11-85.45,1-3.61,0-4.09-3.21-4.18q-69.13-2-138.24-4.12-60.88-1.9-121.75-4A29.8,29.8,0,0,0,1553,1075.05Z"/><path class="cls-7" d="M2491.91,1723.88c6.84,17.11,8.57,34.1-2.59,50.13-5.63,8.08-15.58,9.38-24.72,7.13-12.17-3-19.86-11.56-25.56-22.11-8.74-16.17-14.08-33.69-19.89-51-6.72-20-13.61-39.92-22.75-59-3.36-7-7.69-13.56-11.53-20.35-1-1.7-2.58-2.52-4.07-3.56-5.25-3.69-8.3-11.81-6.16-16.54,2-4.52,9.66-10.44,17.79-9.15,8.56,1.36,13.8,6.48,18,13.42,12,19.69,25.18,38.53,40.6,55.83,11.67,13.08,24.56,25.22,33.71,40.43.95,1.56,2.15,3,2,4.95-2.29.06-3-1.86-4-3.29a187.76,187.76,0,0,0-22.6-26.48,46.47,46.47,0,0,0-6.16-5c-.94-.64-2.08-1.49-3-.17-.73,1,.07,1.85.77,2.58.46.48,1,.91,1.45,1.37,12.28,11.52,23.52,23.94,32,38.61C2486.93,1724.62,2489.09,1724.94,2491.91,1723.88Z"/><path class="cls-7" d="M2669.88,1155.15c14.24,2.49,28.11,6.53,43.48,10.49-77.8,40.74-147.94,90.5-211.12,150.8a88.61,88.61,0,0,1-4.18-14.51c9.22-15.92,21.57-29.3,34-42.73,14-15.15,27.76-30.55,42.9-44.54,21-19.37,42.7-37.92,68.7-50.57C2652,1160,2660.9,1157.46,2669.88,1155.15Z"/><path class="cls-7" d="M1300,1758.9c-14.06.29-26.41-4.17-37.84-11.38-19.88-12.56-37.49-27.88-53.75-44.81a26.18,26.18,0,0,1-7.19-23.38c1.79-10.75,15-15.76,24.87-9.24a34.21,34.21,0,0,0,10.38,4.39c26.86,7.22,53.78,14.23,80.64,21.45,8.71,2.34,17.32,5.28,22.91,13,6.71,9.27,5.31,22.34-2.8,33.28C1329.79,1752.24,1315.15,1759.85,1300,1758.9Z"/><path class="cls-7" d="M2207.91,1186c9.2,1.23,18.4,2.5,27.61,3.67,1.93.25,3.91.14,5.87.2,4-.53,7.48,1.31,11,2.64,18.57,7,35.22,17.06,49,31.61,1.26,1.33,2.95,4,4.76,2.3,2.21-2.13-.82-3.72-2.15-5.11a129.59,129.59,0,0,0-29.49-22.73c-1.44-.83-3.69-1.08-3.55-3.56,8.79-.07,17.31,2.17,26,3.12,11.93,1.29,23.81,3.14,35.68,4.91a49.4,49.4,0,0,1,17.4,5.48c5.31,3,8.59,7.17,7.87,13.65-3.59.37-4.88,2.64-5.52,5.95a210.45,210.45,0,0,1-5.49,21.79c-.49,1.57-.31,3.85-2.85,4.09a47.33,47.33,0,0,1-16.95,7c-2.3-2.6-5.27-3.71-8.61-4.53-40.59-10-81.3-19.45-121.89-29.41-9.6-2.36-9.58-2.57-5-11.35,4.46-8.56,8.67-17.26,13-25.89C2205.31,1188.28,2205.49,1186.08,2207.91,1186Z"/><path class="cls-3" d="M2520.17,1053.87c-19-15.28-25.43-36.45-27.12-59.41-2.39-32.37,3.87-63.94,10.33-95.41.44-2.12,1-4.2,1.48-6.31.86-4,.77-8.36,7.51-6.77,2.64.63,6.16-2,9.16-3.4,20.51-9.55,36.2-24.5,48.41-43.35a4.52,4.52,0,0,0,.74-2.73c0-4.15,0-8.3.06-12.46-1.45-5.42,1.11-10,3.39-14.47,1-2,3.1-2.44,5.19-1.39a4,4,0,0,1,2.06,5.44c-2.35,5.69-2.7,11.92-4.87,17.64,0,17.77,7.32,32.14,20.39,43.83,5.83,2.44,9.74,7.91,15.85,10.27-.05-2.44-2.16-4-1.81-6.32-1.38-4.33-4.17-7.9-6.45-11.73-1.15-1.93-2.54-4,0-5.64s3.93.41,5.13,2.28A151,151,0,0,1,2632,923.72c4,26.23-.62,51.7-6.51,77.08-4.74,20.42-9.86,40.81-10.13,61.92-.29,23.26,4.62,44.92,21.6,62.29,2.62,3.28,6.07,5.6,9.47,8,1.86,1.29,4.69,2.37,2.83,5.29-2,3.21-4.4,1-6.39-.36-13.73-9.08-22.43-22-27.87-37.26-7.2-20.17-6.64-40.84-3.56-61.61,3.15-21.22,9.16-41.86,13-62.95,4.51-24.62,4.17-48.94-3.25-73a12.6,12.6,0,0,0-6.86-8.32c-19.89-10.31-35.23-24.86-41.89-47.11-1.91,0-2.18,1.79-3,2.89a116.92,116.92,0,0,1-54.37,41.39c-1.93.73-4.11.88-4.72,3.66-4,18.69-8,37.38-9.55,56.49,1.38,3.56.36,7.16.21,10.76-.28,7.07-1.6,14-2.56,21a4.76,4.76,0,0,0,.41,3.38,91.83,91.83,0,0,0,9.68,42.84c10.76,21.32,26.46,28.19,50,22.54a93.92,93.92,0,0,0,33.58-15.58c1.55-1.13,3-3,5.25-1.29,2.53,1.94.57,3.61-.22,5.59-2,5.08-3.73,10.29-6.27,15.16-11.08,21.31-35,34.19-58.86,31-4.74-.62-5.42.82-5.69,4.79-.79,11.44-2.33,22.8-4.22,34.12-.4,2.35-.95,4.58-3.76,4.14-3-.47-2.55-3-2.2-5.2,2.49-15.61,4.69-31.23,5-47.07,1-4.73.72-9.52.7-14.3C2520.64,1060.7,2521.09,1057.18,2520.17,1053.87Z"/><path class="cls-7" d="M2881.11,1578c-16.82,5.72-34.11,9.6-51.44,13.3A632.48,632.48,0,0,1,2750.4,1603c-3.79.32-5.17-.61-5.57-4.48-1-10.23-2.53-20.41-3.83-30.6,1,.72,1.42,1.88,3.27,1.43,21.35-5.19,43.37-7,64.61-12.67,15.68-4.16,30.76-10.43,46.61-14,8.17-1.87,16.37-3.93,25-1.81,3.48.86,6.3,2.92,9.57,4.08,1.49,7.27,2,14.67,2.72,22C2890.47,1572.32,2885.22,1574.57,2881.11,1578Z"/><path class="cls-8" d="M2207.91,1186c-6,11.82-11.31,24-18.09,35.43-2.25,3.8,1.47,3,2.67,3.28,16.61,4.13,33.26,8.08,49.9,12.08q40,9.6,80,19.17c2.82.67,5.25,1.38,4.69,5-2.1,2.47-4.64,1.23-7,.68q-64.73-15.53-129.43-31.13c-2.34-.56-4.69-1.85-7.13-.06a2,2,0,0,1-1.84-.07c-9-6.73-20.25-6.46-30.46-9.25-17.95-4.91-36.17-8.82-54.27-13.15-2-1.32-2.47-3.09-1.23-5.12,1.13-1.85,3-1.93,4.87-1.54,3.58.74,7.17,1.45,10.72,2.33,21.28,5.27,42.63,10.3,63.93,15.48,6.21,1.51,6.7,1.43,9.75-4.44,3.74-7.22,8.11-14.11,11.09-21.74,1.13-2.9,2.32-5.91,4.92-8,9.15-18.89,15.46-38.8,20.88-59,3.31-12.38,5.64-25,7.85-37.58.53-3-.39-3.91-3.35-4.54-33.83-7.14-67.62-14.46-101.42-21.73-.49-.1-1-.13-1.49-.22-2-.37-3.66-1.28-3.39-3.54.34-2.73,2.54-2.78,4.6-2.35,8.46,1.77,16.9,3.64,25.35,5.45,25.51,5.46,51,10.88,76.52,16.43,3.22.7,4.91.37,5-3.39.06-3.15.58-6.29.95-9.43.25-2.1,1.26-3.49,3.6-3.12,2.17.35,2.4,2.12,2.27,3.83a81.91,81.91,0,0,1-1.17,10.4c-.65,3.09.54,4,3.3,4.61,56,11.37,112.1,22.65,168.32,33.13,33.5,6.25,67.06,12.21,100.59,18.35,2.3.43,5.63.44,4.72,4.21-.8,3.33-3.5,2.1-5.76,1.7q-120.63-21.15-240.6-45.79c-9-1.83-18-3.37-26.84-5.59-4.22-1-5.18.21-5.75,4.08a375,375,0,0,1-22.23,82.11C2211.25,1177.32,2209.59,1181.64,2207.91,1186Z"/><path class="cls-7" d="M2201,1185c-4.67,12.31-11.19,23.7-17.45,35.23-1.41,2.59-3.21,1.54-5.1,1.08q-38.55-9.25-77.09-18.51c-1.82-.44-3.67-1.17-5,.63-1.16,1.56-.46,3.15.61,4.57-4.91-1.34-8.35-4.28-8.9-9.48-.75-7.06,1.08-13.27,7.79-16.92,8.27-4.49,17.45-4.44,26.25-3.3,7.08.92,14.19.85,21.24,1.39,18.1,1.39,36.17,3,54.18,5.27A31.21,31.21,0,0,0,2201,1185Z"/><path class="cls-8" d="M2180.88,752.73c19.83-9.72,38.59-20.9,53.06-38.14a38.29,38.29,0,0,1,8.26-7.17c8.14-5.35,15.83-1.48,16.7,8.2.53,6-1,11.58-3.35,17-4.63,10.36-10.66,19.92-17.07,29.24-.93,1.36-1.79,2.78-2.68,4.17-9.86,12.81-21.23,24.28-32.11,36.18-13.51,14.76-21,33-28.76,51-21.48,49.72-36.6,101.53-49.85,153.92-5.26,20.78-10.15,41.66-15.22,62.5-.2.8-.54,1.58-.68,2.39-.37,2.33-1.52,3.88-4,3.17s-2.31-2.79-1.79-4.91c2.25-9.2,4.43-18.43,6.66-27.63,13.38-55.26,27.52-110.31,47.88-163.52,8.48-22.18,17.22-44.29,29.25-64.88,7.3-12.49,17.82-22.33,27.57-32.8a203.82,203.82,0,0,0,34.81-50.29c2.25-4.65,3.87-9.61,3.33-14.92-.51-5.07-3.2-6.39-7.43-3.64s-7.42,6.24-10.58,9.85c-11.17,12.74-24.91,21.91-39.74,29.74-13.67,7.23-27.55,14.17-38.58,25.44a55.39,55.39,0,0,0-9.64,12.66c-1.06,2-2.25,4.17-4.87,2.81-3-1.56-1.58-3.89-.32-5.9,2.12-3.37,4.33-6.69,6.5-10,2.94-6,8.47-9.56,13.43-13.63,2.88-1.75,5.56-3.83,8.57-5.38,1.54-.87,3-1.88,4.46-2.89C2176.57,754,2178.5,752.77,2180.88,752.73Z"/><path class="cls-8" d="M1657,1734.73c-1.75,6.15-.37,12.19.7,18.23.4,2.28,1.44,5-1.84,5.73s-3.56-2.11-4.06-4.41c-3.71-17.14-.6-33,8.83-47.71,3.57-5.58,8.29-10.5,10.23-17,2.12-7.12.7-14.19-.76-21.21-10.61-50.85-7.12-100.91,8.53-150.24,8.48-26.74,17.79-53.23,25.79-80.11a602.06,602.06,0,0,0,24.87-161.22c.19-10,.2-20-.06-29.94-.06-2.35-.34-5.18,3-5.28,3.47-.11,2.93,2.84,3,5.12,1,24.15-.36,48.23-2,72.31-5.38,62.38-21.51,122.22-42.41,181-8.92,25.08-15.81,50.73-18.91,77.3a278.38,278.38,0,0,0,4.67,92.29c3,13.58.74,25.58-8.1,36.53C1661.75,1714.36,1657.48,1723.86,1657,1734.73Z"/><path class="cls-8" d="M2344,1254c3.61-9.46,5.57-19.37,7.72-29.21.9-4.12,2.65-5.12,6.14-2.62-.88,11.19-4.39,21.8-7.48,32.47-8.1,27.93-19.16,54.88-27.91,82.6-7.45,23.58-12.91,47.55-13.26,72.36-.3,20.88,2.74,41.47,7.22,61.84,7.56,34.43,18.22,68.06,26,102.43a1143.93,1143.93,0,0,1,24.3,156.7c.12,1.32.13,2.66.21,4,.14,2.35.61,5.14-2.84,5.19-2.91,0-3-2.53-3.18-4.75q-.87-10.2-1.82-20.39c-6.15-65.92-18.83-130.61-36.59-194.35-6.78-24.35-13-48.81-16.78-73.87-5.33-35.43-1.47-69.92,8.8-104,8.35-27.7,19.21-54.54,27.81-82.14C2343,1258.17,2343.46,1256.06,2344,1254Z"/><path class="cls-7" d="M2162.07,764.35l-13.85,12.77c-4.85,1-8.54,4.31-12.89,6.33-10.29,4.79-17.35,3.89-25.36-3.91-7.51-7.31-16.79-10.37-26.92-11.48-2.3-.26-4.58-.66-6.86-1-1.74-1.79-.59-3.74-.19-5.56,1.76-8,5.18-15.58,7.07-23.58a3.49,3.49,0,0,1,1-1.32c2.13-1.12,4.25-.41,6.32.13,21.91,5.75,43.89,11.21,65.86,16.7,1.94.49,3.89,1,5.36,2.51C2163.41,758.65,2163.93,761.44,2162.07,764.35Z"/><path class="cls-7" d="M2124.06,844c-.59,12.27-4.46,23.7-9,35a144,144,0,0,1-12.73,23.64c-3.84,5.94-9.41,7.28-15.61,6.25-5.53-.92-8.1-5.42-9.63-10.41-2.79-9.1.49-17.67,2.42-26.36,2.61-11.78,8.71-22.22,13-33.36,5-13,22.61-14,28.89-6C2124.2,836.32,2123.91,840.05,2124.06,844Z"/><path class="cls-8" d="M2560.91,813.24c-9.09.72-17,4.33-24.29,9.65-21.7,13.9-37.5,33.07-49.55,55.57-13.3,24.82-17,51.8-18.2,79.45-.85,20.09-1.91,40.2-8.69,59.47-7.48,21.23-21.15,37-41,47.53-6,3.18-12.29,5.95-17.72,10.12-7.55,5.8-13.29,12.64-12.22,23,.21,2-.79,3.38-2.66,3.55s-3-1.26-3.32-3.07c-1-5.66.5-10.91,3.15-15.85A39.1,39.1,0,0,1,2401,1068a129.7,129.7,0,0,1,11.73-6.58c26.62-12.72,41-34.31,46.26-62.8,3.31-18.07,3.74-36.38,4.8-54.62,2.61-45.29,19.81-83.6,53.58-114.21a5.48,5.48,0,0,0,.58-.8c9-7.08,17.82-14.41,28.69-18.54,7.53-2.86,15.23-4.66,23.33-2.51,2.51,2.76,2.22,4.85-1,6A9.13,9.13,0,0,1,2560.91,813.24Z"/><path class="cls-8" d="M2659.84,1519.77c-1.72,3.2-4.19,2.31-6.86,1.46-24.05-7.65-48.11-15.25-72.49-21.83-44-11.88-88.77-16.23-134.33-14.1-30.09,1.41-60.22,1.21-89.64-7-3.44-1-6.37-2-3.54-6.34h0c3.07-1.64,6.13-.8,9.21,0,13.94,3.52,28.17,4.5,42.45,5.73,21.69,1.88,43.24-.43,64.85-.45,28.74,0,57.11,2.43,85.14,8.49,31.73,6.86,63.13,15,93.31,27.22,2.71,1,5.38,2.17,8.16,2.95A4.65,4.65,0,0,1,2659.84,1519.77Z"/><path class="cls-7" d="M2735,1432.08c1.69-14.38,6.91-27.5,14.34-39.81a6.4,6.4,0,0,1,1.33-1.47c2.33-2,14.9-2.6,18.13-.91,4.44,2.33,7.76,9,7.07,14.39a93.54,93.54,0,0,1-29.76,58c-2.59,2.51-5.46,2.67-8.67,1.4s-4.5-3.65-4.52-7c0-2.63.46-5.34-1-7.8a10.89,10.89,0,0,0,5-6.43,256.42,256.42,0,0,1,17.4-42.36c.91-1.78,3.12-4.49.81-5.66s-3.11,2.23-4.07,4C2746,1408,2742,1418,2738,1428,2737.4,1429.61,2737.39,1431.8,2735,1432.08Z"/><path class="cls-7" d="M2647.92,1512.92c-16.06-4.82-32.07-9.78-48.17-14.45-33.94-9.84-68.34-17.37-103.76-19.14-20-1-39.94-.32-59.9.21-26,.69-51.92-.08-77.26-6.86-1.95-.52-3.83-1.14-5.87-.72,5.35-5.1,12.13-3.4,18.07-2.78,10.15,1.06,20.25.37,30.36.74,18.56.69,37.14,1,55.67,2.11,15.84.9,31.69,2.11,47.43,4a644,644,0,0,1,98.2,19.25c14.39,4.08,28.74,8.17,41.92,15.49C2645.75,1511.42,2646.82,1512.21,2647.92,1512.92Z"/><path class="cls-7" d="M2821.76,1697.38c.48-8.7,4.47-17.1,6.24-26,1.27-6.35,3.8-11.47,8.57-15.7,5.4-4.79,13.59-6,19.42-2.74,6.18,3.48,8.09,9.27,6.14,17.75a69.85,69.85,0,0,1-20.72,36.17c-6.4,6-14.8,5.19-18.66-1.64C2821.39,1702.83,2822.21,1700.35,2821.76,1697.38Z"/><path class="cls-7" d="M2778.74,1765.18c-6.35-18.22-10.58-37-14.81-55.8-7.08-31.49-12-63.38-16.86-95.28-.47-3-.83-5.92,3.83-5-.6,7.24,2.14,14,3.6,20.83q6.45,30.35,13.56,60.56c3.5,14.83,7.82,29.46,11.19,44.31C2781.53,1744.84,2782.52,1755.12,2778.74,1765.18Z"/><path class="cls-8" d="M2540.13,1317.08a2.84,2.84,0,0,1-2.87-1.61c-.77-1.61-.13-2.91,1.14-4,3.35-2.74,6.68-5.5,10.09-8.17a608.31,608.31,0,0,1,134.89-80.57c.91-.4,1.85-.75,2.73-1.21,2-1,3.73-.64,4.55,1.4s-.35,3.36-2.32,4.21c-4.87,2.1-9.71,4.29-14.53,6.51a605.36,605.36,0,0,0-129.53,80.84C2543,1315.55,2542,1317,2540.13,1317.08Z"/><path class="cls-9" d="M2070,818.07c-.32.91-.77,2.33-1.31,3.72q-26.52,68.18-53.06,136.36c-.24.62-.55,1.21-.75,1.84-.67,2.12-1.83,3.83-4.29,3-3-1-2.08-3.35-1.32-5.39,1.09-3,2.34-5.86,3.48-8.8q25.23-65,50.46-129.9a16.73,16.73,0,0,1,1.44-3.16,2.77,2.77,0,0,1,3.43-1.3C2069.55,815,2070.23,816,2070,818.07Z"/><path class="cls-9" d="M1058.07,1487.37c33.19.05,61.19,3.4,88.74,10.41.8.21,1.65.28,2.42.56,1.68.6,3.13,1.63,2.64,3.62-.53,2.18-2.21,2.63-4.31,2.16-6.8-1.54-13.6-3.15-20.44-4.49a334.38,334.38,0,0,0-117.15-2.09c-1.64.26-3.3.43-5,.67-2,.28-3.71.15-4-2.39s1.37-3.23,3.27-3.54c4.75-.81,9.51-1.6,14.3-2.18A343.16,343.16,0,0,1,1058.07,1487.37Z"/><path class="cls-7" d="M2607.41,949c9.26-1.34,14.32,7.53,10.36,16.16-4.27,9.31-11.71,15.18-21.66,17.58-9.64,2.32-15.34-3.37-13-13.31C2585.32,959.87,2597.87,947.9,2607.41,949Z"/><path class="cls-10" d="M1889.09,687.35l7.1,1.94a175.86,175.86,0,0,1,16.21,71.35,161.55,161.55,0,0,1-5.1,44c-.48,1.82-.92,3.58-3.31,3.61-3.34-1-2.84-3.3-2.22-6a169.85,169.85,0,0,0-2.85-89C1896.24,704.4,1892,696.14,1889.09,687.35Z"/><path class="cls-10" d="M2478.1,1297.71c.2,1.94-.4,3.4-2.5,3.59-2.29.22-3.12-1.38-3.59-3.33-2.56-10.66-5.65-21.17-9.12-31.57a404,404,0,0,0-23.35-55.44c-.22-.44-.46-.88-.71-1.31-1.13-1.94-1.54-3.87.88-5.07s3.61.53,4.59,2.43q7.63,14.82,14.12,30.19a415.06,415.06,0,0,1,19.11,57.58C2477.78,1295.74,2477.91,1296.73,2478.1,1297.71Z"/><path class="cls-10" d="M2551.09,925c.35,6.95-2.49,13-5.5,18.94-2.78,5.48-5.66,10.92-8.78,16.21-1.37,2.33-1.2,3.83.83,5.52a40.65,40.65,0,0,1,4.52,4.66,3,3,0,0,1-4.18,4.21,100.53,100.53,0,0,1-8.32-8.58c-1.58-1.87-.68-4.07.4-6.07,3.86-7.17,7.76-14.31,11.47-21.56a28.76,28.76,0,0,0,3.6-14.35c-.34-8.74-5.41-13.92-14.24-13.84-3.31,0-6.6.75-9.91,1.06-1.68.15-2.95-.51-3.15-2.4-.16-1.47.29-2.72,1.8-3.16C2537.05,900.57,2551.42,907.15,2551.09,925Z"/><path class="cls-7" d="M2498.86,987.18c-1-11.81.13-23.49,1.94-35.13,7-1.5,13.34,2.46,17.07,10.89,2.05,4.63,3.23,9.72,1.6,14.46-2.32,6.73-7.13,8.55-15.34,5.05-1.61-.68-3-1.88-5.27-3.36Z"/><path class="cls-10" d="M2270.93,1195c12.11,7,23.72,14.79,33.46,25,2,2,7,4.25,3.15,7.84-3.53,3.31-5.41-1.64-7.34-3.54a132.68,132.68,0,0,0-53.7-32.49c-1.73-.55-3.4-1.27-5.11-1.91-.49-4.78.55-5.74,5.09-4.49C2255,1187.7,2262.87,1191.56,2270.93,1195Z"/><path class="cls-10" d="M2504.92,863.87c21-7.78,37.8-21.11,51.28-38.81,1.54-2,3.06-4.72,5.84-2.58,2.44,1.88.59,4.14-.83,6a121.69,121.69,0,0,1-55.81,41.87,7.15,7.15,0,0,1-5.31.32C2497.23,865.28,2502.55,865.62,2504.92,863.87Z"/><path class="cls-10" d="M2569.13,989c-10.3,1.83-20,3.42-29.8,2.57-2.25-.19-4.71-.23-4.72-3.14s2.58-3.09,4.76-2.9c9.55.81,18.89-.53,28.16-2.59,2.84-.63,5.73-1.31,7.62,1.65,2,3.16.72,6-1.35,8.66-5.15,6.56-23.09,12-30.78,9.45-1.61-.55-2.6-1.59-2.47-3.28.15-2.11,1.63-2.71,3.53-2.57a38.26,38.26,0,0,0,17.11-2.43C2564,993.34,2566.73,992.23,2569.13,989Z"/><path class="cls-11" d="M2454.82,1112c-5.3-21-2.17-40.47,11.15-57.91,1.4-1.84,3.08-3.48,4.66-5.18,1.44-1.53,3.26-2.08,4.83-.57s.95,3.33-.5,4.8a53.86,53.86,0,0,0-12.62,19.49c-4.92,13.39-5.59,26.86-.38,40.36-.34,1.74-1.1,3.14-3.08,3.26C2455.92,1116.41,2456,1113.61,2454.82,1112Z"/><path class="cls-10" d="M2083.94,738.1c.71,2.27-.46,4.21-1.19,6.19-2.73,7.44-5.27,14.93-6.56,22.78-3.13,12.84-3.61,25.9-3.11,39,.08,2.19-.08,4.21-2.76,4.34s-3.18-1.81-3.28-4a156.93,156.93,0,0,1,11.14-67.13,11.5,11.5,0,0,1,1.72-2.35C2081.56,736.22,2083,736.41,2083.94,738.1Z"/><path class="cls-10" d="M2633.19,1560.78l-45-22.28c-3-1.48-5.91-3-8.94-4.38-2.22-1-4.77-1.94-3.45-4.92s3.82-1.61,5.92-.59q19.24,9.33,38.49,18.69c6.42,3.12,12.77,6.35,19.22,9.4,3.29,1.55,3.68,3.51,1.43,6.2C2638,1563.45,2635.83,1561.21,2633.19,1560.78Z"/><path class="cls-7" d="M2545.53,1021a12.78,12.78,0,0,1,10.42,3.55c2.21,2,3.55,4.48,2.77,7.55-1.13,4.43-5.22,5.66-8.72,6.52-5.92,1.45-11.51.2-15.77-4.8-2-2.34-3-5-2-7.81a7.41,7.41,0,0,1,6.89-4.94C2541.19,1021,2543.32,1020.07,2545.53,1021Z"/><path class="cls-10" d="M1202.2,1347.94q3.71,25.41,7.4,50.83c.31,2.14.4,4.31.66,6.46s0,4.28-2.65,4.42-3.12-2-3.38-4.11c-.71-5.94-1.32-11.9-2.17-17.83-1.44-10-2.44-20.12-4.87-30-.36-2.61-.76-5.22-1-7.85-.21-1.93-.89-4.19,1.8-5S1201.46,1346,1202.2,1347.94Z"/><path class="cls-10" d="M2491.91,1723.88c-2.38,3.69-4.7,3.22-6.74-.23a165.31,165.31,0,0,0-34.46-41.11c-1.73-1.5-2.82-3.15-1.1-5s3.56-.85,5.22.56a169.77,169.77,0,0,1,29.28,32.57c.84,1.21,1.81,2.33,2.72,3.49Q2489.36,1719,2491.91,1723.88Z"/><path class="cls-11" d="M2735,1432.08c4.77-11.65,9.29-23.41,15.23-34.55.7-1.32,1.38-2.65,2.13-4a3,3,0,0,1,4.23-1.41c1.92.93,1.76,2.69,1.05,4.31-.8,1.82-1.84,3.53-2.74,5.3a247.61,247.61,0,0,0-17.38,43.4c-.87,3-2,4.94-5.56,3.7-2-2.36-.47-4.68.14-7C2732.94,1438.62,2734,1435.36,2735,1432.08Z"/><path class="cls-12" d="M1181.05,1690.89c2.47-13.7,4.91-27.42,7.41-41.12q8.36-45.81,16.76-91.6a14.47,14.47,0,0,1,.84-2.3c-.32,11.43-2.49,22.64-4.23,33.88q-4.39,28.35-9.84,56.54c-2.66,13.78-6.1,27.41-9.28,41.09C1182.42,1688.59,1182.32,1690.07,1181.05,1690.89Z"/><path class="cls-13" d="M1296.87,1086.48c-.29,2.2-1.8,2.86-3.46,3.3a132.06,132.06,0,0,0-33.39,14.13c-1.9,1.12-3.75,1.78-5.12-.58s.33-3.67,2.12-4.72a138.79,138.79,0,0,1,34.77-14.69C1294.36,1083.23,1296.48,1083.34,1296.87,1086.48Z"/><path class="cls-11" d="M2468.71,1113c-2.56-12-2.71-24,1.14-35.81.72-2.23,1.17-5,4.36-4.21,3.42.84,2.25,3.64,1.55,5.72-3.86,11.36-3.51,22.79-.79,34.29C2472.89,1115.8,2470.81,1116,2468.71,1113Z"/><path class="cls-14" d="M2587.32,918.54c-4.5.21-9,.54-13.27,2-2.16.75-4.15.79-4.92-1.67s1-3.5,3.14-4.13a51.94,51.94,0,0,1,33.75,1.3c1.88.71,3.41,1.81,2.75,4-.78,2.6-3,2.48-4.92,1.67A47.82,47.82,0,0,0,2587.32,918.54Z"/><path class="cls-15" d="M1077.69,1672.48a3.17,3.17,0,0,1,2.88,1.76,2.68,2.68,0,0,1-.9,3.54q-13.58,10-27.3,19.87a2.82,2.82,0,0,1-4-.56,2.75,2.75,0,0,1,.32-4c9.18-6.79,18.45-13.47,27.71-20.15A4.06,4.06,0,0,1,1077.69,1672.48Z"/><path class="cls-16" d="M2727.86,1483.05c-3.14-10-5.47-20.15-9.71-29.76a139.15,139.15,0,0,0-10.26-19.34c9.92,2.36,13.22,10.71,15.63,18.88A106.73,106.73,0,0,1,2727.86,1483.05Z"/><path class="cls-14" d="M2572,1113.44a55.4,55.4,0,0,1-3.1,13.77c-.73,2-1.52,4.46-4.38,3.56s-2.18-3.36-1.44-5.41a50.38,50.38,0,0,0,2.87-12.51c.2-2.27,0-5.12,3.39-4.92S2571.93,1111,2572,1113.44Z"/><path class="cls-17" d="M1190.07,1315.12c2.17.09,3.38,1.08,3.25,2.77a23.32,23.32,0,0,0,1.4,9.3,2.41,2.41,0,0,1-1.48,2.85,3.12,3.12,0,0,1-3.32-.21c-2.57-1.78-3.74-11.37-1.61-13.59A7.66,7.66,0,0,1,1190.07,1315.12Z"/><path class="cls-18" d="M2581,944q-.46,3.21-.94,6.42a3,3,0,0,1-5.89-.24c-.14-2.16-.06-4.33-.07-6.49,0-2.42-.12-5.09,3.38-4.76C2580.34,939.22,2581.21,941.33,2581,944Z"/><path class="cls-19" d="M2520.41,943.55c.28-2.16.42-4.15.82-6.09.36-1.72,1.36-3.25,3.31-3.08,2.18.2,3,1.85,2.86,3.93s-.36,4-.63,5.92c-.3,2.19-.65,4.55-3.71,4.16S2520.55,945.44,2520.41,943.55Z"/><path class="cls-19" d="M2271.19,991.82c-.45,2.81-1.85,4.49-4.61,4.32a5.28,5.28,0,0,1-5.32-5.37c-.05-2.52,1.39-5.09,4.46-4.8C2269.06,986.28,2270.56,988.87,2271.19,991.82Z"/><path class="cls-20" d="M2100.93,1089.45c.34-1.56.79-4,1.43-6.4a2.8,2.8,0,0,1,3.4-2.16,2.53,2.53,0,0,1,2.33,3.18,67.27,67.27,0,0,1-1.39,7.31c-.43,1.75-1.52,3-3.56,2.68S2100.69,1092.14,2100.93,1089.45Z"/><path class="cls-21" d="M1103.12,1459.45c-2-.14-4.11-.43-4.12-3.12s2.14-2.91,4.23-2.93,4.25.19,4.24,2.94S1105.27,1459.27,1103.12,1459.45Z"/><path class="cls-21" d="M1807,1469.69c.06,2.1,0,4.17-2.81,4.35s-3.23-1.65-3.21-3.9c0-2.07-.06-4.17,2.77-4.34S1807.05,1467.45,1807,1469.69Z"/><path class="cls-22" d="M2083.94,738.1c-1.16-1.06-2.6-1.09-4-1.15a2,2,0,0,1,.25-.94c1.25.15,2.64-.34,3.68.78C2083.86,737.23,2083.9,737.66,2083.94,738.1Z"/><path class="cls-7" d="M2044,1161.89c2.46,26.8.28,52.36-20.9,72.21-10.42,9.76-23.45,15-37,18.83-27.85,7.82-56.39,12.62-84.59,18.89-22.51,5-45.14,9.52-67.67,14.43-2.59.56-3.8.33-4.81-2.27a214.58,214.58,0,0,1-13.87-62c1.23,2,3.15,2,5.22,2,13.41-.31,26.74-1.86,40.11-2.79,15.2-1.06,30.25-3.22,45.28-5.41a337,337,0,0,0,41.68-9.2,276.17,276.17,0,0,0,54.24-21,219.33,219.33,0,0,0,30-18.68c3-2.22,5.86-5.15,10.28-2.86C2044.25,1165.19,2043.74,1163,2044,1161.89Z"/><path class="cls-7" d="M1375.23,740.05c7.2-1.87,13.68-5.66,21-7.29,25.14-5.58,49.3-2.73,72.64,7.76a154.93,154.93,0,0,1,40.26,26.14c.59.54,1.19,1.31,2,.21,4.26,2.1,4.28,6.63,5.53,10.28,1,2.93,2.39,4.87,5.3,5.73-.8,2.07-2.8,3.56-2.87,6-18.73,7.16-37.93,12.82-57.95,14.29-21,1.54-42,.59-62.43-5-3.09-.84-5.84-.94-8.52.92-2,.66-4.6.25-5.21,3.16-3.51-.86-4.94.69-5.88,4.07-1.4,5.06-1.74,10.55-5.16,14.92-2.91,2.6-3.87,6.4-5.7,9.63-4.9,8.64-9.08,17.67-13.49,26.58a9.34,9.34,0,0,0-1,3.8,5.44,5.44,0,0,1-3.28,4.49c-6.62,2.39-9.34,1.54-13-4.05,0-.66-.94.13-.29,0,.24-.06.3.08.37.35.29,1.07.29,2-1,2.27-2.82-2.32-1.67-5.54-1.72-8.38-.17-9.74-4.43-13.14-14.21-11.66-3.51.53-6.61,3.43-10.47,1.83-.31-1.75-.6-3.51-2.77-4-3-5.13-2.57-18,.7-21.15v13.93l.74.18c1.46-4.57,2.82-9.17,4.4-13.7,7.39-21.18,18.12-40.37,33.15-57.22a137.78,137.78,0,0,1,20.3-18.06c1.17-.89,2.61-1.57,2.68-3.35,2.73.81,3,3.36,3.72,5.48,4.35,12.78,6.71,26,9.08,39.26.35,2,0,5.49,2.55,5.08s1.15-3.67.82-5.59c-2.32-13.76-5.07-27.43-9.56-40.69C1375.21,744.27,1374,742.26,1375.23,740.05Z"/><path class="cls-8" d="M1735,647q18-20.94,36.07-41.88a30.65,30.65,0,0,1,12.32-9c5.51-2.08,7.09-1.29,8.38,4.52,1.41,6.32.42,12.54-1.23,18.69-3.54,13.14-8.21,25.9-12.46,38.8.82,1.93-.08,3.66-.91,5.21-1.91,3.56-.86,6.1,1.91,8.76a137.87,137.87,0,0,1,20.84,25.34c.49.83,1,1.66,1.51,2.47,8.55,11.15,14.64,23.64,19.85,36.6a9.52,9.52,0,0,1,.55,1.91c.44,2.57.6,5.27-2.42,6.26-2.73.89-4.29-1.13-5.38-3.32-2.29-4.6-4.1-9.42-6.31-14.06s-5.53-9.08-6.6-14.39c-7.93-14.41-18.18-27.05-29.85-38.52-3.36-3.3-4-6.2-2.25-10.54a357.7,357.7,0,0,0,16.19-48.66c1.06-4.24,3.36-10.42-.23-12.39-3-1.66-7.13,3.79-9.9,7-12.73,14.75-25.26,29.67-37.92,44.48-4.1,4.79-5.6,10.25-4,16.27,9.2,35.22,16.29,71,28,105.54,5.58,16.51,14.69,30.92,29.56,40.94a43.87,43.87,0,0,0,4.29,2.53c3.23,1.71,7.45,2.86,3.21,7.8-.6.71,0,2.57.22,3.85a2847.32,2847.32,0,0,0,88.74,335.22c.2.63.53,1.23.71,1.87.5,1.88.66,3.87-1.56,4.64-2.41.84-3.6-.67-4.31-2.88-3.61-11.22-7.36-22.41-10.94-33.64q-39-122.14-66.65-247.33c-4.43-20-8.38-40-12.5-60.06a9.79,9.79,0,0,0-4.5-7c-14.83-9.59-23.92-23.73-30.46-39.75-7.21-17.62-10.9-36.26-15.71-54.57-4.26-16.24-7.84-32.66-12.44-48.79C1725.34,666.88,1725.88,656.23,1735,647Z"/><path class="cls-3" d="M1518.11,870.88Q1517,837,1515.94,803c0-1.5,0-3-.06-4.49,0-1.88.55-3.37,2.67-3.48,2.38-.12,3.2,1.5,3.28,3.53q.39,9.46.65,19c1,34.42,3.31,68.81,3.28,103.25,0,19.44-2.94,38.46-12.89,55.73a6,6,0,0,1-.78,1.27c-6.72,6.74-6.76,15-6.16,23.8a426.91,426.91,0,0,0,9.51,66.59c.18.81.42,1.61.58,2.42.44,2.15,1.14,4.64-1.85,5.31s-3.61-1.69-4.06-3.92c-1.72-8.47-3.49-16.92-5.08-25.42-2.58-13.74-3.76-27.66-5-42.75-5,9.41-11.18,16.48-19.71,21-16.74,8.89-33.69,8.38-50.09-.69-12.81-7.09-23.16-17.3-32.14-28.79-3-3.89-5.53-8.19-5.39-13.6,0-1.71-.51-3.32,1.14-4.36s3.16-.07,4.56.89c8.25,5.63,16.62,11.05,25.66,15.36,14.55,7,29.87,10.66,45.88,8,20.6-3.47,33-17.23,41.34-35.45,6.55-14.38,8.09-29.75,8.58-45.26a134.84,134.84,0,0,0-.71-22.9c-3-5.79-1.69-11.92-1.08-17.88C1518.35,877,1518.82,874,1518.11,870.88Z"/><path class="cls-7" d="M1801.11,712.84c5.66,8.39,9.66,17.64,13.56,26.92.91,2.17,1.64,5,4.66,3.83s1.89-3.74,1-6c-5.43-13.16-11.33-26.06-20.21-37.35,1.59-1.68,3.43-.72,5.13-.38,19.18,3.93,38.39,7.68,57.61,11.38,2,.38,4.5-.07,5.3,2.71-5.73.35-.58,4.41-2.11,6.19-1.66,5.72-4.41,11-5.74,16.9-2.76,12.19-5,24.38-3.25,37,.45,3.3,1.4,6.06,4,8.19-1.87,1.13-2.28,3.12-3,5-1.77,4.87-3.9,9.64-7.94,13-8.22,6.83-18.07,4.77-25.59-5.34-11.83-15.91-17.47-34.4-21.45-53.45A105.61,105.61,0,0,1,1801.11,712.84Z"/><path class="cls-7" d="M1859,815c1.86-1.32,3.84-2.37,5.62-3.89,5.06-4.33,13.39-3.39,18.91,2,7.45,7.25,10.71,16.77,13,26.44,2.8,11.73,4.88,23.72,4.36,35.84-.41,9.84-2.65,19.35-8.34,27.72-4.5,6.61-11.38,7.37-17.22,1.73-8.8-8.48-13.15-19.36-16.3-30.84-3.37-12.31-3.46-24.92-3-37.53.22-5.25,1.35-10.47,2.07-15.7,3,1.17,3,4.14,3.75,6.56,3.62,12.62,6.9,25.32,9.51,38.19.44,2.18.31,4.72,2.71,6.16,2.08-1.38,1.22-3.29.91-5a417.2,417.2,0,0,0-11.18-44.43A13.27,13.27,0,0,0,1859,815Z"/><path class="cls-8" d="M1310.06,846c6.81-2.51,13.55-5.12,21-2,3.34,1.39,4.84,3.46,4.89,7.06.06,4.41-.36,8.9,1,13.22,2.38,5,1.82,10.38,2.61,15.13,3.53-4.22,5.74-10.18,10.58-14.17a10.11,10.11,0,0,0,2.79-4.2c4.93-10.47,10.77-20.49,15.78-30.93,1.43-3,2.46-6.15,4.45-8.85,2.77-5.5,3.84-11.51,5.25-17.43.37-1.54.49-3.36,2.58-3.82s3,.79,4,2.22c-5.65,30-21.55,55.12-38.38,79.76-.94,1.38-1.83,2.78-2.85,4.09-1.27,1.64-2,4.31-4.69,3.8s-4.24-2.48-5.19-5c-1.75-4.56-1.94-9.43-2.58-14.18-.71-5.27-1-10.6-1.33-15.9s-1.6-6.56-7-6.16c-12.35.91-23.09,11.7-24,24.1-1.27,17.57,11.18,32.26,29.8,35.14.65.1,1.32.12,2,.17,2.12.16,3.57,1.12,3.34,3.42s-2,2.76-4,2.55c-12.17-1.24-22.31-6.35-29.78-16.14C1289.22,883.38,1288.66,859.16,1310.06,846Z"/><path class="cls-7" d="M1400.94,919c-10.43,1.36-27.13-9.22-30.69-18.72-3-8.12-.27-13.71,8.1-15.89,9.72-2.54,29.6,4.48,35.71,12.65,3.23,4.31,5.34,8.89,2.31,14.21s-7.28,8.06-13.43,7.75C1402.28,919,1401.61,919,1400.94,919Z"/><path class="cls-9" d="M1509,1082.94c2-.14,4.25-.63,4.84,2.1.56,2.56-1.63,3.38-3.32,4.35a161.57,161.57,0,0,1-75.93,21.53c-33.71,1.25-65.31-6.35-94.29-24-1.42-.86-2.81-1.77-4.2-2.68s-3.29-2-2.58-4.26,2.6-2.25,4.5-2c18.48,13.22,39.26,21,61.45,24.65,37.12,6.18,72.52.75,105.77-17.3C1506.58,1084.62,1507.78,1083.74,1509,1082.94Z"/><path class="cls-9" d="M1522,782.88c-3.48,1.53-5.07.07-5.9-3.36a39.68,39.68,0,0,0-4.93-12.65c-9.83-20.78-26.16-34.62-47.21-42.78-28.32-11-56.46-8.1-84.22,2.64a31.31,31.31,0,0,0-3.69,1.5c-2.06,1.11-3.67.53-4.57-1.38-1-2.18.43-3.41,2.28-4.21a131.27,131.27,0,0,1,24.59-8.06c32-6.92,62.27-3.76,89.6,15.61,16.22,11.51,27.7,26.68,33.55,45.88C1522.15,778.32,1522.84,780.53,1522,782.88Z"/><path class="cls-9" d="M1868.14,714q-19.19-3.91-38.38-7.81c-9.88-2-19.77-3.93-29.66-5.9-.38-.68-.76-1.36-1.13-2,1.89-7.1,7.34-3.46,11.89-3.83-1.36-7.71-4.59-14.84-6.33-22.36-.44-1.92-2.22-4.07.41-5.82l6.08,1.81a7,7,0,0,1,2.23,3.23c2,8.05,5.62,15.62,6.89,23.85.15,2,1.76,2.15,3.18,2.42,6.12,1.17,12.22,2.42,18.32,3.66,2.54.51,3.55.12,2.31-2.56a154.39,154.39,0,0,1-5.41-17.95c-.4-1.89-1.21-3.84.38-5.62,2.88,0,5.59.41,6.81,3.61,2,1.13,2.2,3.28,2.65,5.12,1.43,5.82,4.07,11.24,5.41,17.06.57,2.5,2.32,3.1,4.33,3.34,3.36.41,7.5,3.17,9.81.77,1.75-1.82-1.24-5.74-2.12-8.71-1-3.5-2.24-6.95-3-10.53-.3-1.52-1.31-3.2.34-4.61a17.39,17.39,0,0,1,6.73,1.89c1.27,7.19,4.64,13.82,6.09,20.86,1,5,3.37,6.13,7.58,6.47,2.05.17,4,1.13,3.46,3.82s-2.7,2.37-4.73,2.05Q1875.23,715.1,1868.14,714Z"/><path class="cls-10" d="M1334.06,1074c-2.62-1.32-2-3.83-2.24-6,1.13-31.11.89-62.21-.4-93.31-.71-17.12-1.62-34.22-3.19-51.28-.21-2.27-.28-4.8,2.58-5.06,3.34-.31,3.24,2.49,3.45,4.87,2.23,25.7,3.37,51.44,4,77.23.55,22.3.15,44.59-.24,66.88C1338,1070.23,1338.53,1073.66,1334.06,1074Z"/><path class="cls-10" d="M1390.19,799c.65-3.45,2.55-4,5.81-3.1a184.28,184.28,0,0,0,70.24,5.12A179.79,179.79,0,0,0,1513,789.27c2-.78,3.94-2,6.1-.42,1.94,3.5-.39,4.8-3.06,5.84a194.94,194.94,0,0,1-120.45,7.43C1393.48,801.55,1391.31,801.26,1390.19,799Z"/><path class="cls-9" d="M1308,820.91c-1.82,7-.21,14.11-.7,21.15-4.44,2.73-5.59.23-5.84-3.67a119.64,119.64,0,0,1,47-102.29c.66-.5,1.32-1,2-1.48,1.65-1.12,3.47-1.74,4.88.1,1.62,2.11.33,3.67-1.48,5a102.86,102.86,0,0,0-21.64,20.59C1318.39,778.15,1309.57,798.08,1308,820.91Z"/><path class="cls-9" d="M1497.22,831.65a60.44,60.44,0,0,0-17.57,3.42c-8.65,3-11.25,7.38-9.22,16.45,2.28,10.22,6,20,10.06,29.64.7,1.68,1.53,3.31,2.19,5,4,10.15,1.94,16.17-7.24,22-2.1,1.33-4.13,2.77-6.17,4.19-1.73,1.21-3.53,1.39-4.81-.4-1.14-1.58-.51-3.26,1-4.36,2.28-1.66,4.65-3.2,7-4.74,6.42-4.17,7.51-7,4.54-14.22a302.93,302.93,0,0,1-10.6-28.41c-1.38-4.62-2.64-9.27-2.53-14.16.14-7,3.27-12.1,9.6-15,8.91-4.14,18.44-5.36,28.15-5.38,2.09,0,4.76.1,4.45,3.3-.28,2.94-2.57,3-4.89,2.75C1499.88,831.55,1498.54,831.65,1497.22,831.65Z"/><path class="cls-10" d="M1459.2,930.34c-3.48-.23-7-.49-10.44-.67-1.59-.08-3.73-.75-4.4,1.14-.84,2.33,1.11,3.67,3,4.51,6.89,3.15,14.11,3.54,21.46,2.2,2.28-.41,4.48-1.23,6.74-1.75,1.54-.35,3.06-.24,3.69,1.58a2.88,2.88,0,0,1-1.9,4c-12,4.15-23.8,4.55-35-2.07-4-2.35-5.31-6.45-3.84-10.87,1.54-4.64,5.54-5.32,9.78-4.88a109.39,109.39,0,0,0,32.26-1c2.16-.41,4.16-.52,4.64,2.19s-1.43,3.34-3.57,3.76A110,110,0,0,1,1459.2,930.34Z"/><path class="cls-7" d="M1518.11,870.88c1.23,9,.86,18.08,1,27.13-1.9,2-3.7,4.18-5.71,6.11-3.61,3.47-9.64,4-13.24,1.38-3.4-2.52-4.13-7.3-1.76-12.18,3.78-7.77,7.88-15.14,18.3-14.72,1.39.06,1.21-1.29,1.25-2.25C1518,874.53,1518.06,872.7,1518.11,870.88Z"/><path class="cls-7" d="M1464.81,978c-7.61,1-12.79-3.52-11.86-9.22a8.16,8.16,0,0,1,2.86-5c6-5.45,17-7,24.22-3.66a5.86,5.86,0,0,1,3.56,5.53c-.08,3.31-1.22,6.57-4.52,8.34C1474.51,976.44,1469.92,978.8,1464.81,978Z"/><path class="cls-11" d="M1375.23,740.05c5.79,15.63,9.1,31.88,11.72,48.27.38,2.37,2.49,6.21-2.15,6.74-4.07.46-3.31-3.4-3.72-5.77-2.43-14.07-5.15-28.07-9.66-41.66-.57-1.7-1.44-3.29-2.16-4.94-.64-3-2.58-5.29-4-7.85-.9-1.59-1-3.23.75-4.35s3.25-.5,4.24,1.07C1372,734.34,1373.57,737.21,1375.23,740.05Z"/><path class="cls-15" d="M1861,782.28c-3.24.71-4.56-.85-4.93-3.9a110.23,110.23,0,0,1,7-54.29,8,8,0,0,1,2.92-3.9c3.31.68,4.4,2.27,3,5.69a102.76,102.76,0,0,0-7,50.76C1862.22,778.58,1862.75,780.64,1861,782.28Z"/><path class="cls-11" d="M1859,815c2.71-.47,4.22.46,5.1,3.28a485.39,485.39,0,0,1,12.73,50.06c.44,2.23,1.18,5-2.2,5.55-2.91.44-3.25-2-3.71-4.22-3.45-16.51-7-33-12.76-48.91C1858,818.78,1857.3,816.72,1859,815Z"/><path class="cls-11" d="M1445,839.28c-.4,1.83-1.69,3-3.84,2.3-12.44-4-23.89.7-35.51,3.86a23.58,23.58,0,0,0-2.81,1c-2.12.87-3.71.15-4.39-1.88s.59-3.1,2.33-3.77a110.7,110.7,0,0,1,22.58-6c6-.94,11.9-1.44,17.78.29C1443,835.68,1445.14,836.26,1445,839.28Z"/><path class="cls-21" d="M1453.73,1066.1a43.61,43.61,0,0,1-2.08,12.79c-.65,2-1.6,3.88-4.19,3.15s-2.44-2.65-1.69-4.78c2-5.8,2.1-11.74,1.25-17.76-.28-2-.55-4.25,2.34-4.59,2.68-.32,3.39,1.6,3.65,3.74C1453.3,1061.13,1453.49,1063.61,1453.73,1066.1Z"/><path class="cls-23" d="M1327.1,878.86c-.88,2.44-2.52,3.83-4.84,2.08a64,64,0,0,0-10.89-7,2.71,2.71,0,0,1-1.31-3.43,2.46,2.46,0,0,1,3-1.93,26.82,26.82,0,0,1,13.58,8.75A4.13,4.13,0,0,1,1327.1,878.86Z"/><path class="cls-24" d="M1427.05,874.5c0,1.65,0,3.3,0,5,0,1.86-.53,3.35-2.52,3.64-2.27.33-3.15-1.15-3.67-3.13a20.25,20.25,0,0,1,.07-10.73c.49-1.78,1.35-3.15,3.3-3,2.29.14,2.88,1.82,2.82,3.86C1427,871.53,1427.05,873,1427.05,874.5Z"/><path class="cls-19" d="M1599.94,1005.55c.06,4-2.25,6.58-6,6.76-2.83.13-4.44-1.26-4.75-3.9-.34-2.87,4-7,7.18-7.16C1599.14,1001.15,1600.19,1002.7,1599.94,1005.55Z"/><path class="cls-24" d="M1095.76,1099.58c2.6.14,6.75,5.47,6.43,8.32-.27,2.49-1.67,3.93-4.2,3.88-3.24-.06-6.21-4.12-5.91-7.87C1092.32,1101.12,1093.71,1099.47,1095.76,1099.58Z"/><path class="cls-18" d="M1497.38,864.4c-.67,2.86,1.34,7.06-2.82,7.18-4.33.13-3.39-4.09-3.32-6.89s-1.33-7.46,3.4-7.23C1499.17,857.67,1496.23,862.31,1497.38,864.4Z"/><path class="cls-8" d="M2731,913.05q3.38,18.5,6.74,37c3.6,26,8.52,51.54,23.36,74,8.61,13,20.48,22.66,32.77,31.87,11.19,8.39,22.77,16.3,32.79,26.12,25.57,25.09,37.23,56.08,38.34,91.43a141.55,141.55,0,0,1-11,59.88c-1.22,2.92-2.45,5.24-6.16,3.46l-.9-.76c-1.27-2-.49-3.79.27-5.67,13.43-33.59,14.28-67.46,1.63-101.4-8.44-22.67-23.29-40.43-42.75-54.69-13.81-10.13-27.87-20-39.89-32.39-11.23-11.62-19-25.16-24.4-40.24-6.93-19.25-9.89-39.36-13.26-59.4-3.29-19.54-5.92-39.27-13.76-57.68-17.38-40.85-48.85-63.66-92.1-71.07a87.12,87.12,0,0,0-27.35-.3,10.07,10.07,0,0,1-4-.15,3.9,3.9,0,0,1-3.24-3.36,3.81,3.81,0,0,1,2.57-4.36,23.68,23.68,0,0,1,7.31-1.49c20.12-1.24,39.5,1.76,58,9.89q55.43,24.3,71.93,82.47C2729.55,901.65,2732.33,907,2731,913.05Z"/><path class="cls-25" d="M2591.87,741.25c1.3,2.8.05,4.55-2.16,6.31a101.64,101.64,0,0,0-33.21,47.05c-.74,2.11-1.12,5.19-4.38,4.19-3.45-1.07-2.22-3.85-1.38-6.24a107.66,107.66,0,0,1,33.64-48.62,18.11,18.11,0,0,0,1.67-1.82C2587.85,740.87,2589.84,740.91,2591.87,741.25Z"/><path class="cls-26" d="M2916.67,1223.46c0,3.35-3.16,7.43-5.76,7.13a4.15,4.15,0,0,1-3.91-4.38c-.07-2.39,4.63-7.38,6.62-7.22C2915.42,1219.13,2916.67,1221,2916.67,1223.46Z"/><path class="cls-2" d="M2731,913.05c-3.94-16.35-8.5-32.45-17-47.2-23.6-41.12-74.88-66.73-120.42-60.05-2.35.35-5.11.3-4.69,3.68.37,3,2.93,2.7,5.11,2.38,47.09-6.89,109.11,21.87,126.81,85.73,5.66,20.42,8.38,41.37,12,62.17,3.44,19.71,7.8,39.12,17,57.13,8.13,15.94,20.26,28.31,34.19,39.16,12.34,9.61,25.48,18.21,37,28.93,21.19,19.8,32.77,44.54,36.75,72.92a135.92,135.92,0,0,1-9.69,73.79A29.3,29.3,0,0,0,2847,1236c-5.17-8.58-10-17.36-17-24.67-10.23-10.61-22.94-17.31-36-23.53,2.86-1.74,5.06.48,7.34,1.41,8.2,3.36,16.34,6.76,25.46,3.78,1.39.27,2,2.66,3.69,1.71s1-2.87.76-4.44-.6-2.91.63-4.12c4.25-13.31,1.32-26.11-2.78-38.82-.89-2.74-2.69-5.23-2.13-8.34,2.77.13,3.18,2.59,4.1,4.38,7.78,15.17,11.2,31.55,13.17,48.31a63.77,63.77,0,0,0,1.11,6.89c.21.92.39,2.19,1.71,2s1.37-1.36,1.4-2.32a53.92,53.92,0,0,0-1.05-9.9c-2.82-18.82-6.95-37.26-17.12-53.77a88.75,88.75,0,0,0-22.64-24.27c-1.51-1.14-3.72-1.76-3.72-4.25-10.44-13-23-24-34.38-36.08a214.6,214.6,0,0,1-36.11-52.72c-13.75-27.85-22.43-57.52-32.47-86.71-7.68-22.32-15.41-44.63-26.94-65.34-9.88-17.72-22.23-33.28-41.33-41.7-15.14-6.67-30.72-7.51-46.13-.27-3.94,1.86-7.05,4.84-10,8-.49-5.83,1.16-11.25,3.18-16.6.81-2.14,2.3-4.61-1-5.77-3.12-1.1-4,1.52-4.7,3.73-1.19,3.77-2.18,7.61-3.24,11.42-2.37-4.43-6.82-7-9.83-10.79,2,0,4,0,5.94,0,4.11,0,5.15-1.72,3.09-5.29A180,180,0,0,1,2598.06,790c1-.59,2.46-.44,3.21-1.29,5.37-6.08,12.73-7.3,20.15-8.65a26.53,26.53,0,0,0,15.56-8.29c1.09-1.22,2.21-2.54,4.06-2.67,29.09-6.75,57.67-6.83,84.82,7.5,23,12.14,37.58,31.1,41.7,56.86,2.2,13.78.16,27.36-8.12,39.61-8.91,13.19-19.51,25.31-26.06,40C2732.4,915.3,2731.81,913.54,2731,913.05Z"/><path class="cls-27" d="M2881.11,1578c-.39-.34-2.32-.36-.87-1.09,4.9-2.48,8.38-6.6,12.49-10a12.43,12.43,0,0,0,.36,2c1.49,4.17.14,6.44-4.32,7.13A74.34,74.34,0,0,0,2881.11,1578Z"/><path class="cls-2" d="M1804.94,666.24c-.81,4,1.45,7.34,2.4,10.93,1.68,6.33,3.84,12.53,5.85,19-4.93,1.07-10.54-4.47-14.22,2.13A126.35,126.35,0,0,0,1778.34,673c-3.46-3.3-5-6.13-2.27-10.43a32,32,0,0,0,2-4.51c.61-.31,1.22-.62,1.82-.94.41,2.91,2.71,3.4,5,4C1791.57,662.79,1798.26,664.52,1804.94,666.24Z"/><path class="cls-28" d="M2814.84,800.08c10.95,25,10.22,50.35,1.68,75.79A97.52,97.52,0,0,1,2804.75,900c-.44-5.25,3.38-9,5.08-13.42a145,145,0,0,0,9.26-41.83c1-14.38-1-28.2-4.46-42C2814.39,801.78,2813.74,800.88,2814.84,800.08Z"/><path class="cls-29" d="M2174.72,756.28c-.8-2.63-2.54-3.74-5.29-4.42q-49.08-12.21-98.08-24.7c-1.45-.36-2.88-.8-4.32-1.21,5.39-1.19,10.27,1.38,15.21,2.52,31.59,7.25,63.06,15,94.59,22.52a9.74,9.74,0,0,1,4.05,1.75Z"/><path class="cls-25" d="M2161,756.16l-77.15-19.37a3.09,3.09,0,0,1-3.67-.79c-17.35-4.48-34.68-9-52.05-13.45q-65.94-16.69-131.91-33.26c-2.91,1.34-5.19.37-7.1-1.94-6.44-1.24-12.6-3.67-19.17-4.33-2.57,1-4.78-.73-7.19-.92-5.57-.86-10.75-4.12-16.69-2.71-2.57-1.07-4.63-3.29-7.65-3.33q-13.65-3.45-27.31-6.8c-2.29-.63-4.58-1.21-6.86-1.89-6.55-1.85-13.23-3.2-19.76-5.12-2.38-.71-5.52-1.23-4.57-5.13,1.47-3.47,4.21-2.54,6.79-1.89q40.11,10.17,80.22,20.36L2066,725.93a4.08,4.08,0,0,0,1,0c7,.8,13.8,2.93,20.65,4.62,27.06,6.66,54.16,13.14,81.19,19.91,3,.77,6.58,1.17,5.85,5.8a6.88,6.88,0,0,1-3.87,2.49C2167.28,759,2163.67,759.27,2161,756.16Z"/><path class="cls-25" d="M2363.71,800.21c16.33,5,33.06,8.45,49.61,12.6,22.21,5.57,44.51,10.76,66.77,16.1a18.44,18.44,0,0,0,2.48.26c1.28,1.47,2.23,3.12.75,4.88s-3.31,1-5.11.53c-61.13-14.33-122-29.73-182.93-44.87-17.73-4.41-35.42-9-53.14-13.42-2.39-.6-5.7-.76-4.73-4.27s4-2.06,6.35-1.48q57.78,14.38,115.55,28.84C2360.76,799.74,2362.24,799.93,2363.71,800.21Z"/><path class="cls-25" d="M1399,445.09c3.45-1,4.69.42,5.15,3.86,4.29,31.85,0,62.65-11,92.67a206.49,206.49,0,0,1-11.89,25.83c-1.28,2.41-2.53,3.93-5.76,3.35q-55.42-10-110.89-19.82l-32.42-5.8c1.71,7.32,5.21,13.26,9.28,18.78,14.44,19.63,32.82,34.87,53.93,46.8,29.46,16.66,61.18,25,95.06,24.13a183.52,183.52,0,0,0,90.14-25.81c1.29-.77,2.57-1.54,3.89-2.26,2.78-1.52,4.8-1.09,5.6,2.29-.86,2.21-2.87,3.15-4.72,4.25-33.49,20-69.85,29.7-108.7,27.37-54.23-3.26-99.61-25.58-135.3-66.86a77.53,77.53,0,0,1-16.18-29.55c-1.48-5.17-.1-6.54,5.33-5.58q63.59,11.28,127.18,22.48c4.58.81,9.17,1.61,13.71,2.61,3,.65,4.87.13,6.43-2.86a187.14,187.14,0,0,0,20.29-110.61C1398,448.54,1397.77,446.69,1399,445.09Z"/><path class="cls-25" d="M1509.85,448.21c3.69,6.49,7.58,12.88,9.53,20.21.6,2.23,0,3.69-2,4.4s-3.13-.66-3.69-2.39c-7.23-22.26-23.7-37-41.65-50.23-36-26.52-76.68-38.57-121.36-35.92-30.57,1.81-59,11.15-85.16,27.1-1.11.68-2.12,1.52-4,2.89,7.31,1.35,13.74,2.62,20.19,3.71q57.48,9.69,115,19.35c1.86.32,4.24.26,5,2.62s-1.14,3.2-2.66,4.22c-17-3-34-6.06-51-8.95-30.47-5.18-61-10.23-91.43-15.42-2-.33-4.66-.11-5.25-2.92-.64-3,1.45-4.5,3.6-5.94A190.17,190.17,0,0,1,1342.59,379c4.13-.42,8.28-.7,12.42-1l15.1,0C1426.66,381.54,1473.75,403.94,1509.85,448.21Z"/><path class="cls-25" d="M1526.88,601.11c1.26-2.88,3.84-2.18,6.07-2.12,17.48.54,34.7,3.24,51.82,6.54,48.28,9.3,95.38,23.51,143.18,34.83,2.74.65,5.86,1.55,4,5.68-2.23,1.66-4.47.53-6.68,0-40.42-10.14-80.76-20.6-121.27-30.33-23.59-5.66-47.53-9.6-71.84-10.73C1529.5,604.84,1527.06,604.57,1526.88,601.11Z"/><path class="cls-25" d="M1607.26,505c-13-4.42-26.3-8.27-38.89-13.94-11.39-5.13-22.65-10.5-32.86-17.81-1.36-1-2.8-1.93-2.36-4s2.27-2.11,3.92-2.26c27.7,18.87,58.85,29.05,91.1,36.73q65.26,15.55,130.35,31.85,157.05,39.22,314,78.76,175.83,44.31,351.59,88.9c30.3,7.67,60.41,16.14,91.29,21.33,20.87,3.5,41.8,6.34,63,5.51,3.82-.15,7.62-.69,11.43-1,2-.19,4.4-.51,4.74,2.22s-2,3.49-4.24,3.79c-12.44,1.67-24.91,1.46-37.39.5-50.58-3.89-98.93-18.56-147.77-30.8Q2282.81,674,2160.48,642.92q-205.34-51.74-410.72-103.36c-46.77-11.73-93.67-22.94-140.52-34.38A14.46,14.46,0,0,0,1607.26,505Z"/><path class="cls-25" d="M2814.84,800.08c-3.83-11-10.32-20.44-17.78-29.16-23.63-27.61-53.91-42.91-89.69-48-13.07-1.87-26.15-1.94-39.27-1.74-1.78,0-3.69-.33-5.31.85-17.4.83-34.2,4.84-50.91,9.37-2.57.69-6.31,3.56-7.61-.81s3.41-4.14,5.94-4.9c27-8.06,54.6-12.19,82.78-10.36,43.55,2.82,81.35,18.4,109.58,52.85,32.58,39.76,35.16,91.62,7.37,135.27a125.54,125.54,0,0,1-43.44,41.9c-1.75,1-3.43,2.07-5.58,1.6-2.54-3.56-.38-5.24,2.53-6.94,17.05-9.94,31-23.09,41.3-40,3.5-8.58,7.95-16.72,10.88-25.6,8-24.25,7.73-48.3-.45-72.37A3.52,3.52,0,0,1,2814.84,800.08Z"/><path class="cls-25" d="M2361.8,776.16c-7-.52-16.13-3.76-25.47-6-27-6.59-53.89-13.32-80.84-20-.8-.2-1.62-.34-2.41-.59-1.78-.55-3.07-1.75-2.66-3.64.48-2.18,2.13-2.65,4.28-2.12,7.91,2,15.85,3.77,23.75,5.74q39.93,9.9,79.85,19.87c13.4,3.32,25.91-3.79,29.27-16.54s-3.89-25.35-17.31-28.79c-34.46-8.83-69-17.3-103.52-25.9l-206.62-51.46q-33.15-8.25-66.3-16.48c-1.46-.36-3-.49-4-1.71a2.67,2.67,0,0,1-.38-3.25c1.34-2.36,3.49-1.49,5.35-1q23,5.63,46,11.39,106.44,26.56,212.89,53.13,59,14.71,118.08,29.32c14.56,3.6,24,16.76,22.6,30.62C2392.61,765.84,2380.85,776.21,2361.8,776.16Z"/><path class="cls-25" d="M1659.52,541.1c7.65.71,17.15,3.93,26.79,6.32q126.09,31.23,252.09,62.83c2.66.66,7.89,0,6.95,4.44-1,4.93-5.53,2-8.38,1.29Q1800,582,1663.06,547.93c-13.1-3.25-25.75,4-28.92,16.44-3.31,12.91,3.78,25.44,17,28.89,26.23,6.81,52.55,13.22,78.83,19.79,1.13.29,2.24.65,3.38.88,2.38.49,5.12,1.06,4.29,4.2s-3.77,2.15-5.93,1.61q-41.13-10.22-82.23-20.6c-14.2-3.6-24.09-17.73-22.25-31.42C1629.42,551.85,1641.51,541.06,1659.52,541.1Z"/><path class="cls-25" d="M2202.79,737c-7.62-1.88-16.5-4.05-25.36-6.26l-349.68-87.17c-9.67-2.41-19.36-4.76-29-7.19-2.17-.55-5.26-.72-4.51-4,.82-3.6,3.89-2.38,6.17-1.81q66.51,16.54,133,33.19,133.24,33.19,266.51,66.35c1.78.44,3.59.75,5.32,1.33s2.95,1.75,2.42,3.76C2207.17,736.9,2205.72,737.27,2202.79,737Z"/><path class="cls-25" d="M2800.61,843.12c-1.42,36.5-15.55,66.17-47.2,86.19a12.88,12.88,0,0,1-2.58,1.49c-1.65.54-3.41.7-4.38-1.17s.12-3.21,1.64-4.15a100.11,100.11,0,0,0,15-10.78c17.62-16,27.53-35.93,30.92-59.32,8-55.34-38.14-103.83-87.35-110.46-34.92-4.7-67.53,1.69-97.1,21.33a77.16,77.16,0,0,0-24.35,26c-1.14,2-2.12,4.82-5.12,3.22-3.29-1.76-1.35-4.28-.1-6.38,12.32-20.68,30.75-33.89,52.93-41.93,31.32-11.35,63.44-15.05,95.17-2.94,41,15.64,66,45.25,72.5,89.38C2801,836.73,2800.61,840,2800.61,843.12Z"/><path class="cls-25" d="M1385.51,627.18c-51.13-1-94.37-19.87-129.34-57.41-1.58-1.69-4-3.64-1.68-5.88s4.23-.17,6.09,1.81c27.32,29.16,60.51,47.4,100.17,53.49a168.26,168.26,0,0,0,75.47-5.55c.32-.1.62-.26.94-.33,2.23-.46,4.9-1.68,5.78,1.67.77,2.92-1.7,3.49-3.81,4.17a161.75,161.75,0,0,1-24.23,5.79A149.49,149.49,0,0,1,1385.51,627.18Z"/><path class="cls-25" d="M2782.75,814.4c-2.41,7.67.76,15.49,4.41,23.29,1.72,3.67,2.58,7.57,1,11.62-.79,2.05-2,3.67-4.42,2.93s-2.28-2.75-1.5-4.53c1.32-3,.35-5.56-.92-8.12-4.25-8.55-6.35-17.29-4.72-27,1.09-6.53-2-10.68-8.21-13.26-3.67-1.52-7.54-2.58-11.24-4.06-7.35-2.92-11.88-8-11.21-16.35.41-5.26-2.67-6.48-7-6.88-10.35-1-20.36-3.33-29.61-8.23-4.7-2.49-8.37-6-9.71-11.44-.45-1.84-.22-3.44,1.64-4.15,2.08-.79,3.62.14,4.17,2.29,1.35,5.33,5.53,7.65,10.06,9.59a81.91,81.91,0,0,0,24.62,6c8.48.83,12,4.36,11.71,12.87-.16,5.68,3,8.61,7.44,10.63,3,1.36,6.28,2.19,9.41,3.29C2778.84,796.48,2783,802.53,2782.75,814.4Z"/><path class="cls-25" d="M1351.7,401.87c-15.56-.33-32.06,2.44-48.22,7.34-2.35.71-4.87,1.68-5.84-1.41-1-3.26,2-3.76,4.13-4.39a180.12,180.12,0,0,1,43.09-7.49,175.46,175.46,0,0,1,91.27,20.33c1.62.84,3.18,1.82,4.76,2.74,2.07,1.23,4.44,2.62,2.66,5.38-1.59,2.45-3.77,1-5.69-.09a157,157,0,0,0-22.89-11A168.15,168.15,0,0,0,1351.7,401.87Z"/><path class="cls-25" d="M1524,501.52c-.33,26.85-7.66,52.12-17.57,76.79q-2.79,6.93-5.79,13.8c-.86,2-1.77,4.42-4.64,3.17s-1.83-3.47-.93-5.54c7.55-17.41,14.41-35.07,18.57-53.64,3.92-17.46,5.82-35.06,2.73-52.9-.36-2.1-.48-4.27,2.06-4.88,3-.72,3.55,1.53,3.92,3.84A102.89,102.89,0,0,1,1524,501.52Z"/><path class="cls-25" d="M2764.71,898.83c-8.24-.93-13.36,4-17.4,10.55a70.67,70.67,0,0,0-3.38,6.67c-.87,1.81-2.33,2.47-4.09,1.79s-2.31-2.37-1.54-4.13c4.56-10.41,10.39-19.76,23-21,4.31-.44,5-2.54,5.56-5.83a45.63,45.63,0,0,1,12.49-24.48c1.72-1.76,3.57-5.09,6.48-2.4s-.23,4.66-2,6.49A43.33,43.33,0,0,0,2772,892.75C2771.37,899.29,2771.46,899.3,2764.71,898.83Z"/><path class="cls-25" d="M2641,769.09c-6,8.11-14.25,12-24.21,13.16-5.27.59-10.55,1.85-13.65,7.06-1.34,2.25-3.21,2-5.12.68-1.12-5.16,2.51-7.63,6-9.93,4-2.64,8.62-3.41,13.26-4,10.95-1.4,18.52-6.94,21.6-17.82.58-2.06,1.42-3.46,3.69-3.06,2.82.48,2.75,2.79,2.16,4.68C2643.74,763,2642.29,766,2641,769.09Z"/><path class="cls-25" d="M2673.39,764a27.09,27.09,0,0,1-17.5-7.25c-1.68-1.59-3.15-3.4-1.31-5.54s3.45-.37,5.07.87c9.92,7.64,19.86,8,30.34,1.11,1.71-1.12,3.39-2.64,5.18-.49,2,2.42,0,3.91-1.65,5.35C2689.36,761.76,2682.41,764,2673.39,764Z"/><path class="cls-25" d="M2405.85,746.44a32.4,32.4,0,0,1-6.16,20.12c-1.32,1.89-3,3.61-5.34,2.11-2.67-1.7-1-3.79.24-5.54a28.32,28.32,0,0,0,5.21-20.28c-.24-2.22-.86-4.72,2.22-5.1,3.27-.4,3.51,2.39,3.8,4.71A33,33,0,0,1,2405.85,746.44Z"/><path class="cls-25" d="M1642,536.54c-.19,2-1.49,2.79-2.87,3.39a24.81,24.81,0,0,0-12.51,11.68c-1,2-2.52,3.38-4.79,2.28-2.54-1.24-1.55-3.29-.63-5.14a30.23,30.23,0,0,1,15.77-14.6C1639.73,533,1641.4,533.77,1642,536.54Z"/><path class="cls-8" d="M2724.45,1133.25a2.85,2.85,0,0,1-1.5,2.44c-1.28.53-2.7.62-3.64-.65-9.77-13.23-24.52-20.88-36-32.14-11.91-11.63-17.48-26.42-21.29-42.11-5.31-21.9-7.36-44.25-9.07-66.65-2.43-32-4.14-64.09-14-95-6.36-20-15.43-38.53-30-54-1.6-1.7-3.61-3.76-1-5.89s4.24.29,5.81,2c16.75,18.17,26.71,39.89,33.22,63.43,6.86,24.83,9.07,50.34,11,75.89,2.09,27.35,4,54.7,10.57,81.52,4.83,19.62,14.8,35.32,31.38,47,8.17,5.74,16,12,22.29,19.88C2723.21,1130.23,2724.42,1131.43,2724.45,1133.25Z"/><path class="cls-8" d="M2831.82,1186.14c.34,1.76.81,3.5,1,5.28.18,2,1.27,4.58-1.62,5.46-3.17,1-3.77-1.65-4.44-3.89-2.29-13.4-9.2-24.45-17.83-34.53-11.81-13.79-26.37-24.32-41.33-34.35-16.58-11.12-33.42-21.88-47.48-36.3a102.84,102.84,0,0,1-17.14-23.2c-1-1.89-1.81-3.88.48-5.23s3.68-.11,4.77,2c9.46,18.3,24.71,31.06,41,42.83,15.77,11.39,32.6,21.26,47.55,33.83C2812.43,1151.2,2825.13,1166.46,2831.82,1186.14Z"/><path class="cls-9" d="M2697.81,977.86a3.09,3.09,0,0,1-1.87,3.6c-1.51.72-2.65,0-3.43-1.16a20.17,20.17,0,0,1-1.72-3.56c-8.47-19.88-12-41.12-16.87-62-4.78-20.34-10.93-40.09-23.74-57.09a70.45,70.45,0,0,0-17.21-16.5c-2-1.33-4.46-2.75-2.73-5.43,2-3.14,4.42-.8,6.38.53,14.08,9.53,23.38,22.89,30.49,38.05,8.35,17.77,12.27,36.83,16.48,55.81,3.5,15.75,7.14,31.43,13.62,46.3C2697.47,977,2697.72,977.65,2697.81,977.86Z"/><path class="cls-10" d="M2803.87,1106.08c28.09,18,39.09,45.82,44,77.08q1.08,6.9,1.84,13.85c.26,2.39,1.08,5.53-2.63,5.84-3.38.28-3.06-2.71-3.33-5-2.14-18.56-5.26-36.87-13.82-53.78-.89-1.76-2-3.4-3-5.1a69.22,69.22,0,0,0-26-27.22c-2.07-1.25-5.79-2-3.94-5.56S2801.52,1105.76,2803.87,1106.08Z"/><path class="cls-17" d="M2704.73,997.69c.05,2.19-.63,3.23-2,3.78a2.56,2.56,0,0,1-3.41-1.16,96.57,96.57,0,0,1-3.83-9.58,2.64,2.64,0,0,1,1.64-3.24,2.44,2.44,0,0,1,3.44,1C2702.19,991.66,2703.54,995,2704.73,997.69Z"/><path class="cls-30" d="M2610.94,879c1.92,2.49,3.09,5.35,4.72,9.73-7.48-4.35-13.67-8.21-18.76-13.68,3.27-1.36,5.75,1.11,8.59,1.82A41.81,41.81,0,0,1,2610.94,879Z"/><path class="cls-31" d="M2699.4,1039.51c2.87.21,3.59,2.46,3.93,4.79a2.49,2.49,0,0,1-2.43,3.1c-3.11.18-3.73-2.37-4.28-4.55C2696.14,1041,2697.25,1039.73,2699.4,1039.51Z"/><path class="cls-14" d="M1700.78,1390.94a91.33,91.33,0,0,1-8.23,24.65c-.83,1.62-2.14,2.67-4.06,1.87-2.2-.92-2.3-2.8-1.39-4.58a90.62,90.62,0,0,0,7.68-22.55,2.87,2.87,0,0,1,3.63-2.49C1700.61,1388.17,1700.7,1389.89,1700.78,1390.94Z"/><path class="cls-8" d="M1577,1441.11c2.32-.2,5.2-.74,5.38,2.61s-2.67,3.12-5,3.31a546.34,546.34,0,0,0-190.85,50.55c-1,.49-2.13.93-3.17,1.45-2.07,1-4.27,1.83-5.45-1-1-2.42.75-3.54,2.74-4.44,6.67-3,13.25-6.19,20-9.09A555.94,555.94,0,0,1,1575,1441.11C1575.67,1441.06,1576.34,1441.11,1577,1441.11Z"/><path class="cls-10" d="M1502.44,1483.93c9.44-.34,19.7.83,30,2.14,2.18.28,4.76.6,4.52,3.52-.28,3.45-3,2.79-5.36,2.46a204.15,204.15,0,0,0-70,1.8c-2.18.44-5.06,1.29-5.5-2.25-.37-2.94,2.13-3.28,4.32-3.7A201.93,201.93,0,0,1,1502.44,1483.93Z"/><path class="cls-32" d="M1350.15,1519.8a9.49,9.49,0,0,1-6.85,5,2.51,2.51,0,0,1-3-3c.83-3.36,3.88-4.81,6.89-5.55C1348.94,1515.8,1350.26,1517.21,1350.15,1519.8Z"/><path class="cls-10" d="M1428.79,1132.53a146.82,146.82,0,0,1-54.21-11.8c-2.16-.93-4.79-1.87-3.48-4.92,1.37-3.2,3.87-1.55,6-.68,33.81,14.13,68,15.13,102.71,3.4,2.18-.74,4.82-2.18,6,.86,1.36,3.44-1.78,4-4.1,4.86C1466.24,1130,1449.1,1132.67,1428.79,1132.53Z"/><path class="cls-17" d="M1502,1109c2.34.12,3.69,1.33,3.4,3.13-.52,3.15-3.15,4.42-6,5a2.4,2.4,0,0,1-3.09-2.38C1496.48,1111.09,1499.86,1110.45,1502,1109Z"/><path class="cls-33" d="M2520.17,1053.87c3.69,2.87,1,6.75,1.6,10.1C2519.83,1060.83,2518.31,1057.62,2520.17,1053.87Z"/><path class="cls-34" d="M959.11,1520.7c-1.75,8.48-3.33,16.1-4.88,23.73-.29,1.43-.1,3.25-2.38,3-8-1-15.79-2.68-21.63-8.84-4.05-4.27-3.31-7.67,2.1-9.88C940.75,1525.23,949.55,1523,959.11,1520.7Z"/><path class="cls-35" d="M1849.35,1289.14c-.42,3.52-1.63,6-3.91,7.9-3.4,2.84-9.86,1-11.2-3.22-.64-2,1-1.67,2-1.89C1840.41,1291,1844.61,1290.14,1849.35,1289.14Z"/><path class="cls-9" d="M2452.79,1755.42c.08,1.88-.59,3.14-2.33,3.48-2.29.44-3.26-.86-3.75-3-1.52-6.46-3-12.93-4.76-19.34a404,404,0,0,0-39.37-96c-6.21-10.9-13.28-21.15-23.82-28.42-2-1.38-2.73-3.15-1.39-5s3.23-1.11,4.85,0a71.19,71.19,0,0,1,19.46,20.5c16.87,26.28,29.26,54.69,39.2,84.2a355,355,0,0,1,11.32,41.29C2452.37,1754,2452.61,1754.77,2452.79,1755.42Z"/><path class="cls-10" d="M1313.65,1718c-7.14-1.64-15.26-3.39-23.33-5.36q-36.81-9-73.11-19.83c-1-.29-1.89-.66-2.85-.92-2.1-.56-3.23-1.81-2.55-4s2.64-2.3,4.51-1.76c7.65,2.22,15.27,4.57,22.93,6.77q37.15,10.65,74.88,19c2,.45,4.1.89,4,3.55C1318,1717.54,1316.57,1718.21,1313.65,1718Z"/><path class="cls-11" d="M1238.64,1719c1.1.56,2.31,1.08,3.43,1.77a431.44,431.44,0,0,0,40.3,21.83c2,.93,4.48,1.87,3.37,4.6-1.22,3-3.73,2-5.93.92a429,429,0,0,1-41.17-22.3c-1.58-1-3.24-1.87-2.89-4.15C1236,1720.1,1237.13,1719.49,1238.64,1719Z"/><path class="cls-11" d="M2240,1200.21c.87.45,1.9,1,2.92,1.51q19.91,10.71,39.81,21.42c2.12,1.14,4.54,2.37,3,5.21s-3.94,1.26-6,.16q-19.67-10.62-39.33-21.24a14,14,0,0,1-3-1.8,2.92,2.92,0,0,1-.54-3.66C2237.48,1200.66,2238.54,1200.27,2240,1200.21Z"/><path class="cls-36" d="M2161,756.16c3.28.9,6.77,1,9.88,2.61l-8.78,5.58A23.92,23.92,0,0,0,2161,756.16Z"/><path class="cls-2" d="M1838.92,675.08c.93,8.21,4.22,15.8,6.25,23.71.36,2.11-1.37,2.34-2.46,2-7.74-2.3-15.87-2.56-23.62-4.74l-8.07-28A267.9,267.9,0,0,1,1838.92,675.08Z"/><path class="cls-2" d="M1863.19,681.13c1.65,9,4.75,17.54,8.11,26.87-6.23-1.13-12-2.16-17.69-3.26-.59-.11-1.59-.65-1.57-1,.4-9-5.33-16.45-6.31-25.09.23-1.91,1.55-1.84,2.88-1.49C1853.48,678.48,1858.33,679.81,1863.19,681.13Z"/><path class="cls-15" d="M2105,848.16c-.29.78-.61,1.72-1,2.64q-6.11,15.26-12.23,30.49c-.88,2.19-1.86,4.81-4.91,3.39-2.67-1.24-1.61-3.61-.79-5.66,4.22-10.46,8.48-20.91,12.64-31.4.79-2,1.91-3.11,4.1-2.6C2104.3,845.36,2104.86,846.53,2105,848.16Z"/><path class="cls-21" d="M2829,1693.39c-2.19-.33-3.23-1.71-2.62-4.13a39.22,39.22,0,0,1,15.44-23c1.66-1.19,3.52-1.64,4.77.27,1.12,1.73.55,3.4-1.23,4.71a34.64,34.64,0,0,0-13.14,19.36C2831.63,1692.68,2830.66,1693.33,2829,1693.39Z"/><path class="cls-10" d="M1456.88,793.06a138.57,138.57,0,0,1-42.47-5.86c-2.24-.67-4.42-1.32-3.66-4.19.81-3.07,3.33-2.23,5.35-1.62a137.2,137.2,0,0,0,64.54,3.43c2.32-.42,4.65-.79,5.25,2,.7,3.31-2.21,3.69-4.45,4.05C1472.9,792.21,1464.35,793.47,1456.88,793.06Z"/><path class="cls-10" d="M1373.09,786.36a140.17,140.17,0,0,1-21.21,60.39c-1.28,2-2.83,3.67-5.19,2.08-2.14-1.43-1.2-3.41-.06-5.24a133.74,133.74,0,0,0,20.59-60.16c.2-2.17.49-4.55,3.6-4.32C1373,779.26,1373.43,780.43,1373.09,786.36Z"/><path class="cls-21" d="M1352.92,790.35A56.14,56.14,0,0,1,1346,813c-1.07,1.87-2.63,2.75-4.52,1.71s-1.77-3-.75-4.76a49.43,49.43,0,0,0,6.12-19.79c.2-1.91,1-3.21,3.06-3.11C1352.34,787.19,1352.76,789,1352.92,790.35Z"/><path class="cls-37" d="M1350.14,865.21l-10.89,17c-1.36-6.89-2.38-12.36-2.3-18,.11-1.09.22-2.19.4-4.07C1340.59,865.62,1344.86,867,1350.14,865.21Z"/><path class="cls-38" d="M1373.16,821.23c-4.62,14.35-12,27.27-20.23,39.78-.79-.65-.68-1.37-.26-2.19L1372,821.2c.07-.13.24-.35.3-.33A6.37,6.37,0,0,1,1373.16,821.23Z"/><path class="cls-14" d="M1893.9,876c.23,2.68-.39,3.92-2.16,4.29a2.83,2.83,0,0,1-3.53-2q-4-12.28-7.75-24.62a2.67,2.67,0,0,1,2-3.48c1.34-.39,2.88-.21,3.39,1.27C1888.69,859.89,1891.42,868.39,1893.9,876Z"/><path class="cls-39" d="M1819.09,696.06c7.65-.62,15,.82,22.2,3.24,1.42.48,2.79,1.27,3.88-.51l2.2,4.76c-10-2-19.1-3.74-28.22-5.63C1817.85,697.65,1818.65,696.71,1819.09,696.06Z"/></svg>