<?xml version="1.0" encoding="utf-8"?>
<!-- Generator: Adobe Illustrator 26.3.1, SVG Export Plug-In . SVG Version: 6.00 Build 0)  -->
<svg version="1.1" id="Layer_1" xmlns="http://www.w3.org/2000/svg" xmlns:xlink="http://www.w3.org/1999/xlink" x="0px" y="0px"
	 viewBox="0 0 800 600" style="enable-background:new 0 0 800 600;" xml:space="preserve">
<style type="text/css">
	.st0{display:none;fill:#FFFFFF;}
	.st1{fill:#DEECF8;}
	.st2{clip-path:url(#SVGID_00000106857431548139529990000006868248725599546031_);}
	.st3{fill:#C7DDF2;}
	.st4{fill:#140C15;}
	.st5{fill:#C5DEF3;}
	.st6{fill:#754C29;}
	.st7{fill:#A97C50;}
	.st8{fill:#EFA294;}
	.st9{fill:#F6D1BA;}
	.st10{fill:#BC9264;}
	.st11{fill:#A37342;}
	.st12{fill:#141E39;}
	.st13{fill:#0E1527;}
	.st14{fill:#203154;}
	.st15{fill:#FFFFFF;}
	.st16{fill:#F4C06B;}
	.st17{fill:#C2B59B;}
	.st18{fill:#DFBC92;}
	.st19{fill:#DC5967;}
	.st20{fill:#FBB040;}
	.st21{fill:#C13F51;}
</style>
<g id="Layer_2">
	<rect x="-13" y="-5" width="823" height="611"/>
</g>
<g id="background">
	<rect class="st0" width="800" height="600"/>
	<path class="st1" d="M531.6,102.9c-36.7-2.6-75.7-0.5-110.3-13.8c-19.1-7.4-36.8-18.3-56-25.5c-63.9-24.1-158.9-2.4-189,65.2
		c-13.6,30.5-15.1,65.3-27.2,96.4c-11.9,30.3-33.4,55.8-45.6,86c-12.4,30.8-14.5,65.1-11.1,98.2c1.3,12.3,3.3,24.6,8,35.9
		c15.3,37.5,55.3,57.4,93.5,68c77,21.3,158,17.8,237.8,18.8c43.7,0.5,87.7,2.4,130.7-5.2s85.8-25.8,114.9-59.1s41.7-83.9,23.5-124.6
		c-11.8-26.4-35-46.8-43.1-74.6c0-8.7-4.8-19.5-5.9-28.4c-1.6-12.9-3-25.8-4.5-38.7c-1.8-15.1-3.6-30.5-10-44.2
		c-16.2-34.6-56.7-49.5-93.9-53.4C539.3,103.5,535.5,103.2,531.6,102.9z"/>
	<g>
		<defs>
			<path id="SVGID_1_" d="M531.6,102.9c-36.7-2.6-75.7-0.5-110.3-13.8c-19.1-7.4-36.8-18.3-56-25.5c-63.9-24.1-158.9-2.4-189,65.2
				c-13.6,30.5-15.1,65.3-27.2,96.4c-11.9,30.3-33.4,55.8-45.6,86c-12.4,30.8-14.5,65.1-11.1,98.2c1.3,12.3,3.3,24.6,8,35.9
				c15.3,37.5,55.3,57.4,93.5,68c77,21.3,158,17.8,237.8,18.8c43.7,0.5,87.7,2.4,130.7-5.2s85.8-25.8,114.9-59.1
				s41.7-83.9,23.5-124.6c-11.8-26.4-35-46.8-43.1-74.6c0-8.7-4.8-19.5-5.9-28.4c-1.6-12.9-3-25.8-4.5-38.7
				c-1.8-15.1-3.6-30.5-10-44.2c-16.2-34.6-56.7-49.5-93.9-53.4C539.3,103.5,535.5,103.2,531.6,102.9z"/>
		</defs>
		<clipPath id="SVGID_00000047755312030269378800000017375260912629597313_">
			<use xlink:href="#SVGID_1_"  style="overflow:visible;"/>
		</clipPath>
		<g style="clip-path:url(#SVGID_00000047755312030269378800000017375260912629597313_);">
			<rect x="208.7" y="49.9" class="st3" width="382.7" height="432.6"/>
			<rect x="218.7" y="59.9" class="st1" width="362.7" height="412.6"/>
		</g>
	</g>
	<ellipse class="st3" cx="400" cy="539.3" rx="295.6" ry="6.6"/>
</g>
<g id="illustration">
	<path class="st4" d="M498.4,343.2l3.7,75.7l3.7,75.7l2.1,42.7c0.1,2.6-4,2.6-4.1,0l-3.7-75.7l-3.7-75.7l-2.1-42.7
		C494.2,340.6,498.3,340.6,498.4,343.2z"/>
	<path class="st4" d="M265.1,343.5l-11,75l-11,75l-6.1,42.3c-0.3,1.1,0.4,2.2,1.4,2.5c1.1,0.3,2.2-0.3,2.5-1.4l11-75l11-75l6.1-42.3
		c0.3-1.1-0.4-2.2-1.4-2.5C266.5,341.8,265.4,342.5,265.1,343.5L265.1,343.5z"/>
	<path class="st4" d="M301.6,343.2l-3.7,75.7l-3.7,75.7l-2.1,42.7c-0.1,2.6,4,2.6,4.1,0l3.7-75.7l3.7-75.7l2.1-42.7
		C305.8,340.6,301.7,340.6,301.6,343.2z"/>
	<path class="st5" d="M444.7,303.1c2.3,7.8,4,15.8,5.1,23.9h15.9c1.2-8.1,2.9-16.1,5.1-23.9H444.7z"/>
	<path class="st5" d="M465.3,321.4c-0.7,0-1.2,0-1.3,0l0.1-2.5c0.1,0,8.3,0.5,11.7-2.8c0.9-0.8,1.4-2,1.4-3.2c0.1-0.9-0.3-1.8-1-2.3
		c-2.6-1.7-9.4,0.5-11.6,1.5l-1-2.3c1-0.4,9.8-4,14-1.2c1.4,1,2.2,2.7,2.1,4.4c0,1.9-0.8,3.7-2.2,5C474.3,321,468,321.4,465.3,321.4
		z"/>
	<path class="st6" d="M446.4,309.3c1.5,5.9,2.6,11.8,3.5,17.8h15.9c0.8-6,2-11.9,3.5-17.8H446.4z"/>
	<path class="st7" d="M447.2,312.8c0.9,4.1,1.9,9.1,2.6,14.2h15.9c0.7-5.1,1.7-10.1,2.6-14.2H447.2z"/>
	<path class="st5" d="M457.8,324.2h-30.2c5,4.2,11.3,6.6,17.8,6.7h24.9c6.5-0.1,12.8-2.5,17.8-6.7H457.8z"/>
	<path class="st8" d="M568.9,198.7c-0.5-4.5-1.2-9-2.2-13.4c-0.1-0.5-0.4-1-1-0.9s-0.5,0.4-0.6,0.8c-1,4-1.9,8.3-5.3,11.2
		c-1,0.9-2.5,1.2-3.3,2.3c-0.6,0.6-0.6,1.7,0.1,2.3c0.4,0.3,0.8,0.4,1.2,0.5c3.2,0.9,5.8,1.8,9.2,0.7c0.5-0.1,0.9-0.4,1.3-0.7
		C568.9,200.6,569.1,199.6,568.9,198.7z"/>
	<path class="st9" d="M606.3,201.5c-3.5,1.5-6.9,3.1-10.3,4.7c-1.9,0.5-3,2.5-2.5,4.3c0,0.1,0.1,0.2,0.1,0.3
		c2,18.4,2.5,36.9,1.5,55.3c6.9-2.1,14.9-6.5,21-10.2c1-0.6,13.9-10,14-9.6c-5-15.8-6.2-32.1-9.6-48.2c-0.1-0.5-0.3-1-0.7-1.4
		c-0.7-0.3-1.5-0.3-2.2,0.1C613.8,198.3,610,199.9,606.3,201.5z"/>
	<path class="st8" d="M596,206.3c-1.9,0.5-3,2.5-2.5,4.3c0,0.1,0.1,0.2,0.1,0.3c1.2,11.2,1.9,22.4,2,33.6c2-1.1,3.8-2.6,5.3-4.5
		c2.8-3.6,4.3-8,5.5-12.4c2.4-8.9,3.8-18,4.2-27.3l-0.6-0.3l-3.6,1.5C602.8,203,599.4,204.6,596,206.3z"/>
	<path class="st9" d="M547.2,522c-0.3-1.4-0.6-2.9-1-4.3c-1.3-5.1-1.3-9.1-1.1-14.4c0-1.8,0-21.5-1.1-21.5
		c-10.3,0-20.6,1.2-30.6,3.6c-0.7,0.2,4.5,26.3,4.8,28.5c0.4,0.9-0.1,1.9-1,2.3c-0.1,0.1-0.3,0.1-0.4,0.1c-9.2,3.8-18.5,6.5-28,9.5
		c-2.9,0.7-5.6,2-8.1,3.7c-3.1,2.4-3.6,4.8-3.6,8.4c0,0.2,0,0.3,0.1,0.5c0.1,0.1,0.3,0.2,0.5,0.2c8.9,0.4,17.9,0.8,26.8,0.6
		c7.2-0.2,14.4-0.3,21.6-0.7c6.8-0.4,13.5,0.3,20.2-0.8C547.8,532.6,548.1,527.2,547.2,522z"/>
	<path class="st4" d="M514.1,526.2c1.1-2.2,3-4.1,3.9-6.5c0.5-1.3,0.4-2.8-0.1-4.1c-0.3,0.3-0.7,0.6-1.1,0.7
		c-9.2,3.8-18.5,6.5-28,9.5c-2.9,0.7-5.6,2-8.1,3.7c-3.1,2.4-3.6,4.8-3.6,8.4c0,0.2,0,0.3,0.1,0.5c0.1,0.1,0.3,0.2,0.5,0.2
		c8.9,0.4,17.9,0.8,26.8,0.6c7.2-0.2,14.4-0.3,21.6-0.7c6.8-0.4,13.5,0.3,20.2-0.8c1.2-4.1,1.6-8.3,1.3-12.6
		c-1.1,0.1-2.1,0.2-3.2,0.4C534.3,527,524.2,527.3,514.1,526.2z"/>
	<path class="st8" d="M543.9,481.8c-10.3,0-20.6,1.2-30.6,3.6c-0.7,0.2,4.5,26.3,4.8,28.5c0,0.2,0,0.4,0.1,0.6
		c9.1,0.8,18.3,1.2,27.5,1.2c-0.7-4.1-1-8.3-0.7-12.4C545.1,501.5,545,481.8,543.9,481.8z"/>
	<path class="st10" d="M513.2,380.7c-4.8,2.2-9.6,4.6-12.9,8.7c-5.5,6.9-5.2,16.6-4.5,25.3c2.7,32,10.2,63.4,16.1,95
		c0.6,3.2,32.9-0.3,35.7-0.9c0.9-29-1.9-57.9-0.9-87.1c0.3-9.2,13.1-8.1,19.8-8.8l38.9-3.6c11.4-1,21.9-1.1,30.9-9.2
		c11.6-10.5,13-28.1,12.2-43.7c0-1-31.8-1-35-0.9c-11.4,0.2-20.6,2.3-31.3,4.9C558.4,366.1,535.7,370.5,513.2,380.7z"/>
	<path class="st11" d="M618.5,357.3c-3.1,13.7-17.4,19.6-29.5,23.1c-13.8,4-28,6.2-41.8,10c-3.4,0.9-6.7,1.9-10,3
		c-3.3,1.1-6.5,2.3-9.7,3.9c-2.6,1.2-4.6,3.5-5.5,6.2c-1,2.9-0.8,6.1-0.6,9.1c0.8,14.5,2.2,29,3.5,43.5c1.5,16.3,3.1,32.6,4,48.9
		c0.1,1.3,2.1,1.3,2,0c-1.7-28.9-5.3-57.6-7.2-86.5c-0.3-3.5-0.5-6.9-0.5-10.4c0.1-3.2,1-6.3,3.8-8.2s6.2-2.9,9.3-4
		c3.4-1.2,6.9-2.3,10.4-3.3c13.7-3.8,27.7-6,41.4-9.9c13.2-3.7,28.8-10,32.2-24.9C620.7,356.6,618.8,356.1,618.5,357.3L618.5,357.3z
		"/>
	<path class="st11" d="M648.6,356.6c0-1-31.8-1-35-0.9c-11.4,0.2-20.6,2.3-31.3,4.9c-5.8,1.4-11.5,2.6-17.2,4
		c3.3,1.7,7.2,2.2,10.5,4.1c4.1,2.5,8,5.3,11.6,8.4c7.4,6.1,14.5,12.8,23.5,16.5c6.6,2.7,13.8,3.6,21,4.4c2.2,0.3,4.3,0.5,6.5,0.6
		C648.1,387.9,649.3,371.4,648.6,356.6z"/>
	<path class="st12" d="M586.3,261.1c-3.6,6.6-6.2,13.6-7.7,20.9c-2.7,14.5-4.9,29-6.6,43.6c-1.5,12.8,0.1,28.2-6.3,39.4
		c4.8-1.5,10.1,0.4,14.2,3.3s7.5,6.7,11.7,9.6c11.1,7.9,25.6,8.3,39.2,8.5c7.3,0.1,15.1,0,21.4-3.7c2-1.2-0.2-27.2-0.1-30.7
		c0.1-7.9-2.3-15-2.2-22.9c0.3-12.4,0.2-24.9-0.3-37.3c-0.8-20.8-3.7-43.6-19.1-57.6c-6.4,6.9-16.1,8.1-24.7,10.7
		C595.4,248.1,591.3,251.6,586.3,261.1z"/>
	<path class="st13" d="M637.1,273.6c-5,6.4-9.8,13.1-15.1,19.2c-2.5,2.9-18.7,14.9-18.7,17.6c-9.2,7.2-19.8,13-31.3,15.2
		c-1.2,9.8-0.5,21.1-3,31c6.9,0.4,13.9,0.3,20.8,0.1c4.8-0.1,9.7-0.2,14.2-1.8c8.3-2.9,14.2-10.3,18.7-17.8
		C633.8,318.5,640.4,295.2,637.1,273.6z"/>
	<path class="st9" d="M545.1,339.3c15.4,3.4,38.8,8.3,52.6-2.1c3-2.5,5.7-5.3,8-8.4c13-16,26.4-33.3,29-53.8
		c0.5-3.8,0.5-7.8-1.2-11.2c-6.1-12.3-19-0.6-24.5,5.5c-6.2,7.1-12,14.5-17.3,22.3c-2.2,3.1-4.2,6.4-6.6,9.4
		c-3.1,3.7-6.4,7.1-9.9,10.3c-0.6,0.6-1.2,1.1-2,1.5c-0.7,0.2-1.4,0.4-2.1,0.4c-12.3,0.9-24.7,0.9-37,0.1
		c-9.5-0.5-21.8-0.6-29.3-6.9c-2.8-2.4-5.5-5.1-9-6.3c-7.1-2.4-18.4,2.3-24.2,6.5c-2.2,1.5-3.5,3.9-3.6,6.6c0.2,2,0.9,3.9,2.1,5.5
		c3.5,6.1,8.2,13,15.2,13.4c4.5,0.2,8.5-2.3,12.9-3.1c5.7-1.1,11.6,0.7,17.2,2.5C525.1,334.8,535.1,337.4,545.1,339.3z"/>
	<path class="st12" d="M578.2,302.8c-0.1,0.2-0.2,0.3-0.3,0.5c-1.1,1.9-2.5,3.6-4.3,5c-1.8,1.1-3.8,1.7-5.9,2
		c-8.5,1.6-16.7,1.3-25.2,2.3l-3.9,29.2c16.2,2.2,32.5,3.4,48.8,3.5c13,0.1,20.8-9.1,27.6-19.3c10.4-15.5,23.5-34.2,25.7-53
		c0.6-4.8,0.7-9.7-1.1-14.2c-2.9-7.5-10.3-11.2-17.5-7.6C601.2,261.5,590.3,284,578.2,302.8z"/>
	<path class="st13" d="M538.5,341.8c8,1.1,16,2,24,2.5c-0.7-11-1.7-22-3-33c-5.7,0.5-11.3,0.6-17.1,1.2L538.5,341.8z"/>
	<path class="st14" d="M608.1,269.1c0-3.7,10.7-13.5,13.1-16.6c3.9-5,7.6-9.8,11.2-15.1c0.1-0.2,0.2-0.4,0.3-0.6
		c0-0.3-0.1-0.6-0.2-0.9l-7.6-14.5c0.1,0.2-30,14.8-33,16.5c-0.5,0.2-0.9,0.5-1.3,0.9c-0.4,0.6-0.6,1.4-0.5,2.1
		c-0.2,6.4,0.5,13.2-2.8,18.7c2-4,5.4-6.3,8.1-9.8c1.4,3.2,2.8,4.6,4.7,7.5C601.4,259.5,608.1,266.7,608.1,269.1z"/>
	<path class="st12" d="M553.4,348.1c0.7,0,2.7-34.4,2.5-38.1c0-0.8-15.2-1.5-16.4-1.4s-6,32.9-6.4,35.4c-0.2,0.8-0.1,1.6,0.1,2.3
		c0.6,1.2,2.1,1.5,3.4,1.6C542.1,348.4,547.7,348.4,553.4,348.1z"/>
	<path class="st11" d="M510.4,501.5c0.5,2.8,1.1,5.5,1.6,8.3c0.6,3.2,32.9-0.3,35.7-0.9c0.1-3.3,0.2-6.6,0.2-9.9
		C535.5,500.3,523,501.1,510.4,501.5z"/>
	<path class="st9" d="M605.4,211.8c0.8-1.2,1.7-2.5,2.5-3.8c1.7-2.7,3.2-5.6,6-7.2s5.2-2.7,7.3-5.4c3.8-4.9,4.7-11.4,4.7-17.4
		c0-6.9-2-14-6.8-19.1c-13.9-14.8-48.6-12.3-53.7,10c-1.2,5.3-0.8,10.8-0.3,16.2c1.1,12.3,1.7,23.9,5.5,35.6
		c0.8,2.6,2.2,5.2,4.6,6.6c2.1,1.1,4.5,1.4,6.8,1.1c5.7-0.8,11-3.3,15.2-7.1C600.3,218.5,603.1,215.3,605.4,211.8z"/>
	<path class="st4" d="M577.3,185.8c0.8,0,1.5-0.7,1.5-1.5s-0.7-1.5-1.5-1.5s-1.5,0.7-1.5,1.5S576.5,185.8,577.3,185.8z"/>
	<path class="st4" d="M552,156.9c0.2,0.4,0.3,0.8,0.5,1.2c4.2,7.9,19.1,5.1,26.5,5.1c0.4,0,0.7,0,1.1,0.2c0.3,0.2,0.6,0.5,0.8,0.9
		l3.1,5c0.4,0.7,0.9,1.4,1.5,2c3.3,2.9,8.5-0.2,10.2,4.9c0.4,1.4,0.6,2.8,0.6,4.2c0.3,7.4-0.7,14.2-1.1,21.4c-0.1,2,1,4.6-2.1,4.5
		c-2,0-4-2.2-5.5-3.4c-5.4-3.9-12.3-5.2-18.7-3.4c-0.5,0.1-1,0.3-1.4,0.6c-2.7,1.7-1.3,7-1.2,9.6c0.2,4.8,0.6,9.5,1.2,14.2
		c0.1,2,0.7,3.9,1.8,5.5c1.8,2.3,5,2.9,7.9,2.7c5.2-0.4,9.9-3.1,14.4-5.6c2.2-1.2,5.2-2.8,6.9-4.6c1.9-2.1,2.1-5.6,2.4-8.3l1.8-16.6
		c0.4-3.5,1-6,4.4-7.3s5.8-0.6,7.7,2.6c1.5,2.5,1.3,5.9,2.1,8.6c1.4,5.2,3.9,9.7,6,14.5c0.4,1,1.1,2.1,2.1,1.9
		c0.9-0.1,1.3-1.1,1.5-1.9c1.5-5.9,0.8-12,2.2-17.9c1.7-7,3.8-13.8,4.9-21c1.2-8.1,0.2-17.7-6.4-22.6c-3.3-2.5-7.5-3.4-11.6-4
		c-0.2-4.1-3.5-7.5-7.1-9.4c-5.5-2.9-11.9-3.3-18-2.3c-9,1.5-17,5.3-26.3,3.7c-2.8-0.5-5.7-1.3-8.2-0.2c-3.5,1.4-4.9,5.8-4.9,9.6
		C551,153.1,551.3,155.1,552,156.9z"/>
	<path class="st4" d="M576.8,170.6c-5.2-0.3-8.6,8-4.3,6.7c3.6-1.1,6-2.2,9.6-0.4c0.9,0.5,2.2,1,2.9,0.2s0-2-0.8-2.7
		C582.2,172.2,579.6,170.9,576.8,170.6z"/>
	<path class="st9" d="M606.5,202.4c-8.9-2.1-1.4-15.6,1.7-20c1.4-2,3.4-3.9,5.8-3.9c5.7,0.1,5,9.3,4.4,13c-0.6,4.2-3.1,8.3-7,10.2
		C609.9,202.5,608.1,202.7,606.5,202.4z"/>
	<path class="st15" d="M571.7,212.4c4.5,2.1,9.8,0.4,12.3-3.8c0.3-0.5,0.1-1.1-0.4-1.3c-0.5-0.2-1-0.1-1.3,0.3
		c-2,3.3-6.1,4.6-9.6,3.1c-0.5-0.3-1.1-0.1-1.4,0.4c0,0,0,0,0,0C571.1,211.5,571.3,212.1,571.7,212.4
		C571.7,212.4,571.7,212.4,571.7,212.4L571.7,212.4z"/>
	<path class="st8" d="M614.4,183.8c-1.8-0.6-3.2,1-4.1,2.4c-0.5,0.9-1,1.8-1.5,2.6s-1,1.6-1.4,2.5c-0.7,1.6-1,3.6,0.2,5
		c1,1.2,2.8,1.4,4,0.4c0.1-0.1,0.1-0.1,0.2-0.2c0.9-0.9-0.5-2.4-1.4-1.4c-0.6,0.6-1.4,0-1.6-0.6c-0.4-1.1,0.3-2.3,0.8-3.3
		c0.7-1.2,1.5-2.5,2.2-3.7c0.4-0.6,1.1-2.2,2-1.9C615.1,186.1,615.6,184.1,614.4,183.8L614.4,183.8z"/>
	<path class="st4" d="M543.8,538.9l7.1,0.3c3.8-40.6,7.3-81.1,10.6-121.7c0.2-2.4,0.3-5.1-1.2-7c-3.2-4-10.1-0.3-11.5,4.6
		C545.8,426.3,545.6,539,543.8,538.9z"/>
	<path class="st16" d="M522.6,537.8l7,1c7.7-40,15.1-80.1,22.2-120.2c0.4-2.4,0.8-5-0.5-7c-2.8-4.3-10-1.3-11.9,3.5
		C535.3,425.8,524.3,538.1,522.6,537.8z"/>
	<path class="st4" d="M659.7,538.9l-7.1,0.3c-3.8-40.6-7.3-81.1-10.6-121.7c-0.2-2.4-0.3-5.1,1.2-7c3.2-4,10.1-0.3,11.5,4.6
		C657.8,426.3,657.9,539,659.7,538.9z"/>
	<path class="st16" d="M680.4,537.8l-7,1c-7.7-40-15.1-80.1-22.2-120.2c-0.4-2.4-0.8-5,0.5-7c2.8-4.3,10-1.3,11.9,3.5
		C667.7,425.8,678.7,538.1,680.4,537.8z"/>
	<path class="st17" d="M651.8,420.9c3.5-0.4,7-1.1,10.3-2c6.1-1.7,11.8-5.3,15.1-10.6c5.6-8.9,3.7-19.5,4.1-29.3
		c0.5-12.3,1-24.6,1.5-37c1.3-30.6,4.3-61.7,3.1-92.3c0-0.7-0.1-1.5-0.4-2.2c-1-2-4.1-2.1-5.8-0.7s-2.5,3.7-3.1,5.9
		c-10.7,37.7-14,77.1-25,114.9c-1.4,4.9-3,10-6.7,13.5c-3.3,3.2-7.9,4.8-12.3,6.1c-35.5,10.8-72.3,10.6-107.2,22.5
		c-2.2,0.6-4.2,1.7-5.8,3.2c-1.5,1.7-2.1,4.4-0.7,6.1s3.9,1.9,6.1,1.9c28.3,0.2,56.6,0.1,84.8,0C623,421.1,638.1,422.5,651.8,420.9z
		"/>
	<path class="st8" d="M239.9,201.4l-1,0.2c-1.3,0.2-2.9,0.4-3.9-0.6s-1-3.1-1-4.5l0.5-11.1c0-0.7,0.1-1.4,0.3-2.1
		c0.3-0.6,0.8-0.9,1.1-0.4c0.2,0.3,0.3,0.6,0.3,1c0.4,2.1,0.7,4.3,1.3,6.4c0.6,1.9,1.5,3.6,2.6,5.2l2,3.2c0.3,0.4,0.4,0.8,0.4,1.2
		c-0.1,0.4-0.4,0.8-0.8,1c-0.4,0.2-0.8,0.3-1.3,0.4L239.9,201.4z"/>
	<path class="st9" d="M321,529.5c-2.5-1.7-5.2-2.9-8.1-3.7c-9.5-2.9-18.8-5.7-28-9.5c-1-0.2-1.6-1.1-1.4-2c0-0.1,0.1-0.3,0.1-0.4
		c0.1-0.5,0.4-2.2,0.8-4.5c0.6-0.2,0.9-0.4,0.9-0.6c0.5-3.2,7.3-45.2,7.7-45.2c-9.1-1.7-18.3-2.3-27.5-1.8c-1.2-0.1-2.3,0.3-3.3,1
		c-0.7,0.7-1.1,1.7-1.3,2.6c-4.9,18.4-0.7,38-5.5,56.7c-1.2,4.8-1.9,9.4-0.1,15.5c6.7,1.1,13.5,0.5,20.2,0.8
		c7.2,0.4,14.4,0.5,21.6,0.7c8.9,0.3,17.9-0.2,26.8-0.6c0.2,0,0.4,0,0.5-0.2c0.1-0.1,0.1-0.3,0.1-0.5
		C324.6,534.3,324.1,531.9,321,529.5z"/>
	<path class="st8" d="M288.4,490c1.8-11,3.9-23.2,4.5-25.9c-10.2-0.7-20.5-1.1-30.9-1.2c-0.5,0.7-0.9,1.5-1.1,2.4
		c-2.5,9.4-2.6,19.2-2.8,29C268.2,493.2,278.3,491.7,288.4,490z"/>
	<path class="st18" d="M303.8,421.3c2-17.7,2.3-31.7-15.4-40.5c-4.3-2.1-8.8-3.9-13.3-5.5c-18.1-6.6-37-10.4-55.7-14.8
		c-10.7-2.5-20-4.6-31.3-4.9c-3.2-0.1-34.9-0.1-35,0.9c-1,20.4,5,44,27,50.9c8.3,2.6,17,2.1,25.6,2.9l29.4,2.7
		c10.1,0.9,20.2,2.7,30,5.3c-0.2,2.4-0.7,4.8-1.5,7.1c-2.9,9.2-3.2,18.7-5,28.1c-2,10.4-4,20.5-4.4,31c0,0.8,14.5,1.2,15.5,1.2
		c8.6,0.4,20.5,1.1,29.1,0.9C298.3,486.9,302,437,303.8,421.3z"/>
	<path class="st19" d="M321,529.5c-2.5-1.7-5.2-2.9-8.1-3.7c-9.5-2.9-18.8-5.7-28-9.5c-1-0.2-1.6-1.1-1.4-2c0-0.1,0.1-0.3,0.1-0.4
		c0.1-0.5,0.4-2.2,0.8-4.5c0.6-0.2,0.9-0.4,0.9-0.6l0.2-1.2c-1.1-0.3-2.2-0.5-3.4-0.5c-2.9,0.1-6,2.1-6.1,5c0,0.9,0.2,1.9,0.2,2.8
		c-0.1,2.9-3.3,4.9-6.2,4.9s-5.6-1.5-8.1-2.9c-1.6-0.9-3.2-1.6-4.9-2.2c-0.4,2.5-1,5-1.6,7.5c-1.2,4.8-1.9,9.4-0.1,15.5
		c6.7,1.1,13.5,0.5,20.2,0.8c7.2,0.4,14.4,0.5,21.6,0.7c8.9,0.3,17.9-0.2,26.8-0.6c0.2,0,0.4,0,0.5-0.2c0.1-0.1,0.1-0.3,0.1-0.5
		C324.6,534.3,324.1,531.9,321,529.5z"/>
	<path class="st10" d="M219.4,360.5c-10.7-2.5-20-4.6-31.3-4.9c-3.2-0.1-34.9-0.1-35,0.9c-0.4,7.7,0.3,15.5,2.2,23
		c23.2-3.1,47-6.9,67-18.4L219.4,360.5z"/>
	<path class="st15" d="M321,529.5c-2.5-1.7-5.2-2.9-8.1-3.7l-1.3-0.4c-1.6,2.3-2.2,5.1-1.8,7.8c-18.4,1.1-36.8,1.3-55.2,0.6
		c0.2,1.3,0.5,2.6,0.9,3.8c6.7,1.1,13.5,0.5,20.2,0.8c7.2,0.4,14.4,0.5,21.6,0.7c8.9,0.3,17.9-0.2,26.8-0.6c0.2,0,0.4,0,0.5-0.2
		c0.1-0.1,0.1-0.3,0.1-0.5C324.6,534.3,324.1,531.9,321,529.5z"/>
	<path class="st10" d="M168.2,357.3c-0.7,16.5,9.2,31.5,24.6,37.3c6.2,2.4,12.8,3.7,19.2,5.2l41.4,9.8l10.2,2.4
		c1.7,0.4,3.4,0.8,5,1.2c1.5,0.4,3.1,0.8,3.5,2.5c0.2,1.6,0.2,3.2,0,4.8L272,426l-0.4,10.5c-0.7,16-1.3,31.9-1.9,47.9
		c0,1.3,2,1.3,2,0c0.6-14.2,1.1-28.4,1.7-42.6l0.8-21.2c0.1-2.7,0.7-6-1.7-7.9c-1-0.7-2.2-1.2-3.4-1.4c-1.8-0.4-3.6-0.9-5.4-1.3
		l-41.4-9.8c-6.7-1.6-13.5-3.1-20.2-4.8c-5.9-1.5-11.8-3.4-16.9-7c-9.9-7.2-15.6-18.8-15.1-31C170.3,356,168.3,356,168.2,357.3
		L168.2,357.3z"/>
	<path class="st8" d="M196,198.2c8.3,3.9,14.3,11.9,19.8,19.5c0.9,1.3,1.9,2.7,1.8,4.2c-2.9,0-5.9,0-8.2,1.7s-3.1,4.6-3.6,7.4
		c-1,5.4-1.3,10.9-1,16.4c0.2,3.1,0.4,6.2,0.7,9.3c0.1,1,0.1,8.3,0.8,8.6c-6.4-3.2-13.4-5.9-19.5-9.7c-1-0.6-13.9-10-14-9.6
		c2.8-8.6,4.7-17.4,5.9-26.3c0.6-3.9,0.6-7.6,1.5-11.5c0.9-4.5,1.6-9.1,2.1-13.6c3.2,1.1,6.7,1.3,9.9,2.2
		C193.5,197.2,194.8,197.6,196,198.2z"/>
	<path class="st9" d="M199.1,211c-1.4-2.1-2.4-4.4-2.9-6.9c-0.1-1.2-0.6-2.4-1.4-3.3c-0.7-0.5-1.5-0.8-2.3-0.9
		c-9.8-2.7-15.7-12.4-15.7-22.2c0-6.9,2-14,6.8-19.1c10.1-10.7,28.6-11.2,41.7-6.8c4.2,1.3,7.8,4.1,10,7.8c1.8,3.2,2.1,7.1,2.3,10.8
		c0.3,6.3,0,12.5-0.7,18.8c-1.1,9.1-1.9,17.5-4.5,26.4c-0.3,1.6-1,3-1.9,4.3c-2.2,2.6-6,2.8-9.4,2.8
		C211.4,222.7,204.6,219.2,199.1,211z"/>
	<path class="st4" d="M225.4,185.6c0.8,0,1.5-0.7,1.5-1.5s-0.7-1.5-1.5-1.5l0,0c-0.8,0-1.5,0.7-1.5,1.5S224.5,185.6,225.4,185.6z"/>
	<path class="st4" d="M226.4,170.4c1.8-0.5,3.8-0.2,5.4,0.8c1.3,1,1.9,2.5,1.6,4.1c-3.9-1.1-8.1-0.8-11.8,1
		c-0.9,0.4-2.1,0.9-2.7,0.2s0-1.8,0.7-2.5C221.5,172.3,223.8,171,226.4,170.4z"/>
	<path class="st9" d="M215.8,260.8c5.3,7.5,9.5,16.2,14.3,23.6c2.6,4,5.3,8.2,6,13c1.9,13-11.1,19.7-13.2,31.7
		c-0.3,2.5-0.4,5-0.2,7.5c0.5,9.3,1.4,18.5,2.8,27.7c-11.6,2.8-23.7,2.5-35.6,1.2c-3.1-0.3-36.5-6.4-35.9-8.7
		c2.3-9,5.9-17.5,6.6-26.7c0.7-10-0.1-20.1-2.2-29.9c-1.2-5.2-2.6-10.4-3.1-15.8c-0.9-9.9,1.4-20.2,4.5-29.6
		c0.7-2.1,11.4-20.8,12.9-19.2c6.4,6.9,14.8,6.7,23.3,9.3S210.7,253.6,215.8,260.8z"/>
	<path class="st8" d="M176.9,293c1.4,7.3,3.3,15.4,9.5,19.6c6.6,4.5,16.4,2.5,21.8-3.6s6.5-15,4.3-22.7s-7.2-14.4-13-20
		c-3.4-3.2-7.3-6.3-11.9-7.2C169.9,255.6,175.1,283.7,176.9,293z"/>
	<path class="st20" d="M325.3,262.5c-2.4,0-12.3-0.3-17.3-5.1c-1.9-1.8-3-4.3-2.9-6.9c-0.2-2.6,1-5.2,3.1-6.8
		c5.2-3.9,15.1-1.1,15.6-0.9l-0.9,3.2c-2.4-0.7-9.4-2-12.6,0.4c-1.2,1-1.9,2.5-1.8,4.1c0,1.7,0.7,3.4,1.9,4.5
		c4.5,4.4,15.3,4.2,15.4,4.2l0.1,3.4H325.3z"/>
	<path class="st20" d="M352.8,237.9H317c0,0-1.8,15.3,5.1,25.4c2,2.8,5.2,4.4,8.6,4.4h8.4c3.4,0,6.6-1.6,8.6-4.4
		C354.6,253.2,352.8,237.9,352.8,237.9z"/>
	<path class="st19" d="M163.5,300.4c-1.1-8.3-1-16.8,0.3-25.1c0.6-4.2,1.5-8.3,2.7-12.4c1.1-3.7,2.2-7.5,5.1-10.3
		c4.9-4.7,12.3-5.3,18.6-3.6s11.9,5.7,16.7,10.1c5.4,5,10,10.7,14.7,16.3c0.8,1,2.2-0.4,1.4-1.4c-8.6-10.2-17.6-22.2-30.9-26.6
		c-6.4-2.1-13.8-2-19.6,1.9c-3,2.1-5.2,5-6.4,8.5c-1.5,4.2-2.6,8.5-3.4,12.8c-1.9,9.8-2.3,19.8-1.1,29.7
		C161.7,301.6,163.7,301.6,163.5,300.4z"/>
	<path class="st19" d="M236.1,297.4c-0.7-4.8-3.4-9-6-13c-3.7-5.7-7-12.2-10.8-18.2c-6.1,5.1-12.6,9.8-19.5,13.9
		c-9.1,5.4-21.4,12.6-30.3,2.8c-2.6-2.9-4.1-6.7-5.4-10.4l-6.9,13.5c-0.3,0.4-0.4,0.9-0.6,1.4c-0.1,0.6,0,1.2,0.1,1.8
		c4.7,22.3,1.6,53.2-8.6,73.8c11.6,5.5,26.8,5.6,39.4,5.4c3.5,0,42.7-4,42.1-6.2c-2.7-10.5-8.2-28.1-4.9-38.7
		C227.6,313.7,237.7,308.6,236.1,297.4z"/>
	<path class="st4" d="M229.6,166.9c-6.9,6-14.7,10.9-23.2,14.4c-8.6,3.7-13,7.2-12.7,17.8c0.4,13.4,8,25.4,15,36.9
		c9.1,14.9,19.8,32.7,16.2,51.2c1.5-7.9-13.7-22.5-18.1-28.3c-2.4-3.1-4.9-6.3-8.2-8.5c-6.4-4.1-14.7-3.9-20.9,0.5
		c-7.6,5.6-10.9,16-11.7,25c-0.7,7.3-0.8,14.8-3.8,21.5c-0.4,1-1,2-1.8,2.8c-4.9,4.9-14.2-2.3-17.6-5.9c-4.3-4.7-7.4-10.4-8.8-16.6
		c-2.3-10-0.7-20.5,4.6-29.3c1.9-3.2,4.2-6,6.4-9c9.1-12.8,14.8-27.6,16.6-43.2c1.6-14.5,0.1-30.7,9.1-42.2
		c7.9-10.1,21.9-13.4,34.7-12.7c9.2,0.5,18.6,3,25.9,8.7c2.2,1.8,4.3,4,5,6.8C237.2,161.6,232.6,164.2,229.6,166.9z"/>
	<path class="st9" d="M196.2,202.1c8.9-2.1,1.4-15.6-1.7-20c-1.4-2-3.4-3.9-5.8-3.9c-5.7,0.1-5,9.3-4.4,13c0.6,4.2,3.1,8.3,7,10.2
		C192.9,202.2,194.6,202.4,196.2,202.1z"/>
	<path class="st21" d="M222.8,297.7c-4.6-5.6-11.1-14.7-18.1-20.8c-1.6,1-3.3,2.1-4.9,3.1c-6.7,4-15.2,9-22.8,7.3
		c-0.1,1.1-0.2,2.2-0.1,3.3c1,14.5,14.5,22.2,25.1,29.7l11.8,8.4c3.1,2.3,6.4,4.3,9.9,6c-0.4-3.8-0.1-7.7,0.9-11.4
		c1.6-5.2,5.4-9.1,8.2-13.5L222.8,297.7z"/>
	<path class="st8" d="M189,186.8C188.9,186.9,189.1,186.9,189,186.8c0.2,0.1,0.4,0.2,0.6,0.3c0.3,0.3,0.7,0.6,0.9,1
		c0.6,0.7,1.2,1.5,1.7,2.4c1,1.7,1.8,3.6,2.4,5.5c0.4,1.2,2.3,0.7,1.9-0.5c-0.7-2.4-1.7-4.7-3.1-6.8c-1.1-1.7-3.4-5.2-5.8-3.3
		c-0.4,0.4-0.4,1,0,1.4C188,187.2,188.6,187.2,189,186.8C189,186.8,189,186.8,189,186.8L189,186.8z"/>
	<path class="st9" d="M268.3,312.6c-2.7,5.9-6.4,11.3-11,16c-1.3,1.5-3,2.7-4.9,3.4c-5.9,1.9-15.8-4.6-20.8-7.4
		c-7-4.1-13.6-8.8-19.9-13.9c-6.6-3.3-12.1-10.2-17.9-14.6c-5.6-4.3-8.6-8.6-12.6-14.7c-2.8-4.3-5.6-8.8-5.9-13.9
		c-0.4-8,5.7-14.9,13.8-15.3c2-0.1,4,0.2,5.9,0.9c10.8,4,19.4,12.4,27.4,20.4c4.1,4.1,7.8,8.6,12,12.5c1.8,1.6,9.6,9.8,11.7,9.6
		c0.6-0.2,1.2-0.5,1.5-1.1c3.4-4.1,7-8,10.5-12.2c5.4-6.3,10.5-12.8,15.9-19.1c2.2-2.4,4.2-5,5.8-7.8c1.6-2.9,2.6-6.2,4.5-8.9
		c5.8-8.4,14.3-6.2,22.7-5c6.2,0.9,12.4,3.7,18.5,5.6c1.2,0.4,2.6,0.9,3.2,2c1,1.8-1.2,4.3-3.1,3.6c1,3.3-0.9,6.7-4.2,7.7
		c-0.2,0-0.3,0.1-0.5,0.1c0.5,2.1-0.5,4.3-2.5,5.2c-1.4,0.6-3.1,0.5-4.3,1.4c-0.5,0.5-1,1-1.5,1.5c-1.3,1.2-3.1,1.5-4.8,1.8
		c-5.3,0.9-10.3,0.9-15.6,1.4c-0.5,0-0.9,0.1-1.4,0.3c-0.4,0.3-0.8,0.7-1,1.2c-7.1,12.5-15.5,25-21.3,38.1L268.3,312.6z"/>
	<path class="st8" d="M216.8,199.6c0.3,2.8,3.1,4.4,5.3,5.7c2.6,1.4,5.6,2.4,8.5,1.3c1.2-0.4,0.7-2.4-0.5-1.9
		c-2.3,0.7-4.8,0.3-6.8-1c-1-0.5-2-1.2-2.9-1.9c-0.8-0.5-1.4-1.3-1.6-2.2c0-0.6-0.4-1-1-1S216.8,199,216.8,199.6L216.8,199.6z"/>
	<path class="st4" d="M256.1,538.9l-7.1,0.3c-3.8-40.6-7.3-81.1-10.6-121.7c-0.2-2.4-0.3-5.1,1.2-7c3.2-4,10.1-0.3,11.5,4.6
		C254.2,426.3,254.4,539,256.1,538.9z"/>
	<path class="st16" d="M277.4,537.8l-7,1c-7.7-40-15.1-80.1-22.2-120.2c-0.4-2.4-0.8-5,0.5-7c2.8-4.3,10-1.3,11.9,3.5
		C264.7,425.8,275.7,538.1,277.4,537.8z"/>
	<path class="st4" d="M140.3,538.9l7.1,0.3c3.8-40.6,7.3-81.1,10.6-121.7c0.2-2.4,0.3-5.1-1.2-7c-3.2-4-10.1-0.3-11.5,4.6
		C142.2,426.3,142.1,539,140.3,538.9z"/>
	<path class="st16" d="M119.6,537.8l7,1c7.7-40,15.1-80.1,22.2-120.2c0.4-2.4,0.8-5-0.5-7c-2.8-4.3-10.1-1.3-11.9,3.5
		C132.3,425.8,121.3,538.1,119.6,537.8z"/>
	<path class="st17" d="M148.2,420.9c-3.5-0.4-6.9-1.1-10.3-2c-6.1-1.7-11.8-5.3-15.1-10.6c-5.6-8.9-3.7-19.5-4.1-29.3
		c-0.4-12.3-1-24.6-1.6-37c-1.3-30.6-4.3-61.7-3.1-92.3c0-0.7,0.1-1.5,0.4-2.2c1-2,4.1-2.1,5.8-0.7s2.5,3.7,3.1,5.9
		c10.7,37.7,14,77.1,25,114.9c1.4,4.9,3,10,6.7,13.5c3.3,3.2,7.9,4.8,12.3,6.1c35.5,10.8,72.3,10.6,107.2,22.5
		c2.2,0.6,4.2,1.7,5.8,3.2c1.5,1.7,2.1,4.4,0.7,6.1s-3.9,1.9-6.1,1.9c-28.3,0.2-56.6,0.1-84.8,0C177,421.1,161.9,422.5,148.2,420.9z
		"/>
	<rect x="396.6" y="104.8" class="st15" width="6.8" height="235.5"/>
	<path class="st4" d="M534.9,343.5l11,75l11,75l6.1,42.3c0.3,1.1-0.4,2.2-1.4,2.5c-1.1,0.3-2.2-0.3-2.5-1.4l-11-75l-11-75l-6.1-42.3
		c-0.3-1.1,0.4-2.2,1.4-2.5C533.5,341.8,534.6,342.5,534.9,343.5L534.9,343.5z"/>
	<path class="st4" d="M269,344.6l-11,75l-11,75l-6.2,42.3c-0.3,1.1-1.4,1.7-2.4,1.4c0,0-0.1,0-0.1,0c-1.1-0.3-1.7-1.4-1.4-2.5l11-75
		l11-75l6.2-42.3c0.3-1.1,1.4-1.7,2.5-1.4C268.6,342.4,269.3,343.5,269,344.6L269,344.6z"/>
	<rect x="243.6" y="330.9" class="st16" width="312.9" height="18.7"/>
	<path class="st20" d="M334.9,324.2h-30.2c5,4.2,11.3,6.6,17.8,6.7h24.9c6.5-0.1,12.8-2.5,17.8-6.7H334.9z"/>
</g>
</svg>
