<svg xmlns="http://www.w3.org/2000/svg" xmlns:xlink="http://www.w3.org/1999/xlink" viewBox="0 0 800 600"><defs><style>.cls-1{fill:none;}.cls-2{fill:#fff;}.cls-3{fill:#deecf8;}.cls-4{clip-path:url(#clip-path);}.cls-5{fill:#c7ddf2;}.cls-6{fill:#140c15;}.cls-7{fill:#c5def3;}.cls-8{fill:#754c29;}.cls-9{fill:#a97c50;}.cls-10{fill:#efa294;}.cls-11{fill:#f6d1ba;}.cls-12{fill:#bc9264;}.cls-13{fill:#a37342;}.cls-14{fill:#141e39;}.cls-15{fill:#0e1527;}.cls-16{fill:#203154;}.cls-17{fill:#f4c06b;}.cls-18{fill:#c2b59b;}.cls-19{fill:#dfbc92;}.cls-20{fill:#dc5967;}.cls-21{fill:#fbb040;}.cls-22{fill:#c13f51;}</style><clipPath id="clip-path"><path class="cls-1" d="M531.57,102.94c-36.74-2.57-75.71-.47-110.27-13.77-19.13-7.36-36.82-18.3-56-25.53-63.9-24.08-158.94-2.36-189,65.18-13.55,30.47-15.05,65.28-27.25,96.35-11.89,30.32-33.44,55.81-45.64,86C91,341.92,88.91,376.24,92.35,409.35c1.27,12.26,3.31,24.56,8,35.93,15.32,37.46,55.29,57.41,93.53,68,77,21.32,158,17.84,237.77,18.81,43.66.52,87.66,2.41,130.69-5.2s85.79-25.75,114.87-59.15,41.7-83.93,23.47-124.62c-11.81-26.36-35-46.76-43.11-74.55,0-8.69-4.8-19.51-5.89-28.37-1.59-12.88-3-25.79-4.55-38.68-1.77-15.09-3.63-30.49-10-44.2-16.17-34.62-56.65-49.48-93.88-53.38C539.34,103.54,535.47,103.22,531.57,102.94Z"/></clipPath></defs><g id="background"><rect class="cls-2" width="800" height="600"/><path class="cls-3" d="M531.57,102.94c-36.74-2.57-75.71-.47-110.27-13.77-19.13-7.36-36.82-18.3-56-25.53-63.9-24.08-158.94-2.36-189,65.18-13.55,30.47-15.05,65.28-27.25,96.35-11.89,30.32-33.44,55.81-45.64,86C91,341.92,88.91,376.24,92.35,409.35c1.27,12.26,3.31,24.56,8,35.93,15.32,37.46,55.29,57.41,93.53,68,77,21.32,158,17.84,237.77,18.81,43.66.52,87.66,2.41,130.69-5.2s85.79-25.75,114.87-59.15,41.7-83.93,23.47-124.62c-11.81-26.36-35-46.76-43.11-74.55,0-8.69-4.8-19.51-5.89-28.37-1.59-12.88-3-25.79-4.55-38.68-1.77-15.09-3.63-30.49-10-44.2-16.17-34.62-56.65-49.48-93.88-53.38C539.34,103.54,535.47,103.22,531.57,102.94Z"/><g class="cls-4"><rect class="cls-5" x="208.66" y="49.9" width="382.69" height="432.57"/><rect class="cls-3" x="218.66" y="59.9" width="362.69" height="412.57"/></g><ellipse class="cls-5" cx="400" cy="539.27" rx="295.57" ry="6.59"/></g><g id="illustration"><path class="cls-6" d="M498.43,343.18l3.67,75.72,3.67,75.72,2.07,42.68c.13,2.63-3.95,2.62-4.07,0l-3.68-75.72-3.67-75.71-2.07-42.69c-.12-2.62,3.95-2.62,4.08,0Z"/><path class="cls-6" d="M265.07,343.55l-11,75-11,75L237,535.85a2.11,2.11,0,0,0,1.42,2.51,2.06,2.06,0,0,0,2.51-1.42l11-75,11-75L269,344.63a2.11,2.11,0,0,0-1.43-2.51,2.06,2.06,0,0,0-2.51,1.43Z"/><path class="cls-6" d="M301.57,343.18,297.9,418.9l-3.67,75.72-2.07,42.68c-.13,2.63,3.95,2.62,4.07,0l3.68-75.72,3.67-75.71,2.07-42.69c.12-2.62-3.95-2.62-4.08,0Z"/><path class="cls-7" d="M444.73,303.12a176.38,176.38,0,0,1,5.13,23.93h15.91a177.24,177.24,0,0,1,5.12-23.93Z"/><path class="cls-7" d="M465.31,321.4c-.73,0-1.21,0-1.29,0l.15-2.48c.08,0,8.28.45,11.68-2.76a4.23,4.23,0,0,0,1.37-3.22,2.47,2.47,0,0,0-1-2.34c-2.59-1.72-9.43.54-11.62,1.46l-1-2.29c1-.41,9.79-4,14-1.24a5,5,0,0,1,2.13,4.41,6.67,6.67,0,0,1-2.16,5C474.26,321,468,321.4,465.31,321.4Z"/><path class="cls-8" d="M446.39,309.28a169.16,169.16,0,0,1,3.47,17.77h15.91a169.16,169.16,0,0,1,3.47-17.77Z"/><path class="cls-9" d="M447.24,312.83c.94,4.12,1.94,9.13,2.62,14.22h15.91c.68-5.09,1.68-10.1,2.62-14.22Z"/><path class="cls-7" d="M457.81,324.19H427.58a28.15,28.15,0,0,0,17.81,6.71h24.85a28.15,28.15,0,0,0,17.81-6.71Z"/><path class="cls-10" d="M568.93,198.7a117.7,117.7,0,0,0-2.22-13.42c-.11-.46-.42-1-1-.94s-.53.45-.61.77c-1,4-1.87,8.34-5.28,11.16-1,.85-2.51,1.25-3.32,2.27a1.63,1.63,0,0,0,.06,2.28,3.15,3.15,0,0,0,1.21.53c3.24.92,5.81,1.77,9.21.67a3.39,3.39,0,0,0,1.27-.69A3.12,3.12,0,0,0,568.93,198.7Z"/><path class="cls-11" d="M606.26,201.52c-3.45,1.52-6.88,3.09-10.28,4.74a3.53,3.53,0,0,0-2.36,4.63,328.47,328.47,0,0,1,1.45,55.3c6.91-2.06,14.86-6.5,21-10.24,1-.62,13.88-10,14-9.59-5-15.78-6.19-32.13-9.62-48.21a2.29,2.29,0,0,0-.67-1.41,2.26,2.26,0,0,0-2.15.08Q611.93,199.06,606.26,201.52Z"/><path class="cls-10" d="M596,206.26a3.53,3.53,0,0,0-2.36,4.63,328.15,328.15,0,0,1,2,33.6,16.66,16.66,0,0,0,5.26-4.48c2.8-3.59,4.29-8,5.49-12.43a123.25,123.25,0,0,0,4.18-27.26l-.63-.34-3.64,1.54C602.81,203,599.38,204.61,596,206.26Z"/><path class="cls-11" d="M547.16,522c-.27-1.44-.63-2.87-1-4.27-1.3-5.11-1.29-9.14-1.13-14.38.05-1.84,0-21.5-1.13-21.51a131,131,0,0,0-30.62,3.6c-.65.16,4.49,26.33,4.84,28.54a1.77,1.77,0,0,1-1.35,2.42c-9.23,3.78-18.45,6.54-28,9.46a25.22,25.22,0,0,0-8.1,3.68c-3.12,2.41-3.61,4.8-3.63,8.44a.71.71,0,0,0,.12.48.63.63,0,0,0,.5.16c8.9.4,17.9.84,26.77.57,7.2-.21,14.4-.27,21.59-.66,6.77-.37,13.51.28,20.24-.85A34.39,34.39,0,0,0,547.16,522Z"/><path class="cls-6" d="M514.1,526.24c1.12-2.25,3-4.11,3.86-6.47a6,6,0,0,0-.07-4.11,2.71,2.71,0,0,1-1.11.69c-9.23,3.78-18.45,6.54-28,9.46a25.22,25.22,0,0,0-8.1,3.68c-3.12,2.41-3.61,4.8-3.63,8.44a.71.71,0,0,0,.12.48.63.63,0,0,0,.5.16c8.9.4,17.9.84,26.77.57,7.2-.21,14.4-.27,21.59-.66,6.77-.37,13.51.28,20.24-.85a34.26,34.26,0,0,0,1.27-12.57c-1.07.06-2.14.24-3.2.4A118.3,118.3,0,0,1,514.1,526.24Z"/><path class="cls-10" d="M543.91,481.79a131,131,0,0,0-30.62,3.6c-.65.16,4.49,26.33,4.84,28.54,0,.19,0,.39.07.59q13.72,1.17,27.53,1.22A51.6,51.6,0,0,1,545,503.3C545.09,501.46,545,481.8,543.91,481.79Z"/><path class="cls-12" d="M513.23,380.74c-4.76,2.18-9.61,4.63-12.88,8.71-5.48,6.88-5.21,16.57-4.48,25.34,2.68,32,10.21,63.41,16.15,95,.6,3.16,32.89-.32,35.73-.87.94-29-1.89-57.94-.94-87.07.3-9.24,13.12-8.13,19.81-8.75l38.86-3.6c11.37-1.05,21.93-1.13,30.88-9.23,11.6-10.5,13-28.06,12.21-43.69-.05-1.05-31.75-1-35-.93-11.37.24-20.6,2.34-31.34,4.87C558.43,366.09,535.73,370.47,513.23,380.74Z"/><path class="cls-13" d="M618.48,357.33c-3.11,13.7-17.39,19.6-29.49,23.11-13.77,4-28,6.24-41.8,10-3.37.91-6.71,1.91-10,3.05a71.43,71.43,0,0,0-9.67,3.87,10.55,10.55,0,0,0-5.46,6.17c-.95,2.93-.77,6.12-.6,9.15.83,14.52,2.15,29,3.53,43.47,1.55,16.29,3.09,32.58,4,48.91.07,1.28,2.07,1.29,2,0-1.66-28.9-5.3-57.64-7.2-86.52a103.72,103.72,0,0,1-.47-10.43c.12-3.23,1-6.33,3.79-8.22s6.18-2.91,9.3-4c3.43-1.22,6.91-2.29,10.42-3.26,13.67-3.78,27.71-6,41.36-9.86,13.17-3.71,28.82-9.95,32.21-24.87.28-1.26-1.65-1.79-1.93-.54Z"/><path class="cls-13" d="M648.57,356.56c-.05-1.05-31.75-1-35-.93-11.37.24-20.6,2.34-31.34,4.87-5.8,1.36-11.53,2.65-17.21,4,3.3,1.72,7.25,2.19,10.54,4.07A84.32,84.32,0,0,1,587.14,377c7.38,6.07,14.49,12.81,23.45,16.51,6.62,2.72,13.84,3.59,20.95,4.43,2.17.26,4.35.51,6.54.65C648.08,387.91,649.29,371.37,648.57,356.56Z"/><path class="cls-14" d="M586.33,261.09A77.53,77.53,0,0,0,578.61,282q-4,21.71-6.63,43.62c-1.52,12.81.08,28.17-6.29,39.41,4.81-1.54,10.1.4,14.23,3.3s7.55,6.72,11.67,9.65c11.08,7.88,25.63,8.31,39.23,8.46,7.33.08,15.09.05,21.38-3.71,2-1.2-.19-27.24-.13-30.72.13-7.88-2.32-15-2.15-22.93q.41-18.66-.34-37.31c-.83-20.78-3.72-43.63-19.14-57.58-6.41,6.91-16.12,8.13-24.68,10.74C595.36,248.1,591.32,251.64,586.33,261.09Z"/><path class="cls-15" d="M637.06,273.61c-5,6.39-9.77,13.11-15.08,19.22-2.48,2.86-18.69,14.86-18.69,17.59-9.23,7.21-19.85,13-31.31,15.24-1.16,9.82-.51,21.14-3,30.95,6.91.41,13.86.29,20.79.15,4.79-.1,9.68-.21,14.21-1.79,8.31-2.89,14.21-10.27,18.71-17.83C633.75,318.55,640.36,295.2,637.06,273.61Z"/><path class="cls-11" d="M545.12,339.3c15.37,3.44,38.82,8.26,52.57-2.06a47.13,47.13,0,0,0,8-8.42c13-16.05,26.44-33.27,29-53.75.46-3.79.51-7.8-1.19-11.21-6.13-12.31-19-.59-24.47,5.52a227.64,227.64,0,0,0-17.33,22.3c-2.16,3.15-4.21,6.38-6.6,9.36a106.85,106.85,0,0,1-9.89,10.3,6.83,6.83,0,0,1-2,1.49,6.74,6.74,0,0,1-2.09.4,283.22,283.22,0,0,1-37,.14c-9.46-.47-21.78-.57-29.33-6.92-2.81-2.36-5.48-5.09-8.95-6.28-7.07-2.42-18.43,2.26-24.22,6.54A8.27,8.27,0,0,0,468,313.3a12.16,12.16,0,0,0,2.06,5.52c3.51,6.13,8.16,13,15.21,13.38,4.45.25,8.55-2.27,12.93-3.12,5.74-1.1,11.6.72,17.17,2.51A245.76,245.76,0,0,0,545.12,339.3Z"/><path class="cls-14" d="M578.19,302.75c-.1.16-.21.32-.31.49a16.64,16.64,0,0,1-4.3,5,15.6,15.6,0,0,1-5.92,2c-8.5,1.63-16.68,1.31-25.23,2.29l-3.9,29.25a369.53,369.53,0,0,0,48.84,3.51c13,.06,20.82-9.15,27.61-19.28,10.39-15.49,23.5-34.22,25.73-53,.56-4.77.65-9.74-1.1-14.21-2.93-7.51-10.3-11.19-17.49-7.64C601.22,261.48,590.26,284,578.19,302.75Z"/><path class="cls-15" d="M538.53,341.81q12,1.67,24,2.54-1.08-16.55-3-33c-5.67.48-11.29.56-17.08,1.22Z"/><path class="cls-16" d="M608.08,269.06c0-3.71,10.66-13.52,13.1-16.63,3.92-5,7.64-9.76,11.18-15.06a1.37,1.37,0,0,0,.27-.57,1.52,1.52,0,0,0-.25-.91l-7.64-14.52c.12.22-30,14.82-33,16.46a3.76,3.76,0,0,0-1.26.93,3.67,3.67,0,0,0-.53,2.12c-.22,6.37.45,13.21-2.84,18.67,2-4,5.37-6.3,8.11-9.76,1.38,3.22,2.81,4.65,4.7,7.52C601.36,259.53,608.08,266.74,608.08,269.06Z"/><path class="cls-14" d="M553.36,348.08c.65,0,2.7-34.41,2.48-38.15-.05-.81-15.15-1.45-16.42-1.44s-6,32.85-6.42,35.39a4,4,0,0,0,.13,2.33c.58,1.17,2.09,1.46,3.39,1.59A102.93,102.93,0,0,0,553.36,348.08Z"/><path class="cls-13" d="M510.42,501.45c.54,2.78,1.08,5.55,1.6,8.32.6,3.16,32.89-.32,35.73-.87.1-3.29.16-6.59.18-9.88Q529.23,500.9,510.42,501.45Z"/><path class="cls-11" d="M605.42,211.83c.85-1.24,1.68-2.5,2.47-3.77,1.67-2.68,3.25-5.61,6-7.23s5.25-2.67,7.33-5.39c3.75-4.9,4.69-11.41,4.68-17.42,0-6.91-2-14-6.79-19.06-13.94-14.8-48.56-12.34-53.71,10-1.22,5.27-.75,10.77-.27,16.16,1.08,12.26,1.7,23.85,5.51,35.57.84,2.61,2.23,5.22,4.6,6.61a11.1,11.1,0,0,0,6.76,1.07,28.24,28.24,0,0,0,15.22-7.13A50.46,50.46,0,0,0,605.42,211.83Z"/><path class="cls-6" d="M577.35,185.83a1.5,1.5,0,0,0,0-3,1.5,1.5,0,0,0,0,3Z"/><path class="cls-6" d="M552,156.94a10.23,10.23,0,0,0,.53,1.17c4.16,7.93,19.14,5.08,26.51,5.07a2.24,2.24,0,0,1,1.09.18,2.33,2.33,0,0,1,.82.91l3.06,5a8.83,8.83,0,0,0,1.54,2c3.3,2.93,8.54-.18,10.25,4.86a15.19,15.19,0,0,1,.58,4.25c.29,7.35-.69,14.18-1.1,21.42-.12,2,1,4.57-2.07,4.52-2,0-4-2.25-5.5-3.36A22,22,0,0,0,569,199.55a5.7,5.7,0,0,0-1.43.57c-2.74,1.74-1.29,7-1.21,9.59a141.62,141.62,0,0,0,1.2,14.25,11.32,11.32,0,0,0,1.82,5.53c1.78,2.27,5,2.91,7.88,2.67,5.17-.43,9.86-3.07,14.37-5.65,2.16-1.24,5.23-2.75,6.94-4.6,1.94-2.11,2.14-5.63,2.44-8.34L602.77,197c.38-3.52,1.05-6,4.38-7.33s5.81-.58,7.7,2.59c1.47,2.49,1.35,5.86,2.07,8.61,1.36,5.16,3.93,9.66,6,14.54.4,1,1.11,2.11,2.14,1.95.86-.13,1.29-1.1,1.51-1.94,1.47-5.87.75-12,2.15-17.95,1.66-7,3.81-13.83,4.87-21,1.21-8.15.18-17.7-6.44-22.62-3.31-2.46-7.51-3.35-11.58-4-.21-4.12-3.46-7.51-7.11-9.43-5.45-2.88-11.94-3.26-18-2.26-9,1.47-17,5.34-26.29,3.71-2.75-.48-5.66-1.3-8.24-.25-3.53,1.43-4.91,5.75-4.9,9.56A15.92,15.92,0,0,0,552,156.94Z"/><path class="cls-6" d="M576.76,170.57c-5.2-.32-8.6,8-4.34,6.68,3.57-1.09,6-2.17,9.58-.41.93.46,2.2,1,2.87.18s0-2-.78-2.68A11.86,11.86,0,0,0,576.76,170.57Z"/><path class="cls-11" d="M606.47,202.38c-8.88-2.1-1.44-15.64,1.68-20,1.41-2,3.36-3.93,5.78-3.9,5.71.07,5,9.32,4.43,13-.64,4.24-3.11,8.34-7,10.21A7.44,7.44,0,0,1,606.47,202.38Z"/><path class="cls-2" d="M571.74,212.41a9.66,9.66,0,0,0,12.31-3.82,1,1,0,0,0-1.73-1,7.63,7.63,0,0,1-9.57,3.1,1,1,0,0,0-1.37.36,1,1,0,0,0,.36,1.37Z"/><path class="cls-10" d="M614.44,183.75c-1.82-.61-3.25,1-4.09,2.39-.52.88-1,1.76-1.53,2.64s-1,1.65-1.41,2.52c-.74,1.6-1,3.55.19,5a2.88,2.88,0,0,0,4.26.25c.86-.95-.55-2.37-1.41-1.41-.56.61-1.36,0-1.58-.6-.38-1.14.27-2.32.82-3.29.71-1.25,1.45-2.49,2.17-3.73.37-.63,1.11-2.16,2-1.85,1.23.41,1.75-1.52.54-1.93Z"/><path class="cls-6" d="M543.85,538.94l7.09.33q5.68-60.84,10.57-121.74c.19-2.4.31-5.06-1.2-6.95-3.18-4-10.12-.31-11.49,4.61C545.75,426.27,545.62,539,543.85,538.94Z"/><path class="cls-17" d="M522.59,537.81l7,1q11.49-60,22.19-120.16c.42-2.38.79-5-.52-7-2.78-4.27-10-1.28-11.88,3.49C535.28,425.84,524.34,538.06,522.59,537.81Z"/><path class="cls-6" d="M659.69,538.94l-7.08.33Q646.93,478.43,642,417.53c-.19-2.4-.31-5.06,1.19-6.95,3.18-4,10.13-.31,11.5,4.61C657.8,426.27,657.93,539,659.69,538.94Z"/><path class="cls-17" d="M680.41,537.81l-7,1q-11.49-60-22.19-120.16c-.42-2.38-.79-5,.53-7,2.78-4.27,10-1.28,11.88,3.49C667.72,425.84,678.67,538.06,680.41,537.81Z"/><path class="cls-18" d="M651.8,420.92a68.27,68.27,0,0,0,10.34-2c6.07-1.69,11.79-5.28,15.12-10.64,5.56-8.93,3.73-19.46,4.08-29.33.45-12.33,1-24.64,1.55-37,1.29-30.6,4.3-61.73,3.12-92.3a5.48,5.48,0,0,0-.39-2.16c-1-2-4.06-2.12-5.81-.71s-2.48,3.71-3.09,5.88c-10.67,37.72-14,77.07-25,114.92-1.42,4.87-3,9.95-6.66,13.5-3.31,3.24-7.88,4.79-12.31,6.14-35.46,10.78-72.26,10.57-107.24,22.55a13.4,13.4,0,0,0-5.79,3.22c-1.5,1.66-2.08,4.36-.72,6.13s3.89,1.92,6.11,1.94c28.28.2,56.56.1,84.84,0C623,421.09,638.13,422.54,651.8,420.92Z"/><path class="cls-10" d="M239.91,201.37l-1,.16c-1.26.2-2.94.42-3.9-.6s-1-3.06-1-4.48l.54-11.1a6.22,6.22,0,0,1,.33-2.08c.26-.59.81-.9,1.15-.43a2.7,2.7,0,0,1,.32,1c.44,2.14.7,4.34,1.28,6.45a21,21,0,0,0,2.55,5.24l2,3.16a2.14,2.14,0,0,1,.44,1.22,1.38,1.38,0,0,1-.77,1,4,4,0,0,1-1.27.35Z"/><path class="cls-11" d="M321,529.49a25,25,0,0,0-8.1-3.68c-9.53-2.92-18.75-5.68-28-9.46a1.77,1.77,0,0,1-1.34-2.42c.07-.49.39-2.16.82-4.46.56-.17.9-.38.94-.63.52-3.18,7.32-45.25,7.68-45.18a118,118,0,0,0-27.51-1.8,5.19,5.19,0,0,0-3.27.95,5.32,5.32,0,0,0-1.28,2.64c-4.89,18.36-.69,38-5.47,56.73-1.22,4.79-1.89,9.42-.07,15.45,6.74,1.13,13.48.48,20.24.85,7.19.39,14.4.45,21.59.66,8.88.27,17.88-.17,26.77-.57a.66.66,0,0,0,.51-.16.7.7,0,0,0,.11-.48C324.6,534.29,324.12,531.9,321,529.49Z"/><path class="cls-10" d="M288.39,490.05c1.82-11,3.87-23.25,4.46-25.87Q277.48,463.06,262,463a5.93,5.93,0,0,0-1.09,2.42c-2.51,9.43-2.62,19.2-2.79,29Q273.3,492.53,288.39,490.05Z"/><path class="cls-19" d="M303.81,421.3c2-17.69,2.34-31.73-15.37-40.53a129.61,129.61,0,0,0-13.31-5.47c-18.08-6.58-37-10.41-55.68-14.8-10.74-2.53-20-4.63-31.34-4.87-3.25-.07-34.94-.12-35,.93-1,20.44,5,44,27,50.88,8.27,2.6,17,2.12,25.57,2.91l29.42,2.73a170.74,170.74,0,0,1,30,5.33,25.24,25.24,0,0,1-1.52,7.13c-2.85,9.25-3.22,18.71-5,28.12-1.95,10.37-4,20.45-4.41,31,0,.78,14.47,1.2,15.5,1.25,8.6.39,20.48,1.11,29.11.94C298.31,486.9,302,437,303.81,421.3Z"/><path class="cls-20" d="M321,529.49a25,25,0,0,0-8.1-3.68c-9.53-2.92-18.75-5.68-28-9.46a1.77,1.77,0,0,1-1.34-2.42c.07-.49.39-2.16.82-4.46.56-.17.9-.38.94-.63l.21-1.23a11.83,11.83,0,0,0-3.39-.49c-2.89.07-6,2.07-6.11,5,0,.94.25,1.87.21,2.81-.11,2.9-3.27,4.91-6.17,4.86s-5.56-1.52-8.11-2.9a23.77,23.77,0,0,0-4.91-2.15c-.43,2.5-.95,5-1.58,7.48-1.22,4.79-1.89,9.42-.07,15.45,6.74,1.13,13.48.48,20.24.85,7.19.39,14.4.45,21.59.66,8.88.27,17.88-.17,26.77-.57a.66.66,0,0,0,.51-.16.7.7,0,0,0,.11-.48C324.6,534.29,324.12,531.9,321,529.49Z"/><path class="cls-12" d="M219.45,360.5c-10.74-2.53-20-4.63-31.34-4.87-3.25-.07-34.94-.12-35,.93a75.19,75.19,0,0,0,2.23,23c23.16-3.12,47-6.88,67-18.4Z"/><path class="cls-2" d="M321,529.49a25,25,0,0,0-8.1-3.68l-1.34-.41a10.69,10.69,0,0,0-1.78,7.81,529.77,529.77,0,0,1-55.22.57,27.43,27.43,0,0,0,.85,3.85c6.74,1.13,13.48.48,20.24.85,7.19.39,14.4.45,21.59.66,8.88.27,17.88-.17,26.77-.57a.66.66,0,0,0,.51-.16.7.7,0,0,0,.11-.48C324.6,534.29,324.12,531.9,321,529.49Z"/><path class="cls-12" d="M168.19,357.27a38,38,0,0,0,24.65,37.27c6.18,2.4,12.78,3.69,19.22,5.22l41.35,9.81L263.62,412c1.69.4,3.37.79,5.05,1.2,1.49.37,3.1.81,3.52,2.49a18.09,18.09,0,0,1,0,4.82L272,426l-.41,10.46q-1,23.93-1.91,47.85c-.05,1.28,1.95,1.28,2,0q.85-21.32,1.7-42.62l.84-21.18c.11-2.67.7-6-1.74-7.9a9.06,9.06,0,0,0-3.44-1.38c-1.78-.44-3.57-.85-5.35-1.27l-41.35-9.81c-6.72-1.6-13.46-3.11-20.16-4.81-5.93-1.52-11.84-3.44-16.88-7a36.5,36.5,0,0,1-15.09-31.05c.06-1.29-1.94-1.29-2,0Z"/><path class="cls-10" d="M196,198.22c8.29,3.85,14.34,11.88,19.79,19.48.9,1.26,1.85,2.66,1.76,4.21-2.86,0-5.95,0-8.23,1.74s-3.12,4.61-3.63,7.37a70.58,70.58,0,0,0-1,16.41q.27,4.63.68,9.27c.09,1,.09,8.28.81,8.64-6.43-3.17-13.38-5.94-19.5-9.67-1-.61-13.88-10-14-9.59a150.23,150.23,0,0,0,5.92-26.34c.55-3.94.65-7.57,1.46-11.5.92-4.5,1.64-9.05,2.14-13.62,3.22,1.07,6.67,1.26,9.94,2.16A26.2,26.2,0,0,1,196,198.22Z"/><path class="cls-11" d="M199.12,211a18.7,18.7,0,0,1-2.93-6.86,5.32,5.32,0,0,0-1.41-3.29,5.9,5.9,0,0,0-2.27-.93c-9.78-2.66-15.71-12.41-15.68-22.18,0-6.91,2-14,6.79-19.07,10.1-10.73,28.6-11.21,41.73-6.76a17.57,17.57,0,0,1,10,7.83c1.77,3.25,2.13,7.06,2.29,10.75a117.48,117.48,0,0,1-.69,18.75c-1.07,9.05-1.92,17.48-4.49,26.42a11.77,11.77,0,0,1-1.94,4.34c-2.18,2.6-6,2.79-9.43,2.77C211.43,222.72,204.64,219.22,199.12,211Z"/><path class="cls-6" d="M225.36,185.55a1.5,1.5,0,0,0,0-3,1.5,1.5,0,0,0,0,3Z"/><path class="cls-6" d="M226.37,170.42a6.55,6.55,0,0,1,5.37.83,4.3,4.3,0,0,1,1.62,4.1,16.55,16.55,0,0,0-11.83,1c-.87.43-2.05.91-2.67.16s0-1.81.72-2.48A14.86,14.86,0,0,1,226.37,170.42Z"/><path class="cls-11" d="M215.8,260.77c5.3,7.47,9.48,16.18,14.26,23.57,2.62,4.05,5.3,8.25,6,13C238,310.3,224.91,317,222.84,329a34.09,34.09,0,0,0-.21,7.49q.72,13.92,2.82,27.73c-11.64,2.78-23.68,2.55-35.55,1.22-3.12-.34-36.49-6.41-35.89-8.73,2.29-9,5.94-17.45,6.55-26.67a104.71,104.71,0,0,0-2.25-29.9c-1.16-5.24-2.58-10.43-3.05-15.77-.86-9.85,1.36-20.25,4.46-29.57.71-2.14,11.4-20.78,12.88-19.18,6.42,6.91,14.77,6.67,23.33,9.28S210.71,253.61,215.8,260.77Z"/><path class="cls-10" d="M176.9,293c1.43,7.32,3.34,15.39,9.49,19.61,6.63,4.54,16.44,2.46,21.76-3.57s6.48-15,4.34-22.71-7.19-14.41-13-20c-3.4-3.25-7.31-6.28-11.92-7.21C169.85,255.63,175.09,283.74,176.9,293Z"/><path class="cls-21" d="M325.32,262.46c-2.4,0-12.32-.3-17.3-5.14a9.36,9.36,0,0,1-2.93-6.94,8,8,0,0,1,3.09-6.79c5.2-3.9,15.14-1.06,15.56-.93l-.93,3.21c-2.43-.7-9.42-2-12.62.4a4.74,4.74,0,0,0-1.75,4.11,6.07,6.07,0,0,0,1.91,4.54c4.55,4.43,15.29,4.2,15.39,4.19l.09,3.35Z"/><path class="cls-21" d="M352.84,237.87H317s-1.77,15.34,5.1,25.44a10.35,10.35,0,0,0,8.59,4.4h8.43a10.32,10.32,0,0,0,8.58-4.4C354.61,253.21,352.84,237.87,352.84,237.87Z"/><path class="cls-20" d="M163.53,300.37a91.21,91.21,0,0,1,.28-25.08,101.31,101.31,0,0,1,2.67-12.42c1.05-3.72,2.18-7.54,5.05-10.29,4.91-4.7,12.29-5.33,18.59-3.62s11.9,5.69,16.69,10.14c5.37,5,10,10.7,14.67,16.29.83,1,2.24-.43,1.42-1.41-8.61-10.24-17.65-22.25-30.91-26.55-6.42-2.08-13.84-2-19.59,1.91a17,17,0,0,0-6.42,8.48,80,80,0,0,0-3.39,12.83,93.84,93.84,0,0,0-1.06,29.72c.17,1.26,2.17,1.28,2,0Z"/><path class="cls-20" d="M236.05,297.36c-.69-4.77-3.37-9-6-13-3.68-5.69-7-12.16-10.77-18.25a150.42,150.42,0,0,1-19.51,13.85c-9.06,5.39-21.36,12.6-30.27,2.81-2.65-2.91-4.07-6.7-5.44-10.4l-6.92,13.47a5.19,5.19,0,0,0-.56,1.43,5.09,5.09,0,0,0,.1,1.78c4.7,22.33,1.65,53.21-8.57,73.75,11.56,5.47,26.83,5.56,39.37,5.41,3.53,0,42.71-4,42.12-6.25-2.71-10.48-8.16-28.1-4.92-38.7C227.6,313.73,237.7,308.62,236.05,297.36Z"/><path class="cls-6" d="M229.59,166.94a87.4,87.4,0,0,1-23.18,14.45c-8.55,3.74-13,7.24-12.7,17.79.44,13.42,8,25.43,15,36.87,9.15,14.86,19.77,32.68,16.21,51.19,1.51-7.85-13.71-22.51-18.15-28.28-2.42-3.14-4.93-6.32-8.25-8.5a18.84,18.84,0,0,0-20.89.5C170,256.54,166.77,267,165.92,276c-.68,7.28-.82,14.81-3.78,21.49a8.82,8.82,0,0,1-1.75,2.8c-4.85,4.86-14.21-2.28-17.63-5.93a37,37,0,0,1-8.83-16.61,39.75,39.75,0,0,1,4.57-29.32c1.91-3.16,4.25-6,6.4-9a91.57,91.57,0,0,0,16.55-43.24c1.58-14.52.09-30.66,9.1-42.16,7.91-10.1,21.93-13.45,34.74-12.73,9.24.52,18.65,3,25.9,8.72,2.24,1.77,4.32,4,5,6.78C237.24,161.56,232.64,164.22,229.59,166.94Z"/><path class="cls-11" d="M196.24,202.11c8.88-2.11,1.44-15.65-1.69-20-1.4-2-3.35-3.94-5.77-3.91-5.71.07-5,9.32-4.43,13,.63,4.23,3.11,8.33,7,10.2A7.5,7.5,0,0,0,196.24,202.11Z"/><path class="cls-22" d="M222.8,297.66c-4.64-5.57-11.08-14.71-18.1-20.78-1.62,1.05-3.26,2.08-4.92,3.06-6.71,4-15.19,9-22.75,7.32a16.88,16.88,0,0,0-.1,3.32c1,14.5,14.53,22.22,25.15,29.73l11.83,8.38a52.35,52.35,0,0,0,9.93,5.95,31.63,31.63,0,0,1,.85-11.4c1.6-5.23,5.39-9.14,8.19-13.47Z"/><path class="cls-10" d="M189,186.81c-.08.07.09.06.07.05a1.8,1.8,0,0,1,.48.24,6.57,6.57,0,0,1,.94,1,18.45,18.45,0,0,1,1.66,2.38,24.9,24.9,0,0,1,2.38,5.54c.37,1.23,2.31.71,1.93-.53a26.51,26.51,0,0,0-3.06-6.8c-1.14-1.73-3.42-5.22-5.82-3.32a1,1,0,0,0,0,1.41,1,1,0,0,0,1.42,0Z"/><path class="cls-11" d="M268.28,312.61a56,56,0,0,1-11,16,12.57,12.57,0,0,1-4.9,3.41c-5.87,1.85-15.82-4.62-20.75-7.44a163.37,163.37,0,0,1-19.85-13.92c-6.55-3.28-12.07-10.22-17.88-14.65-5.64-4.3-8.65-8.63-12.57-14.69-2.76-4.27-5.61-8.81-5.87-13.89A14.58,14.58,0,0,1,195.12,253c10.78,4,19.45,12.41,27.41,20.42,4.06,4.08,7.8,8.57,12,12.47,1.76,1.61,9.55,9.79,11.71,9.6a2.45,2.45,0,0,0,1.5-1.08c3.41-4.14,7-8,10.53-12.16,5.37-6.3,10.47-12.83,15.87-19.11a45.86,45.86,0,0,0,5.82-7.78c1.6-2.91,2.57-6.16,4.46-8.88,5.79-8.36,14.28-6.24,22.7-5,6.23.95,12.42,3.67,18.46,5.57,1.25.4,2.61.88,3.22,2,1,1.79-1.18,4.26-3.09,3.56a6.18,6.18,0,0,1-4.63,7.81,4.54,4.54,0,0,1-2.46,5.22c-1.4.61-3.11.49-4.33,1.4a18.21,18.21,0,0,0-1.5,1.54c-1.28,1.2-3.11,1.55-4.83,1.84-5.31.89-10.3.9-15.58,1.37a3,3,0,0,0-1.36.34,3,3,0,0,0-1,1.17c-7.12,12.47-15.47,25-21.3,38.1Z"/><path class="cls-10" d="M216.81,199.57c.26,2.78,3.1,4.42,5.3,5.68,2.56,1.45,5.63,2.35,8.52,1.34,1.21-.43.69-2.36-.53-1.93a8.33,8.33,0,0,1-6.79-1,23.46,23.46,0,0,1-2.87-1.86,3.57,3.57,0,0,1-1.63-2.2,1,1,0,0,0-1-1,1,1,0,0,0-1,1Z"/><path class="cls-6" d="M256.15,538.94l-7.09.33q-5.69-60.84-10.57-121.74c-.19-2.4-.31-5.06,1.2-6.95,3.18-4,10.12-.31,11.49,4.61C254.25,426.27,254.38,539,256.15,538.94Z"/><path class="cls-17" d="M277.41,537.81l-7,1q-11.49-60-22.19-120.16c-.42-2.38-.79-5,.52-7,2.78-4.27,10-1.28,11.88,3.49C264.72,425.84,275.66,538.06,277.41,537.81Z"/><path class="cls-6" d="M140.31,538.94l7.08.33q5.69-60.84,10.57-121.74c.19-2.4.31-5.06-1.19-6.95-3.18-4-10.13-.31-11.5,4.61C142.2,426.27,142.07,539,140.31,538.94Z"/><path class="cls-17" d="M119.59,537.81l7,1q11.49-60,22.19-120.16c.42-2.38.79-5-.53-7-2.78-4.27-10.05-1.28-11.88,3.49C132.28,425.84,121.33,538.06,119.59,537.81Z"/><path class="cls-18" d="M148.2,420.92a68.27,68.27,0,0,1-10.34-2c-6.07-1.69-11.79-5.28-15.12-10.64-5.56-8.93-3.73-19.46-4.08-29.33-.45-12.33-1-24.64-1.55-37-1.29-30.6-4.3-61.73-3.12-92.3a5.48,5.48,0,0,1,.39-2.16c1-2,4.06-2.12,5.81-.71s2.48,3.71,3.09,5.88c10.67,37.72,14,77.07,25,114.92,1.42,4.87,3,9.95,6.66,13.5,3.31,3.24,7.88,4.79,12.31,6.14,35.46,10.78,72.26,10.57,107.24,22.55a13.4,13.4,0,0,1,5.79,3.22c1.5,1.66,2.08,4.36.72,6.13s-3.89,1.92-6.11,1.94c-28.28.2-56.56.1-84.84,0C177,421.09,161.87,422.54,148.2,420.92Z"/><rect class="cls-2" x="396.63" y="104.78" width="6.75" height="235.47"/><path class="cls-6" d="M534.93,343.55l11,75,11,75L563,535.85a2.11,2.11,0,0,1-1.42,2.51,2.06,2.06,0,0,1-2.51-1.42l-11-75-11-75L531,344.63a2.11,2.11,0,0,1,1.43-2.51,2.06,2.06,0,0,1,2.51,1.43Z"/><path class="cls-6" d="M269,344.63l-11,75-11,75-6.18,42.29a2,2,0,0,1-2.51,1.42,2.09,2.09,0,0,1-1.42-2.51l11-75,11-75,6.17-42.28a2.06,2.06,0,0,1,2.51-1.43,2.1,2.1,0,0,1,1.43,2.51Z"/><rect class="cls-17" x="243.57" y="330.9" width="312.87" height="18.69"/><path class="cls-21" d="M334.93,324.19H304.7a28.15,28.15,0,0,0,17.81,6.71h24.85a28.15,28.15,0,0,0,17.81-6.71Z"/></g></svg>