<svg xmlns="http://www.w3.org/2000/svg" xmlns:xlink="http://www.w3.org/1999/xlink" viewBox="0 0 3710 3710"><defs><style>.cls-1{fill:none;}.cls-2{fill:url(#linear-gradient);}.cls-3{isolation:isolate;}.cls-4{fill:#f4f7fa;}.cls-5{fill:url(#linear-gradient-2);}.cls-6{clip-path:url(#clip-path);}.cls-18,.cls-7{mix-blend-mode:soft-light;}.cls-7{opacity:0.5;}.cls-18,.cls-8{fill:#fff;}.cls-9{clip-path:url(#clip-path-2);}.cls-10{fill:url(#linear-gradient-4);}.cls-11{fill:url(#linear-gradient-5);}.cls-12{fill:url(#linear-gradient-6);}.cls-13{fill:url(#linear-gradient-7);}.cls-14{fill:url(#linear-gradient-8);}.cls-15{fill:url(#linear-gradient-9);}.cls-16{fill:#bfc8d6;mix-blend-mode:multiply;opacity:0.3;}.cls-17{fill:url(#linear-gradient-10);}.cls-18{opacity:0.74;}.cls-19{fill:url(#linear-gradient-11);}.cls-20{fill:#d8dee8;}.cls-21{fill:url(#linear-gradient-12);}</style><linearGradient id="linear-gradient" x1="2452.3" y1="1949.87" x2="2213.74" y2="2590.23" gradientUnits="userSpaceOnUse"><stop offset="0" stop-color="#aa80f9"/><stop offset="1" stop-color="#6165d7"/></linearGradient><linearGradient id="linear-gradient-2" x1="5943.81" y1="491.03" x2="6748.45" y2="491.03" gradientTransform="translate(-2274.84 -2506.72) rotate(40.7)" gradientUnits="userSpaceOnUse"><stop offset="0" stop-color="#ff9085"/><stop offset="1" stop-color="#fb6fbb"/></linearGradient><clipPath id="clip-path"><path class="cls-1" d="M1918.09,2566.47c-71.13,18.53-124.95-65-78.22-121.75a597.86,597.86,0,0,0,56.84-82c99-172,47.8-285,136.92-596.39,56.34-196.9,97.65-333.75,216.64-382,93.24-37.84,223-16.75,286.18,56.78,52.51,61.14,65.1,165.69,59,236.44-5,57.65-22.72,95.9,1.66,133.22,24.92,38.14,64.41,30.33,89.2,60.2,50.27,60.59-23.57,199.49-35.51,221.94-132.75,249.71-424.24,366.2-552,415.48A1670.83,1670.83,0,0,1,1918.09,2566.47Z"/></clipPath><clipPath id="clip-path-2"><path class="cls-2" d="M1785,2567.67c108.18,63.36,255,128.65,422.2,145.14,42.67,4.21,306.24,30.22,336.46-79.23,10.64-38.55-16.65-61.35-3.32-113.15,15.79-61.37,64.23-68.64,125.27-121.28,36.41-31.41,143-123.34,110.78-226.84-19.24-61.85-87.17-125-154.82-145.51-99.21-30-178.37,37.77-310.31,154.76-117,103.72-124.13,141.6-209.65,214.82C2038.1,2450.72,1938.5,2518.49,1785,2567.67Z"/></clipPath><linearGradient id="linear-gradient-4" x1="2885.14" y1="1181.52" x2="2526.79" y2="1080.11" gradientUnits="userSpaceOnUse"><stop offset="0" stop-color="#311944"/><stop offset="1" stop-color="#a03976"/></linearGradient><linearGradient id="linear-gradient-5" x1="2884.2" y1="1184.84" x2="2525.85" y2="1083.43" xlink:href="#linear-gradient-4"/><linearGradient id="linear-gradient-6" x1="2517.4" y1="955.06" x2="2523" y2="1407.58" gradientTransform="matrix(1, 0, 0, 1, 0, 0)" xlink:href="#linear-gradient-2"/><linearGradient id="linear-gradient-7" x1="2843.74" y1="971.8" x2="2141.77" y2="773.16" xlink:href="#linear-gradient-4"/><linearGradient id="linear-gradient-8" x1="2841.9" y1="978.3" x2="2139.93" y2="779.66" xlink:href="#linear-gradient-4"/><linearGradient id="linear-gradient-9" x1="2123.37" y1="528.19" x2="2134.35" y2="1414.63" gradientTransform="matrix(1, 0, 0, 1, 0, 0)" xlink:href="#linear-gradient-2"/><linearGradient id="linear-gradient-10" x1="685.96" y1="1804.22" x2="2196.96" y2="1804.22" gradientUnits="userSpaceOnUse"><stop offset="0" stop-color="#e38ddd"/><stop offset="1" stop-color="#9571f6"/></linearGradient><linearGradient id="linear-gradient-11" x1="1449.49" y1="860.42" x2="1320.44" y2="2026.87" gradientUnits="userSpaceOnUse"><stop offset="0" stop-color="#40447e"/><stop offset="1" stop-color="#3c3b6b"/></linearGradient><linearGradient id="linear-gradient-12" x1="967.41" y1="2147.18" x2="1971.19" y2="2147.18" gradientTransform="matrix(1, 0, 0, 1, 0, 0)" xlink:href="#linear-gradient-2"/></defs><g class="cls-3"><g id="Illustration"><g id="Order_closed" data-name="Order closed"><path class="cls-4" d="M3196.76,1610.07c-67.92-444.59-346.41-990.81-896.59-1048,0,0-417.73-50.81-829.51,26.2C1226.26,634,1012,770.05,876.36,965.59s-180.89,434-125.92,661.29c35.7,147.64,59.83,300.45,53.21,452.16-11.53,264-4.9,510.5,251.35,668,228.8,140.6,516.75,264.61,791.45,286.33,186.69,14.76,396-9.13,576-57.73C3339.4,2727.91,3264.68,2054.66,3196.76,1610.07Z"/><path class="cls-5" d="M1943.15,2559.74c-77.91,21.57-138.57-68.2-89.48-132.42a593.2,593.2,0,0,0,43-64.6c99-172,47.8-285,136.92-596.39,56.34-196.9,97.65-333.75,216.64-382,93.24-37.84,223-16.75,286.18,56.78,52.51,61.14,65.1,165.69,59,236.44-5,57.65-22.72,95.9,1.66,133.22,24.92,38.14,64.41,30.33,89.2,60.2,50.27,60.59-23.57,199.49-35.51,221.94-132.75,249.71-424.24,366.2-552,415.48C2055.69,2525,2003.63,2543,1943.15,2559.74Z"/><g class="cls-6"><g class="cls-7"><path class="cls-8" d="M1540.26,2646.7l-.75-6.72c124.88-14,236-40.36,330.3-78.39,139-56.07,237.11-136.13,291.66-238,42.73-79.77,58-169.92,79.19-294.69,16.9-99.61,19.9-171.74,22.54-235.38,3.45-83.24,6.18-149,38.7-237.06,33-89.37,86.72-172.84,159.67-248.07l4.86,4.71c-72.29,74.56-125.51,157.22-158.18,245.7-32.15,87.08-34.86,152.36-38.29,235-2.65,63.84-5.65,136.2-22.62,236.23-20.48,120.68-36.65,216-79.91,296.76-55.31,103.27-154.6,184.36-295.08,241C1777.48,2606.13,1665.75,2632.66,1540.26,2646.7Z"/><path class="cls-8" d="M2255.75,1960.18l-3-2.35c-.58-.45-58.2-46-106-129.52-44.09-77.11-88.67-203.37-50.7-367l6.6,1.53c-37.47,161.49,6.49,286.05,50,362.1,40.94,71.61,89,114.75,101.29,125.11,98.68-162.57,221.8-248.81,308-292.59,94.11-47.81,165.89-56.73,166.6-56.82l.8,6.73c-.71.08-71.52,8.93-164.62,56.27-85.89,43.69-208.86,130-307,293.26Z"/><path class="cls-8" d="M2201.93,2227.86l-.84-2.31c-.39-1.1-40.52-111.05-102.31-213.38-61.4-101.68-246.64-179.19-248.5-180l2.58-6.26c1.89.78,189.16,79.13,251.71,182.72,57.15,94.64,95.86,195.73,102,212.24,217.75-10.38,554.52-427.22,557.91-431.45l5.28,4.24c-.85,1.06-86.72,107.73-198.59,213.93-150.59,142.94-274,217-366.81,220.15Z"/><path class="cls-8" d="M2039.72,2559.18c-75.45,0-123.67-6.29-124.36-6.38l-6.69-.9,4.72-4.82c74.59-76.32,91.24-172.32,49.51-285.36-31.24-84.61-85.26-147.37-85.8-148l5.11-4.44c.55.63,55.37,64.32,87,150.09,41.23,111.65,25.2,210.89-46.3,287.49,24.5,2.64,114,10.6,230.91.76,126.53-10.65,312-44.91,477.28-147.66l321.09-199.67,3.57,5.75-321.08,199.67c-166.43,103.5-353.15,138-480.47,148.67C2111.91,2558,2073.14,2559.18,2039.72,2559.18Z"/></g></g><path class="cls-2" d="M1785,2567.67c108.18,63.36,255,128.65,422.2,145.14,42.67,4.21,306.24,30.22,336.46-79.23,10.64-38.55-16.65-61.35-3.32-113.15,15.79-61.37,64.23-68.64,125.27-121.28,36.41-31.41,143-123.34,110.78-226.84-19.24-61.85-87.17-125-154.82-145.51-99.21-30-178.37,37.77-310.31,154.76-117,103.72-124.13,141.6-209.65,214.82C2038.1,2450.72,1938.5,2518.49,1785,2567.67Z"/><g class="cls-9"><g class="cls-7"><path class="cls-8" d="M1840.57,2569.12A700,700,0,0,1,1642,2540.56c-125.44-36.95-240.44-106.85-341.78-207.78l4.78-4.8c100.53,100.13,214.56,169.46,338.92,206.08,165.64,48.78,342,34.41,524.22-42.71,189.84-80.34,338.45-208.65,429.69-302.14,63.1-64.65,107.78-150.78,132.81-256l6.59,1.57c-25.32,106.41-70.59,193.6-134.55,259.14-91.68,93.93-241,222.86-431.9,303.65C2058.13,2545.24,1947.68,2569.12,1840.57,2569.12Z"/><path class="cls-8" d="M2397.94,2366.75l-.48-3c-.35-2.21-33.48-223,106.75-364.47L2509,2004c-128.92,130.08-108.7,328.82-105.29,355.63,315.66-17.18,411.8-189.19,433.79-241.65.62-1.47,1-2.38,1.21-2.69l5.83,3.44-2.92-1.72,3,1.65c-.16.3-.42,1-.83,1.94-22.46,53.54-120.74,229.53-442.79,246Z"/><path class="cls-8" d="M2485.05,2621.09h-1.12c-71-.21-183-22.13-313.44-125.31l-1.42-1.12.14-1.81c.14-1.68,14.95-170.92,133.15-344.39l119.07-174.74,5.59,3.81L2308,2152.26c-110.64,162.37-129.92,320.83-131.83,339.34,71.24,56.05,182,122.33,307.82,122.71H2485c74.84,0,119.88-23.72,120.33-24l3.2,6C2606.66,2597.34,2561.53,2621.09,2485.05,2621.09Z"/></g></g><path class="cls-10" d="M2608.15,1155.7c11.48,5.82,25.9.47,32.21-12s2.12-27.23-9.36-33a18.12,18.12,0,0,0-1.81-.8,146.34,146.34,0,0,0,4.82-20.74c.66,0,1.32,0,2-.07,13.09-1.17,23.48-13.2,23.21-26.88s-11.11-23.81-24.21-22.65c-.68.07-1.35.17-2,.29a133,133,0,0,0-5.61-19.8c.6-.35,1.2-.72,1.79-1.13,11.2-7.85,14.78-23.34,8-34.6s-21.37-14-32.57-6.17c-.57.4-1.11.83-1.65,1.27a118.24,118.24,0,0,0-14.52-13.56c.37-.6.73-1.21,1-1.86,6.31-12.42,14.56-26,3-31.64-26.75-13.07-38.24-1.89-44.55,10.54-.32.65-.6,1.3-.88,2a118.29,118.29,0,0,0-19.52-3.72,20.75,20.75,0,0,0,.06-2.09c-.27-13.67,3.79-21.07-9.36-21.33-28.66-.55-38.33,11.89-38.05,25.56,0,.71.07,1.41.14,2.11a132.52,132.52,0,0,0-19.29,7.16c-.3-.61-.61-1.22-1-1.81-6.78-11.26-21.36-14-32.56-6.17s-14.79,23.34-8,34.59c.34.58.73,1.12,1.11,1.65a146.17,146.17,0,0,0-13.9,16.13c-.55-.35-1.12-.69-1.71-1-11.48-5.83-25.89-.48-32.2,11.95s-2.12,27.22,9.35,33.05c.6.3,1.2.56,1.81.8a146,146,0,0,0-4.82,20.74c-.65,0-1.31,0-2,.07-13.1,1.17-23.49,13.2-23.22,26.87s11.12,23.82,24.21,22.65c.68-.06,1.36-.17,2-.29a134.34,134.34,0,0,0,5.61,19.81c-.6.35-1.2.72-1.79,1.13-11.2,7.84-14.78,23.33-8,34.59s29.25,16.49,40.45,8.64c.57-.4-6.77-3.3-6.23-3.74a117.57,117.57,0,0,0,14.53,13.56c-.37.61-.74,1.22-1.06,1.86-6.31,12.43-2.12,27.23,9.35,33s25.9.48,32.21-11.94c.32-.65.61-1.3.88-2a118.31,118.31,0,0,0,19.52,3.73c0,.69-.08,1.38-.06,2.08.27,13.68,11.11,23.82,24.2,22.65s23.49-13.2,23.21-26.87c0-.72-.07-1.42-.14-2.11a133.81,133.81,0,0,0,19.3-7.16,19.5,19.5,0,0,0,1,1.8c6.78,11.26,21.36,14,32.57,6.18s14.78-23.34,8-34.6c-.34-.58-.72-1.11-1.11-1.65a145.91,145.91,0,0,0,13.9-16.12C2607,1155.05,2607.56,1155.39,2608.15,1155.7Zm-143.06,1.81c-41.67-21.15-56.88-74.88-34-120S2506.38,973,2548,994.13s56.88,74.88,34,120S2506.76,1178.67,2465.09,1157.51Z"/><path class="cls-11" d="M2636,1089.09c13.09-1.17,23.48-13.2,23.21-26.88s-11.11-23.81-24.21-22.65c-.68.07-1.35.17-2,.29a133.34,133.34,0,0,0-5.61-19.8c.6-.35,1.2-.72,1.79-1.13,11.2-7.85,25.06-26.81,17.16-37.31-15-19.94-30.53-11.31-41.73-3.46-.57.4-1.11.83-1.65,1.27a118.24,118.24,0,0,0-14.52-13.56c.37-.6.73-1.21,1-1.86a26,26,0,0,0,1.47-20.56q-16.23,28.57-32,57.4c33.24,24.36,43.82,72.36,23,113.28-17.61,34.68-52.61,54.16-86.78,51.72-1.53,4-3,7.93-4.65,11.84-4.43,10.63-9.47,21-14.51,31.43,3.17.59,6.36,1.06,9.55,1.4,0,.69-.08,1.38-.06,2.08.27,13.68,8.58,25.3,32.31,24,13.12-.7,15.38-14.59,15.1-28.26,0-.72-.07-1.42-.14-2.11a133.81,133.81,0,0,0,19.3-7.16,19.5,19.5,0,0,0,1,1.8c6.78,11.26,30.32,16,41.52,8.2s5.83-25.36-1-36.62c-.34-.58-.72-1.11-1.11-1.65a145.91,145.91,0,0,0,13.9-16.12c.55.34,1.12.68,1.71,1,11.48,5.82,25.9.47,32.21-12s2.12-27.23-9.36-33a18.12,18.12,0,0,0-1.81-.8,146.34,146.34,0,0,0,4.82-20.74C2634.67,1089.16,2635.33,1089.15,2636,1089.09Z"/><path class="cls-12" d="M2620.5,1157.1c11.47,5.83,25.89.48,32.2-11.95s2.12-27.22-9.36-33.05c-.59-.3-1.2-.56-1.81-.8a144.66,144.66,0,0,0,4.82-20.74c.66,0,1.32,0,2-.07,13.09-1.17,23.48-13.2,23.21-26.87s-11.11-23.82-24.2-22.65c-.69.06-1.36.17-2,.29a134.31,134.31,0,0,0-5.6-19.81c.6-.35,1.2-.71,1.78-1.13,11.2-7.84,14.79-23.33,8-34.59s-21.36-14-32.56-6.18c-.58.4-1.12.84-1.65,1.28a118.28,118.28,0,0,0-14.53-13.56c.37-.61.73-1.22,1.06-1.86,6.31-12.43,2.12-27.23-9.36-33s-25.89-.48-32.2,11.95c-.33.64-.61,1.29-.88,2a118.51,118.51,0,0,0-19.52-3.73c0-.69.07-1.38.06-2.08-.28-13.68-11.11-23.82-24.21-22.65s-23.48,13.2-23.21,26.87c0,.72.08,1.42.15,2.11a133.81,133.81,0,0,0-19.3,7.16c-.3-.61-.61-1.21-1-1.8-6.79-11.26-21.37-14-32.57-6.18s-14.78,23.34-8,34.6c.35.58.73,1.11,1.12,1.65a145.91,145.91,0,0,0-13.9,16.12c-.56-.34-1.12-.68-1.72-1-11.47-5.82-25.89-.47-32.2,11.95s-2.12,27.23,9.36,33a18.12,18.12,0,0,0,1.81.8,145,145,0,0,0-4.82,20.74c-.66,0-1.32,0-2,.07-13.09,1.17-23.49,13.2-23.21,26.88s11.11,23.81,24.2,22.65c.69-.07,1.36-.17,2-.29a133.31,133.31,0,0,0,5.6,19.8c-.6.35-1.2.72-1.78,1.13-11.21,7.85-14.79,23.34-8,34.6s21.36,14,32.56,6.17c.58-.4,1.12-.83,1.65-1.27a119.06,119.06,0,0,0,14.53,13.56c-.37.6-.73,1.21-1.06,1.86-6.31,12.42-2.12,27.22,9.36,33s25.89.48,32.2-11.95c.33-.64.61-1.3.88-2a118.48,118.48,0,0,0,19.52,3.72c0,.69-.07,1.39-.06,2.09.28,13.67,11.11,23.81,24.21,22.64s23.48-13.2,23.21-26.87c0-.71-.08-1.41-.15-2.11a132.64,132.64,0,0,0,19.3-7.16c.3.61.61,1.22,1,1.81,6.79,11.26,21.37,14,32.57,6.17s14.78-23.34,8-34.6c-.35-.57-.73-1.11-1.12-1.64a145.11,145.11,0,0,0,13.9-16.13C2619.34,1156.46,2619.9,1156.8,2620.5,1157.1Zm-143.07,1.81c-41.67-21.15-56.87-74.88-34-120s75.26-64.55,116.93-43.39,56.87,74.88,34,120S2519.1,1180.07,2477.43,1158.91Z"/><path class="cls-13" d="M2301.15,921.22c22.48,11.41,50.72.93,63.08-23.41s4.16-53.33-18.32-64.74c-1.17-.59-2.36-1.09-3.55-1.57a284.37,284.37,0,0,0,9.44-40.62c1.29,0,2.58,0,3.89-.14,25.65-2.29,46-25.86,45.47-52.65s-21.76-46.65-47.41-44.36c-1.34.12-2.66.33-4,.56a261.8,261.8,0,0,0-11-38.79c1.18-.69,2.35-1.41,3.5-2.21,21.94-15.37,29-45.71,15.67-67.77s-41.85-27.47-63.79-12.1c-1.13.79-2.19,1.64-3.23,2.5a231.35,231.35,0,0,0-28.46-26.56c.72-1.19,1.43-2.39,2.07-3.65,12.36-24.34,28.51-50.93,5.85-62-52.41-25.59-74.9-3.69-87.26,20.66-.64,1.26-1.19,2.54-1.72,3.82a232.52,232.52,0,0,0-38.24-7.3c.08-1.35.14-2.71.12-4.08-.54-26.79,7.41-41.28-18.34-41.78-56.14-1.1-75.08,23.27-74.55,50.06,0,1.4.15,2.77.29,4.13a260.52,260.52,0,0,0-37.8,14c-.59-1.19-1.19-2.38-1.89-3.53-13.29-22.06-41.85-27.47-63.79-12.1s-29,45.72-15.67,67.77c.68,1.13,1.42,2.19,2.18,3.23a285,285,0,0,0-27.23,31.59c-1.08-.68-2.19-1.34-3.35-1.94-22.48-11.41-50.73-.93-63.08,23.41s-4.16,53.33,18.32,64.74c1.17.6,2.36,1.09,3.55,1.57a284.37,284.37,0,0,0-9.44,40.62c-1.29,0-2.58,0-3.89.14-25.65,2.29-46,25.86-45.47,52.65s21.76,46.65,47.41,44.36c1.34-.12,2.66-.33,4-.56a261.8,261.8,0,0,0,11,38.79c-1.18.69-2.36,1.41-3.5,2.21-22,15.37-29,45.72-15.67,67.77s57.28,32.31,79.23,16.93c1.12-.79-13.25-6.47-12.21-7.33a231.35,231.35,0,0,0,28.46,26.56c-.72,1.19-1.43,2.39-2.07,3.65-12.36,24.34-4.16,53.33,18.32,64.74s50.73.94,63.09-23.4c.64-1.27,1.19-2.55,1.72-3.83a231.48,231.48,0,0,0,38.24,7.3c-.08,1.35-.14,2.71-.12,4.08.54,26.79,21.77,46.65,47.42,44.37s46-25.86,45.46-52.65c0-1.4-.14-2.77-.28-4.13a260.52,260.52,0,0,0,37.8-14c.58,1.19,1.19,2.38,1.89,3.53,13.29,22.06,41.85,27.47,63.79,12.1s29-45.72,15.67-67.77c-.68-1.13-1.43-2.19-2.18-3.23a284.94,284.94,0,0,0,27.22-31.59C2298.88,920,2300,920.63,2301.15,921.22Zm-280.25,3.55c-81.62-41.44-111.41-146.68-66.54-235.06s147.42-126.43,229-85S2294.82,751.4,2250,839.78,2102.53,966.22,2020.9,924.77Z"/><path class="cls-14" d="M2355.69,790.74c25.65-2.29,46-25.86,45.47-52.65s-21.76-46.65-47.41-44.36c-1.34.12-2.66.33-4,.56a261.8,261.8,0,0,0-11-38.79c1.18-.69,2.35-1.41,3.5-2.21,21.94-15.37,49.09-52.52,33.61-73.1-29.38-39.05-59.79-22.14-81.73-6.77-1.13.79-2.19,1.64-3.23,2.5a231.35,231.35,0,0,0-28.46-26.56c.72-1.19,1.43-2.39,2.07-3.65a51.06,51.06,0,0,0,2.88-40.27q-31.8,55.95-62.64,112.43c65.12,47.71,85.85,141.75,45.15,221.91-34.5,67.94-103.06,106.08-170,101.3-3,7.75-5.92,15.53-9.12,23.2-8.68,20.82-18.54,41.2-28.41,61.56q9.32,1.76,18.7,2.75c-.08,1.35-.14,2.71-.12,4.08.54,26.79,16.8,49.55,63.29,47.08,25.71-1.36,30.13-28.57,29.59-55.36,0-1.4-.14-2.77-.28-4.13a260.52,260.52,0,0,0,37.8-14c.58,1.19,1.19,2.38,1.89,3.53,13.29,22.06,59.39,31.43,81.33,16s11.42-49.67-1.87-71.72c-.68-1.13-1.43-2.19-2.18-3.23a284.94,284.94,0,0,0,27.22-31.59c1.09.68,2.2,1.35,3.36,1.94,22.48,11.41,50.72.93,63.08-23.41s4.16-53.33-18.32-64.74c-1.17-.59-2.36-1.09-3.55-1.57a284.37,284.37,0,0,0,9.44-40.62C2353.09,790.88,2354.38,790.85,2355.69,790.74Z"/><path class="cls-15" d="M2325.33,924c22.48,11.41,50.72.93,63.08-23.41s4.16-53.33-18.33-64.74c-1.16-.59-2.35-1.09-3.54-1.57a284.37,284.37,0,0,0,9.44-40.62c1.29,0,2.58,0,3.89-.14,25.65-2.29,46-25.86,45.47-52.65s-21.76-46.65-47.41-44.36c-1.34.12-2.66.33-4,.56a261.8,261.8,0,0,0-11-38.79c1.18-.69,2.35-1.41,3.5-2.21,21.94-15.37,29-45.72,15.67-67.77s-41.85-27.47-63.79-12.1c-1.13.79-2.19,1.64-3.23,2.5a232.07,232.07,0,0,0-28.46-26.56c.72-1.19,1.43-2.39,2.07-3.65,12.36-24.34,4.15-53.33-18.33-64.74s-50.72-.94-63.08,23.41c-.64,1.26-1.19,2.54-1.72,3.82a232.52,232.52,0,0,0-38.24-7.3c.08-1.35.14-2.71.12-4.08-.54-26.79-21.77-46.65-47.42-44.36s-46,25.85-45.47,52.64c0,1.4.15,2.77.29,4.13a260.52,260.52,0,0,0-37.8,14c-.59-1.19-1.19-2.38-1.89-3.53-13.29-22.06-41.85-27.47-63.79-12.1s-29,45.72-15.67,67.77c.68,1.13,1.42,2.19,2.18,3.23A285,285,0,0,0,1930.69,613c-1.08-.68-2.19-1.34-3.35-1.94-22.48-11.41-50.73-.93-63.08,23.41s-4.16,53.33,18.32,64.74c1.17.6,2.36,1.09,3.55,1.57a284.37,284.37,0,0,0-9.44,40.62c-1.29,0-2.58,0-3.89.14-25.65,2.29-46,25.86-45.47,52.65s21.76,46.65,47.41,44.36c1.34-.12,2.66-.33,4-.56a261.8,261.8,0,0,0,11,38.79c-1.18.69-2.36,1.41-3.5,2.21-22,15.37-29,45.72-15.67,67.77s41.85,27.47,63.79,12.1c1.13-.79,2.19-1.64,3.23-2.5A231.35,231.35,0,0,0,1966,982.88c-.72,1.19-1.43,2.39-2.07,3.65-12.36,24.34-4.16,53.33,18.32,64.74s50.73.94,63.09-23.41c.64-1.26,1.19-2.54,1.72-3.82a231.48,231.48,0,0,0,38.24,7.3c-.08,1.35-.14,2.71-.12,4.08.54,26.79,21.77,46.65,47.42,44.37s46-25.86,45.46-52.65c0-1.4-.14-2.77-.28-4.13a260.52,260.52,0,0,0,37.8-14c.58,1.19,1.19,2.38,1.89,3.53,13.29,22.06,41.85,27.47,63.79,12.1s29-45.72,15.67-67.77c-.68-1.13-1.43-2.19-2.18-3.23A286,286,0,0,0,2322,922C2323.06,922.71,2324.16,923.38,2325.33,924Zm-280.25,3.55c-81.62-41.44-111.41-146.68-66.54-235.06s147.42-126.43,229-85S2319,754.15,2274.13,842.53,2126.71,969,2045.08,927.52Z"/><path class="cls-16" d="M2169.83,1512V2650a102,102,0,0,1-5.16,30.47,107,107,0,0,1-20.92,37.3c-17.84,20.93-43.69,35.17-72.51,37.37L845.38,2847.63l-72.29,5.46a115.57,115.57,0,0,1-48.74-6.49c-29.72-10.81-51.83-33.76-60.65-63.07-2.67-8.75-3.58-18.05-3.58-27.79V1512Z"/><path class="cls-17" d="M2098.71,819.08l-1298.51-40C737.27,777.13,686,823,686,881.52V2731.73c0,58.52,51.31,102.09,114.24,97.35l1298.51-98C2153.1,2727,2197,2679.94,2197,2626V919.82C2197,865.86,2153.1,820.76,2098.71,819.08Z"/><path class="cls-18" d="M722.59,2740.18V871.44c0-33.68,29.5-60.13,65.78-59.07L2109,850.75c31.37.91,56.72,26.92,56.72,58.09V2638.35c0,31.17-25.35,58.31-56.72,60.62L788.37,2796.31C752.09,2799,722.59,2773.86,722.59,2740.18Z"/><path class="cls-19" d="M2098.71,819.08l-1298.51-40C737.28,777.13,686,823,686,881.52v76l1511,32.39v-70.1C2197,865.86,2153.11,820.76,2098.71,819.08Z"/><path class="cls-8" d="M888.81,876.5c0,19-16.51,33.92-36.9,33.43s-37-16.32-37-35.34,16.6-34,37-33.43S888.81,857.55,888.81,876.5Z"/><path class="cls-8" d="M1017.29,879.83c0,18.82-16.29,33.69-36.41,33.21s-36.54-16.2-36.54-35.1,16.37-33.77,36.54-33.21S1017.29,861,1017.29,879.83Z"/><path class="cls-8" d="M1144.06,883.11c0,18.7-16.07,33.47-35.93,33s-36.06-16.08-36.06-34.86,16.17-33.54,36.06-33S1144.06,864.41,1144.06,883.11Z"/><path class="cls-8" d="M1423.83,1344l-534.47-.85c-8.71,0-15.78-6.5-15.78-14.49v-34c0-8,7.07-14.43,15.78-14.38l534.47,3c8.11,0,14.69,6.33,14.69,14V1330C1438.52,1337.73,1431.94,1344,1423.83,1344Z"/><path class="cls-8" d="M910.09,1355.92,956,1524.43c2.9,10.65,13.32,18,25.25,17.89l355.79-4c11.37-.13,21.27-7.54,24-18l43.33-164ZM1042,1514.54c0,6.69-5.86,12.17-13.09,12.24l-12.48.13c-7.25.08-13.14-5.3-13.14-12v-130.6c0-6.71,5.89-12.14,13.14-12.14h12.48c7.23,0,13.09,5.42,13.09,12.1Zm69.44-.65c0,6.65-5.81,12.11-13,12.18l-12.38.13c-7.18.07-13-5.28-13-12v-130c0-6.67,5.83-12.08,13-12.08h12.38c7.16,0,13,5.39,13,12Zm68.81-.66c0,6.63-5.75,12.06-12.85,12.13l-12.27.13c-7.12.07-12.89-5.25-12.89-11.9V1384.16c0-6.64,5.77-12,12.89-12h12.27c7.1,0,12.85,5.37,12.85,12Zm68.21-.64c0,6.59-5.71,12-12.74,12.07l-12.16.13c-7.06.07-12.78-5.23-12.78-11.85V1384.09c0-6.62,5.72-12,12.78-12h12.16c7,0,12.74,5.35,12.74,12Zm67.6-.65c0,6.57-5.66,12-12.63,12l-12.05.12c-7,.07-12.67-5.21-12.67-11.79V1384c0-6.58,5.67-11.92,12.67-11.92h12.05c7,0,12.63,5.32,12.63,11.88Z"/><path class="cls-20" d="M970.13,1263.54a20.74,20.74,0,0,1-27.54-1.93,17,17,0,0,1,1.9-25.36,20.73,20.73,0,0,1,27.53,2A17,17,0,0,1,970.13,1263.54Z"/><path class="cls-8" d="M1141.65,1103.42c-2.68-2.91-8.22-2.59-12.37.71L960.05,1238.51c-4.25,3.38-5.47,8.48-2.73,11.39s8.4,2.55,12.65-.83l169-134.41C1143.13,1111.36,1144.32,1106.33,1141.65,1103.42Z"/><path class="cls-20" d="M1347.72,1266.07a19.24,19.24,0,0,0,26.12-1.52,16.85,16.85,0,0,0-1.79-24.68,19.25,19.25,0,0,0-26.13,1.47A16.86,16.86,0,0,0,1347.72,1266.07Z"/><path class="cls-8" d="M1180.8,1104.09c2.66-2.8,8.16-2.3,12.28,1.13l164.22,136.6c4,3.35,5.19,8.34,2.59,11.14s-8,2.36-12-1l-164.42-136.57C1179.32,1112,1178.13,1106.9,1180.8,1104.09Z"/><polygon class="cls-8" points="2046.15 1183.28 1495.03 1176.24 1495.03 1107.64 2046.15 1117.2 2046.15 1183.28"/><polygon class="cls-8" points="2046.15 1298.97 1495.03 1296.34 1495.03 1227.74 2046.15 1232.89 2046.15 1298.97"/><polygon class="cls-8" points="2046.15 1414.66 1495.03 1416.45 1495.03 1347.85 2046.15 1348.58 2046.15 1414.66"/><polygon class="cls-8" points="2046.15 1530.36 1495.03 1536.55 1495.03 1467.95 2046.15 1464.27 2046.15 1530.36"/><path class="cls-21" d="M1971.19,2115.18c0,277.53-223.63,517.46-500.34,536-277.66,18.56-503.44-192.72-503.44-472s225.78-519.31,503.44-536.15C1747.56,1626.24,1971.19,1837.65,1971.19,2115.18Z"/><path class="cls-8" d="M1501.58,1665.78c120.86,0,233.23,46,316.41,129.39,83.51,83.78,129.5,197.43,129.5,320,0,128.25-49.73,252.17-140,349S1597,2619,1469.27,2627.49c-10.75.72-21.61,1.09-32.28,1.09-120.78,0-233.09-45.88-316.24-129.17-83.6-83.74-129.65-197.47-129.65-320.24,0-266.5,215.86-496.41,481.18-512.5,9.73-.59,19.58-.89,29.29-.89Zm0-23.69c-10.14,0-20.4.31-30.7.93-277.66,16.84-503.44,256.91-503.44,536.15,0,267.81,207.65,473.1,469.58,473.1q16.79,0,33.86-1.13c276.71-18.5,500.34-258.43,500.34-536,0-267.19-207.26-473.11-469.64-473.09Z"/><path class="cls-8" d="M1685.19,2413.48a48.67,48.67,0,0,1-40.82-14.33l-393.44-396.6c-25.81-26-25.81-70.1,0-98.08,25.61-27.76,66.69-28.84,91.78-2.8L1725.48,2299c22,22.86,22,63.43,0,90.94C1714.41,2403.79,1699.83,2411.78,1685.19,2413.48Z"/><path class="cls-8" d="M1297.15,2458.63c-16.66,1.94-33.39-2.87-46.22-14.94-25.81-24.26-25.81-68.35,0-98.08l393.44-453.15c22.61-26,58.93-27,81.11-2.48,22,24.35,22,64.91,0,90.94L1342.71,2433.3C1330.19,2448.1,1313.71,2456.7,1297.15,2458.63Z"/></g></g></g></svg>