<svg xmlns="http://www.w3.org/2000/svg" xmlns:xlink="http://www.w3.org/1999/xlink" viewBox="0 0 350 350"><defs><style>.cls-1{isolation:isolate;}.cls-2{mix-blend-mode:color-burn;}.cls-3{fill:#595959;}.cls-4{fill:url(#linear-gradient);}.cls-5{fill:url(#linear-gradient-2);}.cls-6{fill:#fff;}.cls-7{fill:#00a83a;}.cls-8{fill:#e0e0e0;mix-blend-mode:multiply;}</style><linearGradient id="linear-gradient" x1="114.79" y1="262.73" x2="206.1" y2="43.21" gradientTransform="matrix(0, 1.02, -0.99, 0, 325.73, 11.36)" gradientUnits="userSpaceOnUse"><stop offset="0.17" stop-color="#a4b3bd"/><stop offset="0.73" stop-color="#eff1f3"/><stop offset="0.85" stop-color="#fff"/></linearGradient><linearGradient id="linear-gradient-2" x1="126.69" y1="278.39" x2="223.07" y2="71.7" gradientUnits="userSpaceOnUse"><stop offset="0" stop-color="#fdfdfd"/><stop offset="0.3" stop-color="#f4f4f4"/><stop offset="0.79" stop-color="#ddd"/><stop offset="1" stop-color="#d0d0d0"/></linearGradient></defs><g class="cls-1"><g id="Layer_2" data-name="Layer 2"><g class="cls-2"><ellipse class="cls-3" cx="175" cy="175.13" rx="117.91" ry="116.17" transform="translate(-5.31 344.8) rotate(-88.28)"/></g><ellipse class="cls-4" cx="175" cy="174.87" rx="117.91" ry="116.17" transform="translate(-5.04 344.53) rotate(-88.28)"/><circle class="cls-5" cx="174.88" cy="175.04" r="114"/><path class="cls-6" d="M254.66,130.43a12.82,12.82,0,0,0-18-2.15s-69.85,58.7-71.87,60.47l-27.5-24.25a16.07,16.07,0,0,0-20.5-.63c-7,5.45-7.26,13.55-1.81,20.55l34.26,47.31c.15.2.36.45.53.65A19.35,19.35,0,0,0,177,234.59l76.68-89.22.23-.24C258.21,140.58,258.64,135.48,254.66,130.43Z"/><path class="cls-7" d="M254.66,125.43a12.82,12.82,0,0,0-18-2.15s-69.85,58.7-71.87,60.47l-27.5-24.25A16.07,16.07,0,0,0,114,181.42l35.26,45.31c.15.2.36.45.53.65A19.35,19.35,0,0,0,177,229.59l76.68-87.22.23-.24A12.83,12.83,0,0,0,254.66,125.43Z"/><path class="cls-8" d="M116.79,166.87a16.07,16.07,0,0,1,20.5.63l22.17,25.43a5,5,0,0,0,7.13.46l70.07-62.11a12.83,12.83,0,0,1,20.11,6.08,12.82,12.82,0,0,0-20.11-14.08s-69.85,58.7-71.87,60.47l-27.5-24.25a16.07,16.07,0,0,0-26.18,16.08A15.9,15.9,0,0,1,116.79,166.87Z"/></g></g></svg>