<svg xmlns="http://www.w3.org/2000/svg" xmlns:xlink="http://www.w3.org/1999/xlink" viewBox="0 0 350 350"><defs><style>.cls-1{isolation:isolate;}.cls-2{mix-blend-mode:color-burn;}.cls-3{fill:#595959;}.cls-4{fill:url(#linear-gradient);}.cls-5{fill:url(#linear-gradient-2);}.cls-6{fill:#fff;}.cls-7{fill:#ed1300;}.cls-8{fill:url(#radial-gradient);}.cls-9{fill:url(#radial-gradient-2);}.cls-10{fill:#e0e0e0;mix-blend-mode:multiply;}</style><linearGradient id="linear-gradient" x1="127.29" y1="268.84" x2="218.6" y2="49.32" gradientTransform="matrix(0, 1.02, -0.99, 0, 331.75, -1.37)" gradientUnits="userSpaceOnUse"><stop offset="0.17" stop-color="#a4b3bd"/><stop offset="0.73" stop-color="#eff1f3"/><stop offset="0.85" stop-color="#fff"/></linearGradient><linearGradient id="linear-gradient-2" x1="126.69" y1="278.39" x2="223.07" y2="71.7" gradientUnits="userSpaceOnUse"><stop offset="0" stop-color="#fdfdfd"/><stop offset="0.3" stop-color="#f4f4f4"/><stop offset="0.79" stop-color="#ddd"/><stop offset="1" stop-color="#d0d0d0"/></linearGradient><radialGradient id="radial-gradient" cx="132.44" cy="212.58" r="29.94" gradientUnits="userSpaceOnUse"><stop offset="0" stop-color="#cb765c"/><stop offset="0.25" stop-color="#c76c50"/><stop offset="0.61" stop-color="#c46245"/><stop offset="1" stop-color="#c35f41"/></radialGradient><radialGradient id="radial-gradient-2" cx="215.67" cy="209.7" r="26.27" xlink:href="#radial-gradient"/></defs><g class="cls-1"><g id="Layer_2" data-name="Layer 2"><g class="cls-2"><ellipse class="cls-3" cx="175" cy="175.13" rx="117.91" ry="116.17" transform="translate(-5.31 344.8) rotate(-88.28)"/></g><ellipse class="cls-4" cx="175" cy="174.87" rx="117.91" ry="116.17" transform="translate(-5.04 344.53) rotate(-88.28)"/><circle class="cls-5" cx="174.88" cy="175.04" r="114"/><path class="cls-6" d="M230.87,214.22s-11.33-12.92-24.52-27.69a10.7,10.7,0,0,1-.07-14.12c13.65-15.62,24.59-28.23,24.59-28.23l.25-.27a14.35,14.35,0,0,0,.77-18.36,13.56,13.56,0,0,0-19.35-2.36l-27.7,25.11a10.15,10.15,0,0,1-14-.34c-15.51-15.39-37.43-33.54-47.46-23.28C109.63,138.73,127,154.19,145,167c5.48,3.89,10.46,12.93,5.48,17.46-6.74,6.14-13.67,13.8-14.15,14.3-12.87,13.17-21.1,26-13,34.93,9.94,11,27.59-1.52,36.1-10.75,3.49-3.78,8.21-9,14.27-15.88,4.16-4.7,12.5-3.48,16.52,1.34,10.81,13,22.29,26.79,22.29,26.79a13.57,13.57,0,0,0,19.35-2.36,14.35,14.35,0,0,0-.77-18.36Z"/><path class="cls-7" d="M229.87,211.1S218.54,198.46,205.35,184a10.28,10.28,0,0,1-.07-13.8c13.65-15.27,24.59-27.6,24.59-27.6l.25-.26a13.78,13.78,0,0,0-18.58-20.25l-27.7,24.54a10.31,10.31,0,0,1-14-.33c-15.51-15-37.43-32.78-47.46-22.75C108.63,137.31,126,152.42,144,165c5.48,3.8,10.46,12.64,5.48,17.07-6.74,6-13.67,13.49-14.15,14-12.87,12.87-21.1,25.4-13,34.15,9.94,10.74,27.59-1.49,36.1-10.51,3.49-3.69,8.21-8.82,14.27-15.52,4.16-4.6,12.5-3.41,16.52,1.31,10.81,12.67,22.29,26.18,22.29,26.18a13.78,13.78,0,0,0,18.58-20.25Z"/><path class="cls-8" d="M136.36,202c.48-.48,7.41-8,14.15-14,2.65-2.36,2.48-5.95.92-9.38a5.89,5.89,0,0,1-1.92,3.38c-6.74,6-13.67,13.49-14.15,14-11.38,11.38-19.12,22.49-15.17,31C120.85,219.55,127.5,210.86,136.36,202Z"/><path class="cls-9" d="M229.87,211.1S218.54,198.46,205.35,184a10.13,10.13,0,0,1-1.59-2.31,10.24,10.24,0,0,0,2.59,8.31c13.19,14.43,24.52,27.07,24.52,27.07l.25.26a13.73,13.73,0,0,1,2.69,4.2,13.74,13.74,0,0,0-3.69-10.2Z"/><path class="cls-10" d="M123.36,129.58c10-10,32,13.71,47.46,28.75a10.31,10.31,0,0,0,14,.33c15.1-13.38,27.7-30.54,27.7-30.54a13.78,13.78,0,0,1,19.35,2.31,14,14,0,0,1,1.93,3.3,13.78,13.78,0,0,0-22.28-11.61l-27.7,24.54a10.31,10.31,0,0,1-14-.33c-15.51-15-37.43-32.78-47.46-22.75-5.17,5.17-5.93,10.53-3.91,15.88C118.63,136.13,120.12,132.82,123.36,129.58Z"/></g></g></svg>