<svg id="_Layer_" data-name=" Layer " xmlns="http://www.w3.org/2000/svg" viewBox="0 0 2760 1840"><defs><style>.cls-1,.cls-27,.cls-36,.cls-9{fill:#fff;}.cls-1,.cls-13,.cls-14,.cls-2,.cls-27,.cls-36,.cls-43{isolation:isolate;}.cls-1{opacity:0.6;}.cls-2,.cls-35{fill:#b8d5dc;}.cls-13,.cls-14,.cls-2,.cls-38{opacity:0.5;}.cls-3{fill:#ea523d;}.cls-4{fill:#ccd39c;}.cls-5{fill:#ff998a;}.cls-14,.cls-6{fill:#d9674f;}.cls-7{fill:#ef8062;}.cls-8{fill:#366f90;}.cls-10{fill:#ff9a86;}.cls-11{fill:#d6654e;}.cls-12{fill:#ff8c77;}.cls-13{fill:#ff8f7a;}.cls-15{fill:#f8d37a;}.cls-16{fill:#331832;}.cls-17{fill:#ffdf91;}.cls-18{fill:#ffe9ba;}.cls-19{fill:#418db2;}.cls-20{fill:#fd8772;}.cls-21{fill:#ffb27d;}.cls-22{fill:#020202;}.cls-23{fill:#f29e69;}.cls-24{fill:#e9633e;}.cls-25{fill:#080435;}.cls-26{fill:#764678;}.cls-27,.cls-43{opacity:0.3;}.cls-28{fill:#6da49a;}.cls-29{fill:#daebe8;}.cls-30{fill:#e9fffb;}.cls-31{fill:#e9845c;}.cls-32{fill:#f2a16e;}.cls-33{fill:#f7a776;}.cls-34{fill:#5c305d;}.cls-36{opacity:0.8;}.cls-37{fill:#5193b4;}.cls-39{fill:#ec865c;}.cls-40{fill:#ffbe59;}.cls-41{fill:#f6bb60;}.cls-42{fill:#eea353;}.cls-43{fill:#ffdfa8;}.cls-44{fill:#ffd48e;}.cls-45{fill:#58a1c7;}</style></defs><rect width="2760" height="1840"/><path class="cls-1" d="M1722.49,279.2s-26-49.95-91.69-43.69-57.9,56.33-89.2,51.64-75.11,0-84.5,31.29-51.64,14.09-53.21,40.69S1452.4,404.51,1510.3,381s86.07,18.23,167.44,10.68,91.45-16.94,139.62-12.25,47-28.28,25.11-50.19S1731.88,309.46,1722.49,279.2Z"/><ellipse class="cls-2" cx="1402.7" cy="1387.79" rx="1151.08" ry="229.85"/><path class="cls-3" d="M1946.12,1258.55c-19.9-58.76,20.76-107,79.52-126.87s124.28-7.64,144.17,51.12c24.66,72.81-13.35,141.77-72.11,161.66S1970.78,1331.36,1946.12,1258.55Z"/><path class="cls-4" d="M2023.2,1135.22s-42.76-35.82-62.54-16.73,44.25,29.49,70.65,23.46,38.81-27.5,29.78-34.76-21.56,18.13-21.56,18.13-.91-35-17.33-29.64S2023.2,1135.22,2023.2,1135.22Z"/><path class="cls-5" d="M2127.12,1155.76s-34.68-29.2-50.78-16.46S2148.56,1169.84,2127.12,1155.76Z"/><path class="cls-6" d="M929.77,774,822.84,752.7a37.79,37.79,0,0,1-29.59-44.32h0a37.79,37.79,0,0,1,44.32-29.6l106.93,21.3a37.8,37.8,0,0,1,29.6,44.33h0A37.8,37.8,0,0,1,929.77,774Z"/><polygon class="cls-7" points="1822.31 1379.69 888.53 1379.69 842.89 629.77 1874.95 629.77 1822.31 1379.69"/><path class="cls-8" d="M1868,629.77c0,11.59-25,22.45-68.58,31.81-88.61,19-254.24,31.8-443.95,31.8s-355.34-12.79-443.95-31.8c-43.63-9.36-68.58-20.22-68.58-31.81,0-35.13,229.47-63.61,512.53-63.61S1868,594.64,1868,629.77Z"/><path class="cls-9" d="M1799.37,661.58c-88.61,19-254.24,31.8-443.95,31.8s-355.34-12.79-443.95-31.8c88.61-19,254.24-31.81,444-31.81S1710.76,642.56,1799.37,661.58Z"/><path class="cls-10" d="M1355.42,702.69c-137.28,0-266.39-6.64-363.56-18.7-158.28-19.64-158.28-43.87-158.28-54.22s0-34.58,158.28-54.22c97.17-12.06,226.28-18.7,363.56-18.7s266.39,6.64,363.56,18.7c158.28,19.64,158.28,43.87,158.28,54.22s0,34.58-158.28,54.22C1621.81,696.05,1492.69,702.69,1355.42,702.69Zm0-127.21c-300.67,0-495.74,31.77-503.25,54.56,7.51,22.25,202.58,54,503.25,54,299.46,0,494.2-31.53,503.15-54.29C1849.62,607,1654.88,575.48,1355.42,575.48Z"/><ellipse class="cls-7" cx="1355.42" cy="1379.69" rx="466.89" ry="57.95"/><path class="cls-11" d="M1872.39,869.83a286.53,286.53,0,0,1-63.47-7.15l-121.21-27.61a24.88,24.88,0,0,1,11-48.51L1820,814.16a234.94,234.94,0,0,0,134.56-8.93,13.2,13.2,0,0,0-1.11-25.1l-92.07-25.32a24.89,24.89,0,1,1,13.2-48h0l92.06,25.32c26.85,7.38,45,30.12,46.21,57.94s-14.84,52.06-40.93,61.77A284.75,284.75,0,0,1,1872.39,869.83Z"/><path class="cls-7" d="M1872.39,851.51a286.08,286.08,0,0,1-63.15-7.09l-171.15-34.37a24.88,24.88,0,0,1,9.8-48.78l171.45,34.43.63.14a235.11,235.11,0,0,0,134.56-8.93,13.21,13.21,0,0,0-1.11-25.11l-92.07-25.32a24.89,24.89,0,1,1,13.2-48h0l92.06,25.32c26.85,7.38,45,30.12,46.21,57.93s-14.84,52.06-40.93,61.78A285.28,285.28,0,0,1,1872.39,851.51Z"/><path class="cls-12" d="M2001,776.88c1.23-1.51,7.12-24.39-13-39s-36.84-3.63-28,0S1990.3,790.05,2001,776.88Z"/><polygon class="cls-7" points="1872.02 671.5 1864.31 781.3 1822.98 762.74 1840.62 682.25 1867.95 671.5 1872.02 671.5"/><path class="cls-11" d="M1674.56,786.81c8.69-7.9,22.12-7.69,33.25-6.91,9,.63,17.71,3.86,26.65,5.09q10.86,1.5,21.7,3.12l83.09,12.5,23,3.46c3.07.46,4.4-4.24,1.3-4.7L1801,790c-21-3.16-42-6.85-63.11-9.4-10.8-1.31-21.36-5.4-32.27-5.63-12.31-.26-24.89-.27-34.48,8.44-2.33,2.12,1.13,5.56,3.45,3.45Z"/><path class="cls-11" d="M1868.61,689.07q-.58,23.74-.2,47.49c0,3.13,4.93,3.14,4.88,0q-.39-23.74.2-47.49C1873.57,685.93,1868.69,685.93,1868.61,689.07Z"/><path class="cls-13" d="M1421.3,792.13l-.93,13.54c-6,87.19-37.82,566.32-18.31,582.28,21.46,17.56,132.67,5.85,152.19,0s102.37-615.81,103.41-638c1.3-28-144.8,5.78-184.32,9.14C1458.41,760.33,1427.55,771.9,1421.3,792.13Z"/><path class="cls-14" d="M883.67,726.4s.21,4.42.6,12.51c4.19,87.17,29.5,600.71,44.87,617.11,16.8,17.92,184.6,41.33,188.5,27.67s41-588.64,33.17-604.55-108.16-12.66-176.71-34.72S882.11,694,883.67,726.4Z"/><path class="cls-15" d="M1267.73,666.94a5.32,5.32,0,0,1-4.47-2.39L976.41,234.08a5.37,5.37,0,0,1,8.94-5.94L1272.19,658.6a5.36,5.36,0,0,1-4.46,8.34Z"/><path class="cls-15" d="M1248.57,666.94a5.33,5.33,0,0,1-4.33-2.19L942,252.41a5.37,5.37,0,1,1,8.38-6.71,3.07,3.07,0,0,1,.27.36L1252.89,658.4a5.36,5.36,0,0,1-4.32,8.54Z"/><path class="cls-15" d="M1233.17,674.76a5.34,5.34,0,0,1-4.26-2.1L942.06,298.89a5.36,5.36,0,0,1,8.51-6.53h0l286.85,373.76a5.37,5.37,0,0,1-1,7.52A5.25,5.25,0,0,1,1233.17,674.76Z"/><path class="cls-16" d="M2106.86,1299.32v.43c-2,25.14-182.1,45.44-403.94,45.44S1301,1324.89,1299,1299.75v-1.08c3.08-25,182.74-45.23,403.92-45.23s400.85,20.2,403.92,45.23A4.71,4.71,0,0,1,2106.86,1299.32Z"/><path class="cls-16" d="M2106.86,1299.32v-.65A3.53,3.53,0,0,1,2106.86,1299.32Z"/><ellipse class="cls-17" cx="1702.9" cy="1327.56" rx="105.42" ry="65.01"/><ellipse class="cls-17" cx="1843.21" cy="1341.05" rx="105.42" ry="69.98"/><ellipse class="cls-17" cx="1973.35" cy="1348.46" rx="74.19" ry="49.25"/><ellipse class="cls-17" cx="1594.25" cy="1346.02" rx="105.42" ry="71"/><ellipse class="cls-17" cx="1471.18" cy="1353.4" rx="93.3" ry="57.54"/><path class="cls-18" d="M1398.42,1338.5c26.62-34.53,75.22-32,112.09-18.58,5.91,2.16,8.45-7.27,2.59-9.41-22.51-8.22-46.86-12.55-70.69-8.15-20.66,3.82-39.54,14.52-52.41,31.22-3.83,5,4.64,9.83,8.42,4.92Z"/><path class="cls-18" d="M1413.41,1342.83a71.67,71.67,0,0,1,53.54-19.41c19.18,1.26,37,10.91,49.38,25.44,4.07,4.78,11-2.15,6.89-6.9a81.46,81.46,0,0,0-56.27-28.3c-22.21-1.46-44.33,7.1-60.44,22.27-4.58,4.31,2.33,11.2,6.9,6.9Z"/><path class="cls-18" d="M1805.19,1347.79c-12.74-12.65-22.36-28.12-35.68-40.2a92.74,92.74,0,0,0-39.79-21.08,100.1,100.1,0,0,0-45.06-.8c-15.82,3.38-29.63,11.25-42.39,21-14.75,11.21-28.61,24.5-46,31.63-5.73,2.36-3.22,11.8,2.59,9.41,28.9-11.87,48.28-39.42,77.89-49.66,27.72-9.6,60.81-4.68,83.47,14.38,14.58,12.27,24.58,28.9,38,42.26,4.46,4.43,11.36-2.46,6.9-6.89Z"/><path class="cls-18" d="M1788.84,1348a100.81,100.81,0,0,1-18.23-12.86c-5.46-4.91-10-10.66-15.21-15.8-10.48-10.3-25-15.75-39.39-17.86a90.28,90.28,0,0,0-42.56,3.72c-12.86,4.43-24.5,11.54-35.58,19.32-12.82,9-25.1,18.78-38.73,26.56-5.46,3.11-.55,11.54,4.92,8.42,28.69-16.37,53-43.77,87.11-48.58,17.5-2.46,38.21.54,52.69,11.28,7.06,5.24,12.18,12.74,18.61,18.7a112.11,112.11,0,0,0,21.44,15.52C1789.4,1359.49,1794.32,1351.07,1788.84,1348Z"/><path class="cls-18" d="M1538.4,1341.68c-9.83-9.15-11.48-24.41-2.29-34.72,8.83-9.9,25-13.87,37.45-16.4,5.1-1,14.33-4.21,17.15,2,2.48,5.41-.72,11.14-3.72,15.57-3.72,5.53-7.89,10.68-11.33,16.4A145.7,145.7,0,0,0,1566,1344c-2.39,5.8,7,8.33,9.41,2.59a128.38,128.38,0,0,1,10-19.31c3.78-6,8.62-11.39,12.09-17.59,5-9,5.86-22.52-4.31-28.43-5.67-3.3-12.66-1.79-18.76-.73a127,127,0,0,0-22.25,6c-12.1,4.49-23.81,10.72-29.16,23.15a34.53,34.53,0,0,0,8.46,38.92c4.59,4.28,11.51-2.61,6.9-6.89Z"/><path class="cls-18" d="M1551.32,1339c-5.9-6-2.83-16.57-.21-23.49,1.71-4.55,4.75-6.78,8.93-9a57.59,57.59,0,0,1,6.86-3.06c1.54-.57,4.45-2.11,6.11-1.86s1.78.37,1.65,2.51a13.46,13.46,0,0,1-2.12,5.52c-1.93,3.45-4.53,6.49-6.71,9.79a66.93,66.93,0,0,0-9.6,23.67c-1.24,6.13,8.16,8.75,9.41,2.59a59.76,59.76,0,0,1,7.26-19.21c3-5,7-9.34,9.48-14.68,4.42-9.75.46-22.38-12.21-19.57-11.34,2.52-23.94,8.56-28.21,20-4,10.8-6.43,24.66,2.46,33.69,4.41,4.48,11.31-2.42,6.9-6.9Z"/><path class="cls-18" d="M1593.88,1342.81c10.42-14.94,20.54-31,35.86-41.41,14.58-9.87,31.58-17,48.52-21.64,17.26-4.7,35.48-6.28,53-2.27,17.22,3.93,34.5,10.56,48.67,21.24,14.88,11.21,26.7,26,38.32,40.43,3.94,4.89,10.81-2.05,6.9-6.9-11.25-13.93-22.66-28-36.75-39.21-14.76-11.74-32.17-19.07-50.31-23.92-36.81-9.85-77.3,1.67-109.1,21.14-19,11.64-31.06,29.67-43.57,47.62-3.6,5.16,4.85,10,8.42,4.92Z"/><path class="cls-18" d="M1773.5,1359.5c-6.18-4.37-12.86-8.45-18.45-13.58-4.81-4.42-8.64-9.7-13.8-13.77a75.71,75.71,0,0,0-35.7-15c-14-1.9-27.16,5.91-39.11,12.22-13.19,7-25.83,14.89-38.45,22.81-5.31,3.33-.42,11.77,4.92,8.42,11.37-7.12,22.74-14.26,34.52-20.69,11.33-6.19,25.25-15.45,38.66-12.85,11.64,2.25,23.87,7.2,32.45,15.58,4.42,4.32,8.14,9.14,13,13,5.46,4.34,11.32,8.21,17,12.23,5.14,3.63,10-4.82,4.92-8.42Z"/><path class="cls-18" d="M1953.84,1337.46c-12.49-30.94-44.72-43.23-73.82-53.79-8.06-2.93-16.2-5.47-24.75-6.46-9-1-18.13-.49-27.17-.08-17,.78-33.86,2.4-49.66,9.22-5.75,2.48-.79,10.88,4.92,8.42,14.37-6.19,30.2-7.23,45.62-7.92,8.11-.37,16.31-.9,24.4-.09,7.69.77,15.11,3.12,22.36,5.7,25.68,9.17,57.55,20,68.69,47.59C1946.75,1345.8,1956.19,1343.29,1953.84,1337.46Z"/><path class="cls-18" d="M1791.26,1304.34a226.11,226.11,0,0,1,130.69,32.1c5.39,3.26,10.3-5.18,4.93-8.42a235.41,235.41,0,0,0-135.62-33.44C1785,1295,1785,1304.73,1791.26,1304.34Z"/><path class="cls-18" d="M1805.9,1318.49a324,324,0,0,1,88.3,24.2c5.7,2.47,10.67-5.93,4.92-8.43a340.29,340.29,0,0,0-93.22-25.52c-6.21-.79-6.15,9,0,9.75Z"/><path class="cls-18" d="M1941,1314.11a186.22,186.22,0,0,1,77.17,13.71c5.81,2.37,8.34-7.07,2.59-9.41a193.2,193.2,0,0,0-79.76-14.06c-6.26.23-6.29,10,0,9.76Z"/><path class="cls-8" d="M2106.86,1301.79c0,167-180.86,220.34-404,220.34s-404-51.43-404-220.34v-2c2,25.14,182.09,45.44,403.93,45.44s401.92-20.3,403.94-45.44A11,11,0,0,1,2106.86,1301.79Z"/><path class="cls-19" d="M1896.14,1476.56s97.07,0,161.94-76.1c36.7-43,10.73-59.37-14.14-53.17-28.45,7.1-51.62,32.44-78.21,60.65C1942.7,1432.37,1866.87,1475.58,1896.14,1476.56Z"/><path class="cls-18" d="M1851.11,1345.76c11.62,3.68-2,28.08-5.12,34.29-5.29,10.6-11.27,21.35-13.37,33.15-2.33,13.16,1.58,24.8,4.93,37.38,3.65,13.72,2.6,27.43-4.37,39.94-3.06,5.49,5.36,10.41,8.42,4.92a61,61,0,0,0,6.56-42.45c-1.62-7.84-4.66-15.34-6-23.23a44.42,44.42,0,0,1,1.72-21.25c4.2-13.36,12.16-25.2,17.26-38.21,4.48-11.44,7.8-29.13-7.4-34-6-1.9-8.56,7.51-2.59,9.41Z"/><path class="cls-20" d="M1821.1,1298.32l-2.61-2.59c-8.12-5.86-16.45-11.82-26-14.66-7.62-2.25-15.72-2.43-23.34-4.66-5.39-1.57-10.43-4.14-15.63-6.25-22.9-9.33-48.35-9.82-73-8.75-7.65.33-15.33.81-22.75,2.68-7.15,1.8-13.9,4.87-20.61,7.92l-37.42,17c-6.29,2.86-13.21,6.32-14,14.11a13.82,13.82,0,0,0,1.31,7.22c2.93,6.24,9,9.76,15.36,11.64a43.53,43.53,0,0,0,21.74.79c7-1.55,14.17-4.81,20.94-2.54,3.14,1,5.86,3.24,9.1,4,3.76.83,7.65-.45,11.16-2,13.16-6,24.06-16.4,37.7-21.14a50.25,50.25,0,0,1,48,8.93c4,3.37,9.4,7.62,13.71,4.67,1.32-.9,2.19-2.37,3.52-3.26,2.48-1.66,5.79-.93,8.64,0,14.16,4.39,28.33,11.39,43,9.48,4.43-.57,9.13-2.25,11.38-6.1,1.79-3,.94-7.57-1.7-9.52A76.83,76.83,0,0,1,1821.1,1298.32Z"/><path class="cls-4" d="M1615.73,1315.61c3.75-3.62,16.92-10.47,20.54-6.72s-3.7,16.67-7.45,20.28a9.42,9.42,0,0,1-13.09-13.56Z"/><path class="cls-4" d="M1720.49,1290.79c-4.83-1.93-16.5-11.11-14.57-16s16.71-3.49,21.55-1.56a9.43,9.43,0,1,1-7,17.51Z"/><path class="cls-4" d="M1704.34,1263.18c-4.59,3.71-20.14,10.12-23.84,5.53s5.84-18.43,10.43-22.14a10.67,10.67,0,1,1,13.41,16.61Z"/><path class="cls-4" d="M1771.54,1313.51c2.34-4.65,12.51-15.47,17.16-13.13s2,17-.32,21.61a9.43,9.43,0,0,1-16.84-8.48Z"/><path class="cls-4" d="M1662.72,1301.79c-2.47-3.44-6.45-14.84-3-17.32s13,4.92,15.47,8.36a7.68,7.68,0,1,1-12.45,9Z"/><path class="cls-18" d="M1439.74,1024.73c0,18.24,7.11,35,10.44,52.72,1.6,8.49,2.25,17.51.07,26-.28,1.08-.67,2.12-1,3.2,0-.08-.89,2.54-.28,1.3.3-.62.14-.2,0,.06-.69,1-1.69,1.88-2.47,2.81-6.68,8.06-12.4,17.44-14.89,27.7a40.79,40.79,0,0,0-.32,18.87c1.74,7.41,6,14,8,21.41,3.94,14.15,3.86,31.51-10.37,39.68-5.45,3.12-.54,11.55,4.92,8.42,12-6.88,17.57-19.41,17.5-32.94a70.48,70.48,0,0,0-4-22.23c-2.5-7.31-7.06-14.11-7.26-22-.3-11.3,5.61-22.25,12.44-30.9,1.7-2.14,3.77-4,5-6.43,3.67-7.53,4.27-16.93,3.73-25.16-1.41-21.3-11.73-41-11.72-62.45,0-6.28-9.75-6.29-9.75,0Z"/><path class="cls-18" d="M1449.59,1022.83c1.31,16.48,7.77,31.94,10.1,48.2,1.16,8.06.44,17-.19,25.08-1,12.35-3.25,23.93-9.91,34.46-7.73,12.21-.13,27.35,6,38.49,3.9,7.16,8.76,14.19,11,22.09a23.76,23.76,0,0,1,1.06,10.25,16.37,16.37,0,0,1-.59,2.29c-.3,1,.42-.75,0,.07-3,5.51,5.4,10.44,8.43,4.93,5.28-9.64.43-22.51-4.14-31.31-3.49-6.72-7.56-13.13-10.83-20-2.64-5.52-5.86-12.87-3.85-19.08.88-2.69,2.91-4.79,4.26-7.25a52.68,52.68,0,0,0,3.94-9.48,104.78,104.78,0,0,0,3.8-19.22,168.25,168.25,0,0,0,1.18-27.11c-.82-17.83-9.06-34.65-10.48-52.44-.49-6.22-10.25-6.27-9.75,0Z"/><path class="cls-18" d="M1458.41,1017.33a166.71,166.71,0,0,0,14.82,46.11c2.75,5.64,11.17.7,8.42-4.92a158.16,158.16,0,0,1-13.84-43.79C1466.81,1008.55,1457.39,1011.17,1458.41,1017.33Z"/><path class="cls-18" d="M1466.54,1016.62a117.39,117.39,0,0,0,11.8,31.42c3,5.51,11.44.6,8.42-4.92A108.58,108.58,0,0,1,1476,1014c-1.34-6.14-10.75-3.54-9.41,2.59Z"/><path class="cls-21" d="M1294.63,1099.15l5.26,61.16s50-11.73,72.79-43.68C1381.76,1103.89,1294.63,1099.15,1294.63,1099.15Z"/><path class="cls-21" d="M1265.14,1049.73c1.19.7,38.13,38.79,44.35,58.3,5.17,16.19,8.69,44.29-4.45,50.85-20.47,10.23-63.83-35-63.83-35Z"/><path class="cls-16" d="M1226.23,1495.06s.28,11.39,8,14.6,30,6.12,21.69,13.44c-4.78,4.2-27.35,1.49-33.72,1.49s-12.36,2.77-17.09-1.49c-5.21-4.69,0-28,0-28s5.5,2.86,10.44,2.73C1222.67,1497.61,1226.23,1495.06,1226.23,1495.06Z"/><path class="cls-16" d="M1137.71,1495.06s.28,11.39,8,14.6,30,6.11,21.7,13.44c-4.79,4.2-27.36,1.48-33.73,1.48s-12.35,2.78-17.09-1.48c-5.21-4.69,0-28,0-28s5.5,2.86,10.44,2.73C1134.15,1497.61,1137.71,1495.06,1137.71,1495.06Z"/><path class="cls-8" d="M1275.68,1200.34a4.58,4.58,0,0,1,4.36,4.23c.88,10.81,1.78,44.64-10.32,117.37-11,66-24,132.58-30.32,164.48a24.89,24.89,0,0,1-23.25,20.21l-6.11.24c-12.3.5-22.28-10.07-21.38-22.63l15.44-215.82s-.53-69.42,18-69.78C1233.25,1198.42,1264.63,1199.82,1275.68,1200.34Z"/><path class="cls-8" d="M1240.17,1204.35l-88.56,288a27.66,27.66,0,0,1-25.8,19.64l-5.16.08c-12.17.21-21.48-11-19.26-23.29l49.06-275.59c.68-3.07,14.47-6.38,17.43-7.23C1184,1201.36,1241.75,1193,1240.17,1204.35Z"/><path class="cls-22" d="M1199.05,1340l-1.37-.44,18.45-56.08A54.63,54.63,0,0,1,1240.8,1253l.72,1.26a53.17,53.17,0,0,0-24,29.63Z"/><path class="cls-16" d="M1161,1055.38s10.92-30.74,49.84-29.34,68.31,52.54,75.59,162.45c0,0-63.73-14-138.39,18.63C1148,1207.12,1143.88,1100.18,1161,1055.38Z"/><path class="cls-16" d="M1133.33,1058.66l27.89,12.51s70.87,7.1,89.68,3.68a34.85,34.85,0,0,0,25.34-18.94s-21.49-22.85-55.55-29a93.31,93.31,0,0,0-9.87-.92,97,97,0,0,0-17.21.38C1160,1030.05,1133.33,1058.66,1133.33,1058.66Z"/><path class="cls-16" d="M1237.51,1019.19l-.1-.44s5-1.22,6.41-4.6c.73-1.76.38-3.81-1-6.1l-1.84-2.95c-3.86-6.16-5.31-8.47-4.25-13.51l.44.1c-1,4.86.3,6.95,4.2,13.17.56.89,1.17,1.87,1.83,2.95,1.5,2.42,1.85,4.62,1.07,6.51C1242.74,1017.92,1237.72,1019.14,1237.51,1019.19Z"/><path class="cls-16" d="M1236.92,991.64a23,23,0,0,0,3.45,16c5.17,8.17-.46,14.14-7.46,11s-9.68,5.79-18.63.85S1236.92,991.64,1236.92,991.64Z"/><path class="cls-21" d="M1195.53,1026.15a10.76,10.76,0,0,0,8.77-6.42l4.83-11.2,1.4-3.25,8.23-19.11-1.43,19.81-.86,11.89-.24,3.39a5.41,5.41,0,0,0,4.46,5.7h0c1.46,2.38,3.48,7.22-2.56,9.14-7.1,2.26-18.59-3.33-22.71-9.95Z"/><path class="cls-23" d="M1209.11,1008.21v.32c.47,6.39,7.3,9.37,7.3,9.37h0l.86-11.89c-2.09-.77-5.06-1.55-6.8-.7A2.78,2.78,0,0,0,1209.11,1008.21Z"/><ellipse class="cls-21" cx="1219.65" cy="989.34" rx="18.61" ry="22.96"/><path class="cls-21" d="M1203.53,992.8c2.11,2,5.06,2.22,6.59.46s1.05-4.82-1-6.83-5.06-2.22-6.59-.46S1201.42,990.79,1203.53,992.8Z"/><path class="cls-24" d="M1229.68,1004.19a40.45,40.45,0,0,1-12.72-2.08s-.53,6.26,6.36,6.68C1227.32,1009,1229.68,1004.19,1229.68,1004.19Z"/><path class="cls-9" d="M1229.68,1004.19s-1.54,1.28-5.13,1.27-7.59-3.35-7.59-3.35S1224.62,1004.21,1229.68,1004.19Z"/><path class="cls-25" d="M1221.45,989.56a.45.45,0,0,0,.29-.25.42.42,0,0,0-.23-.55h0A4.56,4.56,0,0,0,1216,990a.43.43,0,0,0,0,.6.48.48,0,0,0,.6,0,7.18,7.18,0,0,1,4.55-1A.39.39,0,0,0,1221.45,989.56Z"/><path class="cls-25" d="M1218.11,994.21c0,1,.53,1.85,1.26,1.87s1.36-.78,1.39-1.79-.54-1.84-1.27-1.87S1218.14,993.2,1218.11,994.21Z"/><path class="cls-25" d="M1236.57,991.76a.38.38,0,0,0,.35-.12.44.44,0,0,0,0-.6,4.59,4.59,0,0,0-5.54-1,.41.41,0,0,0-.21.55h0a.47.47,0,0,0,.56.22,7.24,7.24,0,0,1,4.59.79A.44.44,0,0,0,1236.57,991.76Z"/><path class="cls-25" d="M1231.7,994.79a1.63,1.63,0,0,0,.46,2.21c.67.3,1.54-.2,2-1.12a1.64,1.64,0,0,0-.46-2.21A1.66,1.66,0,0,0,1231.7,994.79Z"/><path class="cls-16" d="M1227.56,970.54s-.4,8-10.35,9.32-16.81,5.57-15.48,12.74,17.38,22,5.59,27.79-9.28-5-22.06-2.49-15.08-14.57-6.28-24.47,5.23-36.11,38.23-34.95,20.9,27.49,20.9,27.49S1227.54,979.33,1227.56,970.54Z"/><path class="cls-9" d="M1203.93,1021.86l-.1-.24c2.43-1,3.86-2.38,4.37-4.26,1.42-5.21-4.76-13.23-10.22-20.3-1.45-1.88-2.81-3.65-4-5.34-3.37-4.72-3.67-10.34-.78-14.68,3.22-4.81,9.35-6.88,16-5.32,12.25,2.84,17.38-4.53,17.43-4.61l.22.15c0,.08-5.24,7.61-17.71,4.72-6.5-1.51-12.52.48-15.67,5.21-2.88,4.31-2.59,9.68.77,14.37,1.21,1.69,2.58,3.46,4,5.34,5.5,7.12,11.72,15.19,10.27,20.53C1207.94,1019.37,1206.41,1020.86,1203.93,1021.86Z"/><path class="cls-26" d="M1235.27,1006.81a5.24,5.24,0,0,1-2.85-.84c-4-2.49-5.51-10-3.36-16.74h0c1.32-4.13,3.78-7.22,6.57-8.25a5.32,5.32,0,0,1,4.84.48c4,2.48,5.51,10,3.36,16.73-1.32,4.15-3.78,7.23-6.57,8.26A5.88,5.88,0,0,1,1235.27,1006.81Zm-5.42-17.32c-2,6.39-.69,13.48,3,15.79a4.61,4.61,0,0,0,4.1.4c2.56-.95,4.83-3.85,6.07-7.74,2-6.4.69-13.49-3-15.79a4.63,4.63,0,0,0-4.11-.39c-2.56,1-4.83,3.83-6.07,7.73Z"/><path class="cls-27" d="M1207.53,984.85c-1.5,6.55.89,13.59,5.33,15.72s9.24-1.46,10.74-8-.9-13.59-5.33-15.72S1209,978.29,1207.53,984.85Z"/><path class="cls-27" d="M1228.88,989.78c-1.5,6.59.5,13.73,4.45,16s8.38-1.31,9.88-7.9-.5-13.73-4.45-16S1230.38,983.19,1228.88,989.78Z"/><path class="cls-26" d="M1216,1001.39a6.77,6.77,0,0,1-3-.69c-4.9-2.29-7.55-9.86-5.92-16.87h0c.94-4.07,3.12-7.21,6-8.59a6.8,6.8,0,0,1,6,0c4.89,2.3,7.54,9.86,5.91,16.86-.94,4.09-3.13,7.22-6,8.61A7,7,0,0,1,1216,1001.39Zm.18-26.06a6.29,6.29,0,0,0-2.72.65c-2.59,1.27-4.66,4.27-5.54,8h0c-1.54,6.65.91,13.79,5.46,15.93a6.2,6.2,0,0,0,5.32,0c2.59-1.26,4.67-4.28,5.55-8.06,1.54-6.64-.91-13.79-5.46-15.93a6.23,6.23,0,0,0-2.62-.59Z"/><path class="cls-26" d="M1229.76,992.23a.74.74,0,0,1-.49-.18h0a7,7,0,0,0-5.55-1,.8.8,0,0,1-.91-.61.77.77,0,0,1,.61-.9,8.36,8.36,0,0,1,6.84,1.3.75.75,0,0,1,.09,1.08h0A.73.73,0,0,1,1229.76,992.23Z"/><path class="cls-26" d="M1142.83,1159.7v-.21A.17.17,0,0,0,1142.83,1159.7Z"/><path class="cls-28" d="M1252.18,1303.81a37.45,37.45,0,0,0,38.28-36.09c4.7-134.78-28-205.7-37.13-213.78-5.6-4.94-24.24,7.58-39.57,5.89s-12.94,9-16.92,31.88-53.58,31.41-53.58,31.41l7,130.73a51.93,51.93,0,0,0,51.45,49.15C1218.39,1303.12,1236.7,1303.46,1252.18,1303.81Z"/><path class="cls-9" d="M1186.67,939.43l8.52,25s22.65,1.41,29.57-5.27l-7.85-23.87Z"/><path class="cls-9" d="M1213.72,946.49a20.38,20.38,0,0,1-16.56,1.85s-15.82,8-21-1.13,5.74-16.74,13.09-15.29,21.62-7.83,27.2-6.1S1239.14,941.74,1213.72,946.49Z"/><path class="cls-29" d="M1190.58,951l-.11-.55c.07,0,7-1.49,9.63-4.74l.1-.11h.15c.08,0,8,.79,10.13-1.46l.12-.13.18.06a15.15,15.15,0,0,0,9.73.25l.18.52a15.7,15.7,0,0,1-10-.18c-2.31,2.14-9.16,1.61-10.3,1.51C1197.65,949.53,1190.88,951,1190.58,951Z"/><path class="cls-28" d="M1209.1,1063.82s-6.53-32.45-23.92-36c0,0-6.71-.64-7.59,2s14.35,8.2,17.88,20.3S1204.55,1072.65,1209.1,1063.82Z"/><path class="cls-28" d="M1253.64,1063s-1.58-11.91-6.94-22a25.59,25.59,0,0,0-22-13.5h-1.36c-1.07,2.53,15.07,8.5,17.72,20.83S1248.46,1071.51,1253.64,1063Z"/><path class="cls-7" d="M1204.53,1066.94c0-2,.78-4.21,3.93-4.21a3.65,3.65,0,1,1,.38,7.29h-.38C1206.45,1070,1204.53,1069,1204.53,1066.94Z"/><path class="cls-30" d="M1206,1066.37a.87.87,0,0,1,.75-1,.61.61,0,0,1,.19,0,.87.87,0,0,1,0,1.73C1206.5,1067.1,1206,1066.84,1206,1066.37Z"/><path class="cls-30" d="M1209.1,1066.37a.87.87,0,0,1,.75-1h.18a.87.87,0,0,1,.19,1.73H1210C1209.56,1067.1,1209.1,1066.84,1209.1,1066.37Z"/><path class="cls-7" d="M1244,1061.31c-.62-1.91-.57-4.24,2.43-5.22a3.64,3.64,0,1,1,2.27,6.92C1246.76,1063.64,1244.61,1063.22,1244,1061.31Z"/><path class="cls-30" d="M1245.24,1060.3a.9.9,0,0,1,1.67-.69.87.87,0,0,1-.55,1.09h0a.83.83,0,0,1-1.1-.37Z"/><path class="cls-30" d="M1248.15,1059.35a.87.87,0,0,1,.38-1.17l.19-.07a.86.86,0,1,1,.54,1.64h0a.83.83,0,0,1-1.1-.37Z"/><path class="cls-16" d="M1133.33,1058.66c-1,3,6.65,8.48,17.12,12.35s19.8,4.6,20.81,1.65-6.65-8.48-17.12-12.34S1134.34,1055.71,1133.33,1058.66Z"/><path class="cls-9" d="M1444.41,1098.38l12.82-6.64L1558,1040.85a3.83,3.83,0,0,0,2.08-4.25,3.77,3.77,0,0,0-4.53-2.84,4,4,0,0,0-.67.22l-100,43.92a3.49,3.49,0,0,1-4.61-1.79l0,0a5.48,5.48,0,0,1,2.79-7.1l98-44.6a3.36,3.36,0,0,0,2-3.75,3.22,3.22,0,0,0-3.88-2.41,2.91,2.91,0,0,0-.5.16l-99.1,41.07a6.35,6.35,0,0,1-8.14-3.11,5,5,0,0,1,2.48-6.62h0l98.57-44.86a3.34,3.34,0,0,0,1.85-4.13,3.23,3.23,0,0,0-4.15-1.9l-.11,0-102,42.25a3.32,3.32,0,0,1-4.31-1.73h0a5.74,5.74,0,0,1,2.94-7.54l98-43.06A3.91,3.91,0,0,0,1537,984a3.78,3.78,0,0,0-4.82-2.32l-.08,0-106.19,40-12.72,4.75a5.37,5.37,0,0,0-.65.29h0a5.21,5.21,0,0,0-3,6.72c0,.09.07.19.11.28l.26.59,1.92,4.36h0a19.67,19.67,0,0,1-10.09,25.92c-.33.15-.66.28-1,.41l-303.14,114.12a26,26,0,0,0-15.11,33.52c.15.41.32.8.49,1.2h0a26.87,26.87,0,0,0,35.42,13.79c.37-.16.73-.33,1.08-.5l292.73-144.46a16.62,16.62,0,0,1,22.25,7.54c.11.23.21.45.31.68h0l2.11,4.81.45,1A4.33,4.33,0,0,0,1443,1099l.22-.11h0A5.53,5.53,0,0,0,1444.41,1098.38Z"/><path class="cls-21" d="M1367.71,1125.09s-7.77,8-14.42,1.32c-8.47-8.49-10.3-27.92-4.85-22.62,4.83,4.7,10,13.16,10,13.16s-12.76-21.72-7.16-23.21S1366.2,1108,1366.2,1108s-9-19.34-3.36-19,15.43,17.34,15.43,17.34-11.33-21.34-4.83-20.84,10.16,11,12.88,15.81c2.57,4.55.23,9.83-4.5,12.37,0,0-3.47,5.18-6.92,6.08-1.32.35-1.85,2.07-2.63,2.68A36.68,36.68,0,0,1,1367.71,1125.09Z"/><path class="cls-31" d="M1374.87,1120.09a.43.43,0,0,1-.43-.36.44.44,0,0,1,.37-.49c2.11-.3,4.79-2,5.29-4.08.27-1.14,1-1.28,1.75-1.43,1-.19,2.53-.49,4.62-3.32,3.49-4.72-4.37-15.92-4.45-16a.43.43,0,0,1,.1-.6h0a.43.43,0,0,1,.59.09h0c.35.48,8.31,11.83,4.46,17-2.29,3.1-4,3.43-5.16,3.65-.72.14-.93.19-1.08.8-.58,2.4-3.57,4.37-6,4.72Z"/><path class="cls-21" d="M1210.5,1167.27l.38-22.81a5.88,5.88,0,0,0-5.49-6c-15.9-1.13-27-6-33.13-14.61-8.47-11.9-4.3-34.29-1.94-47.12,1.21-6.56-4.25-7-12.22-11.26a54.57,54.57,0,0,0-15.32-5.18c-3.38-.57-6.75.78-7.62,4.08a138.58,138.58,0,0,0-4,22.69c-2,22.49,2.36,42,12.62,56.57,12.59,17.82,32.89,27.68,60.4,29.36a5.91,5.91,0,0,0,6.31-5.48C1210.49,1167.43,1210.5,1167.35,1210.5,1167.27Z"/><path class="cls-31" d="M1152,1137.34a8.8,8.8,0,0,1-6.44-3.54h0a9.07,9.07,0,0,1-2.22-6.41,4.34,4.34,0,0,1,1.55-3c2.33-1.87,6.42-.67,9.12,2.67a9,9,0,0,1,2.21,6.41,4.33,4.33,0,0,1-1.54,3A4.18,4.18,0,0,1,1152,1137.34Zm-4.4-13.11a3.53,3.53,0,0,0-2.23.73,3.61,3.61,0,0,0-1.27,2.51,8.36,8.36,0,0,0,2,5.86h0c2.45,3,6.06,4.12,8.06,2.53a3.53,3.53,0,0,0,1.27-2.5,8.36,8.36,0,0,0-2-5.86,8.08,8.08,0,0,0-5.79-3.27Z"/><path class="cls-21" d="M1197.41,1138s18.12-15.76,28.34-17.78,24.81,3.08,18.75,5.67-14.74,3.77-14.74,3.77,18.64-1.66,17.15,2.84-17.73,5.8-17.73,5.8,22.34-.22,19.54,3.58-19.77,3.84-19.77,3.84,20.79.63,17.44,5-17.19-.63-18.69,3.88-13.15,20.57-26.25,18Z"/><path class="cls-31" d="M1222.4,1132.32a.4.4,0,0,1-.24-.07.38.38,0,0,1-.07-.54c2.1-2.71,7.46-2.41,7.69-2.41a.4.4,0,0,1,.36.41.38.38,0,0,1-.38.36h0s-5.19-.27-7,2.1A.38.38,0,0,1,1222.4,1132.32Z"/><path class="cls-31" d="M1220.39,1141.4a.39.39,0,0,1-.29-.13.38.38,0,0,1,0-.54h0c3.64-3.18,8.84-2.8,9.07-2.79a.39.39,0,0,1,.35.41.36.36,0,0,1-.36.36h-.05s-5.11-.36-8.51,2.59A.35.35,0,0,1,1220.39,1141.4Z"/><path class="cls-31" d="M1220.69,1148.66a.39.39,0,0,1-.21-.06.39.39,0,0,1-.12-.53c2-3.07,8.34-2.68,8.61-2.7a.39.39,0,0,1,0,.77h0c-.08,0-6.16-.35-7.91,2.34A.36.36,0,0,1,1220.69,1148.66Z"/><path class="cls-18" d="M1460.39,1011.78c2.58-9.95,13.88-22.5,25-22,13.58.56,27,10.86,31.74,23.29,10.48,27.47-6.8,55.56-12.32,82.09-5.31,25.47-3.39,53.18,14.48,73.45,14.81,16.81,36.27,25.53,52.23,41,10,9.74,16.3,22.22,15.42,36.48-1,15.58-10.93,28.77-24.8,35.37-5.67,2.7-.72,11.11,4.92,8.43,27.18-12.94,37.78-47,22.58-73.11-12.58-21.59-37-31.32-55.23-47-10.75-9.25-18.18-20.5-21.08-34.52-3.09-14.91-1.18-30.63,2.73-45.2,7.54-28.15,23.76-60.44,6.24-88.38a43.9,43.9,0,0,0-17.84-15.9c-7.28-3.61-16-6.89-24.22-5.28-13.33,2.61-25.91,15.85-29.26,28.77-1.57,6.08,7.84,8.67,9.41,2.59Z"/><path class="cls-18" d="M1452,1013.71c2.41-9.62,11.13-24.44,22.65-24,13.57.55,27,10.86,31.74,23.29,10.47,27.47-6.8,55.56-12.33,82.09-5.3,25.47-3.38,53.18,14.48,73.45,14.82,16.81,36.27,25.53,52.23,41,10,9.74,16.31,22.22,15.43,36.48-1,15.58-10.93,28.77-24.8,35.37-5.67,2.7-.73,11.11,4.92,8.43,27.18-12.94,37.78-47,22.58-73.11-12.59-21.59-37-31.32-55.24-47-10.75-9.25-18.18-20.5-21.08-34.52-3.08-14.91-1.17-30.63,2.73-45.2,7.54-28.15,23.77-60.44,6.24-88.38a43.9,43.9,0,0,0-17.84-15.9c-7.21-3.57-16-7-24.21-5.28-13.53,2.82-23.76,18.09-26.91,30.7-1.52,6.09,7.88,8.69,9.41,2.59Z"/><path class="cls-18" d="M1449,1016.53c2.63-11.09,8.27-24.06,21.91-20.49s24.45,12.12,28.46,25.91c8.1,27.81-9.18,55-14.07,81.81-4.58,25.08-1.88,51.77,15.94,71.27,15,16.36,36.13,25,51.83,40.48,10,9.84,16.13,22.59,14.92,36.87-1.28,15.25-11.14,28.06-24.75,34.54-5.66,2.7-.72,11.12,4.93,8.43,27-12.84,37.65-46.52,22.89-72.57-12.21-21.55-36.33-31.4-54.57-46.72-10.54-8.86-18.3-19.54-21.56-33.09-3.49-14.55-2.08-30,1.44-44.4,7-28.67,23.71-59.2,8.78-88.36a42.83,42.83,0,0,0-15.94-17c-6.94-4.21-16.1-8.06-24.36-7.71-15,.63-22.24,15.71-25.26,28.43-1.45,6.11,8,8.71,9.41,2.6Z"/><path class="cls-18" d="M1469.84,1009.2c4.29-9.78,13.4-17,23.38-20.48,3.89-1.36,8.26-2.45,12.39-1.76,6.21,1,11.23,6.1,15,10.83a65.39,65.39,0,0,1,13.7,38.68c.29,14.61-4.92,28.43-8.68,42.33-3.57,13.21-5.61,26.78-2.36,40.28a69.85,69.85,0,0,0,19.91,33.75c17.43,16.58,41.69,24.57,57.58,42.88,23.23,26.76,13.09,65.07,1.8,94.57-2.25,5.87,7.18,8.41,9.41,2.59,11-28.81,19.3-61.93,4.55-91.06-12.48-24.67-39.35-34.21-60-50.31-11.46-9-20.42-20.71-23.87-35-3.75-15.54,1.1-30.89,5.4-45.75,4.23-14.62,7.36-29.12,5.06-44.36a73.15,73.15,0,0,0-18.2-38.51c-9.4-10.08-21.35-13-34.27-8.56-12.18,4.24-23.92,12.92-29.2,25-2.5,5.69,5.9,10.67,8.42,4.92Z"/><path class="cls-18" d="M1506.57,986.13a135.49,135.49,0,0,1,30.12,56.92c5.5,21.85,2.07,45.34,13.21,65.64,10.56,19.24,28.72,32.33,45.8,45.33,17.8,13.56,33.28,28.75,45,47.93,12.48,20.4,20.5,43.09,24.78,66.56,1.12,6.17,10.53,3.56,9.41-2.59-7.77-42.63-28.36-83-62.11-110.79-17.25-14.2-37.43-26.12-50.38-44.8-7-10.09-10.36-20.94-11.46-33.11-1-11.31-1.58-22.53-4.11-33.64a145.58,145.58,0,0,0-33.37-64.35c-4.18-4.7-11.06,2.22-6.9,6.9Z"/><path class="cls-18" d="M1451.7,1007.64c7.62-7.36,19.22-3.19,25.51,3.73,6.88,7.56,9,17.89,8.67,27.85-.89,23.36-12.33,45.36-16.46,68.21-2,11-2.57,22.07-.63,33.09,1.71,9.69,5.47,18.87,9.53,27.78,8,17.62,19.14,36,17,56.11-1.35,12.53-7.44,24.08-12,35.64a135.52,135.52,0,0,0-9,38.53c-.54,6.25,9.22,6.21,9.75,0a130.12,130.12,0,0,1,9.6-38.32c4.55-11.13,9.72-22.11,11.2-34.17,2.66-21.56-8-41-16.82-59.91-4.62-9.91-9-20.27-10.28-31.21-1.57-13.11.89-26.23,4.25-38.86,6.08-22.94,17.8-47.69,12.34-71.88-2.42-10.7-9-21.28-18.87-26.57s-22.36-4.95-30.67,3.08c-4.52,4.37,2.38,11.27,6.9,6.9Z"/><polygon class="cls-9" points="1431.4 1019.64 1470.69 1004.83 1470.69 1011.68 1439.71 1020.78 1431.4 1019.64"/><path class="cls-32" d="M1647.57,579.34s-16.65-3.08-21.38-10.23c-3.9-5.9-2.76-17.94,6.93-24.18,5-3.2,18.46-3.25,21.61-3.54,8.92-.83,17.51,18.7,17.51,18.7Z"/><path class="cls-33" d="M1835.78,615.9l-18.13-38.26,8.64,22.93-12.39-21.23c-62.34,11.3-73.84,11.52-82.52,8.16-18.26-7.08-58.51-31.25-62.54-38.93l-24.5,27.87c.6,1.15,31.33,40.75,81.21,52.15C1777.86,640.54,1835.21,616.25,1835.78,615.9Z"/><path class="cls-16" d="M1731.36,927.43s-3,19.91-11.18,30.07c-5.35,6.69-20.12,19.94-9.62,24.36,8.39,3.52,24.55-12.18,29.79-16.08s13.15-11.3,11.4-17.6c-3.63-13.06-2.44-29.46-2.44-29.46Z"/><path class="cls-16" d="M1771.93,912s4.06,19.74,0,32.08c-2.69,8.14-11.94,25.7-.55,26.19,9.09.39,18.78-20,22.34-25.44s8.4-15.17,4.57-20.46c-8-11-12.53-26.78-12.53-26.78Z"/><path class="cls-8" d="M1766.23,925.93c-108.9-72.65-103.53-136.29-88.43-161.18,17.52-28.9,45.28-51.76,87.81-62a236.38,236.38,0,0,1,31.16-5.2,21.81,21.81,0,0,1,24,22.24l-1,37.07h.09c-18.17-.38-73.3,5.16-87.75,34.54-3,6.1,70.31,92.21,67.58,107.66C1796.57,916.59,1776.88,933,1766.23,925.93Z"/><path class="cls-8" d="M1724,936.81a21.71,21.71,0,0,1-21.82-21.58c0-.47,0-1,0-1.42,1.64-27.8,6.81-75.11,23-110.85,9.18-20.27,23.78-38.7,43.38-54.78,14.79-12.12,32.48-23,52.59-32.21,33.45-15.38,57.54-13.23,57.54-13.23l34.15,29.13c-.25,0,5.64,40.8-36.85,64.5-43.51,24.27-76.73,6.23-94.36,40.74-12.59,24.63-17.4,57.3-19,80.13a20.92,20.92,0,0,1-20.78,19.44Z"/><path class="cls-22" d="M1706.36,875.51h-.67a307.38,307.38,0,0,1,9.45-53.25c7.1-26,20.89-60.16,46.23-75.32l.34.57c-25.14,15-38.85,49-45.92,74.92A306.22,306.22,0,0,0,1706.36,875.51Z"/><path class="cls-22" d="M1761.87,922.75h-.67c.28-38.71,12.94-68.58,13.06-68.88l.63.27C1774.76,854.43,1762.15,884.19,1761.87,922.75Z"/><path class="cls-28" d="M1897.5,600.43s-11.44-30.35-53.92-28.07-71.8,11.89-78,130.44c0,0,35.75,35.34,124.14,40.73,13.07.79,28.9,5.3,29.62-7.78C1920.81,709.71,1915.45,660,1897.5,600.43Z"/><path class="cls-28" d="M1927.73,610.62l-30.24,6.83s-80,22.68-100.62,19.37-30-50.73-30-50.73,27.77-7.48,64.86-14.73a104.71,104.71,0,0,1,10.86-1.54c6.3-.56,12.36-1.13,18.54-.48C1921.56,575.67,1927.73,610.62,1927.73,610.62Z"/><path class="cls-21" d="M1850.24,564.1l-6.39-11.29-1.87-3.28-11-19.31,3.7,20.78,2.2,12.48.69,4c.48,2.68-1,3.59-2.49,6.33-.59,1.11-4.46,7.91,1.9,9.2,7.93,1.61,20.38-6.18,24.13-13.63C1861.09,569.34,1852.31,567.74,1850.24,564.1Z"/><path class="cls-34" d="M1812.82,526.05a28,28,0,0,0,2.47,11.3c2.69,6,5.7-10.85,5.7-10.85Z"/><ellipse class="cls-21" cx="1833.72" cy="537.63" rx="18.85" ry="22.72" transform="matrix(1, -0.08, 0.08, 1, -38.96, 157.29)"/><path class="cls-16" d="M1851.55,529.68l-9.11,1a6.63,6.63,0,0,1-5.45-1.87c-2.45-2.45-5-3.44-13.21-1.31-10.44,2.7-18.77-2.06-21.11-7.32s2.17-10.35,8-8.83,2.17-4.55,7.1-6.36c9.21-3.38,12.59,3.55,20.32,1.61,10.13-2.54,30.09,1.21,25.36,21.06Z"/><path class="cls-25" d="M1832.53,537a.43.43,0,0,1-.23-.25.39.39,0,0,1,.25-.48,4.15,4.15,0,0,1,4.84,1.51.39.39,0,0,1-.06.54.43.43,0,0,1-.54-.06,6.52,6.52,0,0,0-4-1.26A.39.39,0,0,1,1832.53,537Z"/><path class="cls-25" d="M1835.2,541.45a1.45,1.45,0,0,1-1.28,1.59c-.66,0-1.16-.8-1.11-1.71s.62-1.62,1.28-1.59S1835.25,540.54,1835.2,541.45Z"/><path class="cls-25" d="M1818.49,538.93a.35.35,0,0,1-.25-.14.45.45,0,0,1,0-.54,2.68,2.68,0,0,1,3.75-.52l.15.12a.46.46,0,0,1,.12.52.29.29,0,0,1-.38.16h0a4,4,0,0,0-3.24.32A.2.2,0,0,1,1818.49,538.93Z"/><path class="cls-25" d="M1822.73,542a1.48,1.48,0,0,1-.58,2c-.63.22-1.38-.29-1.68-1.15a1.47,1.47,0,0,1,.58-2h0C1821.67,540.63,1822.42,541.15,1822.73,542Z"/><path class="cls-34" d="M1863.49,527.69s-3.25,14.63-11.77,17.51c0,0,4.85-11.66-11.38-14.58C1840.34,530.62,1853.53,525.49,1863.49,527.69Z"/><path class="cls-21" d="M1852.79,537.71a3.69,3.69,0,1,1,.32-5.49A3.89,3.89,0,0,1,1852.79,537.71Z"/><path class="cls-34" d="M1840.34,530.62s3.63,10.89,1.83,13.49-16.59,6.78-24.17,5.61h0a14.9,14.9,0,0,0,15.19,12,21.71,21.71,0,0,0,7.15-1.59h0c4.7-1.92,9-5,10-10,.32-1.51-3.33-9.62-3.33-9.62s-1.76-4.84.57-8.07C1847.62,532.51,1843.61,530.23,1840.34,530.62Z"/><path class="cls-9" d="M1822.57,552.93a38.54,38.54,0,0,0,12.21-1.68s.35,6-6.25,6.24C1824.7,557.63,1822.57,552.93,1822.57,552.93Z"/><path class="cls-16" d="M1811.5,510.29l-.1-.5a2.35,2.35,0,0,0,2.22-2.49v-.05l.51-.06A2.88,2.88,0,0,1,1811.5,510.29Z"/><path class="cls-9" d="M1820.15,525.23c-.5,0-12.22-.89-14-6.73-.51-1.68-.46-2.9.15-3.71,1-1.32,3.16-1.27,5.11-1.25h.83v.25h-1.64c-1.63,0-3.28.14-4,1.16-.56.74-.59,1.88-.11,3.49,1.73,5.66,13.66,6.54,13.78,6.54Z"/><path class="cls-33" d="M1672.79,559.19l-5.37-.77a4.45,4.45,0,0,1-6.12-1.33s-5.59-13.6-11.54-21.13c-7.82-9.9.8-10.53,7.13-4.74C1674,546.86,1671.4,552.71,1672.79,559.19Z"/><path class="cls-21" d="M1813.94,737.25s-18.93-4.75-28.37,1.67-16.66,21.78-10,19,14.3-8.61,14.3-8.61-15.64,13.3-11,15.61,18.19-9.38,18.19-9.38-17.35,17.3-12.21,18,18.22-12.49,18.22-12.49-15.49,16.74-9.5,17.47,12.72-13.92,17.41-11.61,24.11,9.9,32.13-2.36Z"/><path class="cls-31" d="M1790.23,749.63l-.64-.55c.16-.18,3.7-4.19,7.26-4.19h.54l-.1.84C1794,745.35,1790.26,749.59,1790.23,749.63Z"/><path class="cls-31" d="M1797.47,755.85l-.65-.54c.16-.19,3.87-4.54,9.17-4.95l.06.85C1801.11,751.58,1797.51,755.8,1797.47,755.85Z"/><path class="cls-31" d="M1803.48,761.41l-.63-.55c.18-.21,4.16-4.72,7.87-4.72a4.91,4.91,0,0,1,.86.08l-.17.83C1807.93,756.33,1803.53,761.36,1803.48,761.41Z"/><path class="cls-16" d="M1872,618.34c.55,3.95,13.47,5.42,28.87,3.29s27.44-7.06,26.9-11-13.47-5.41-28.87-3.28S1871.41,614.4,1872,618.34Z"/><path class="cls-21" d="M1839.83,768.26c49.92-24.73,74.24-42.53,81.11-89.44,5.59-38.11.76-64.45.39-65.8,0,0-3.17-3.9-22.61-.35-17.33,3.16-18.32,7.26-18.32,7.26a108.2,108.2,0,0,1,.76,51.62c-8.35,35.82-24.93,51.71-67.22,65.7C1813.94,737.25,1829.67,773.29,1839.83,768.26Z"/><path class="cls-16" d="M1872,618.6a.26.26,0,0,1-.25-.2c0-.12-3-12.78-1.45-21.94a.26.26,0,0,1,.25-.21h0a.27.27,0,0,1,.21.3c-1.51,9.05,1.42,21.61,1.45,21.73a.26.26,0,0,1-.19.31Z"/><path class="cls-31" d="M1899.29,711.2a2.32,2.32,0,0,1-1.13-.29c-1.89-1.09-1.64-4.93.57-8.75h0c1.52-2.64,3.57-4.57,5.36-5a2.57,2.57,0,0,1,1.94.17c1.88,1.1,1.63,4.94-.57,8.76a13.12,13.12,0,0,1-3.6,4.17A4.54,4.54,0,0,1,1899.29,711.2Zm5.61-13.15a2,2,0,0,0-.54.08c-1.5.4-3.36,2.19-4.72,4.56h0c-2,3.48-2.11,6.64-1,7.31.58.36,1.52.1,2.57-.65a12.24,12.24,0,0,0,3.29-3.83c2-3.48,2.12-6.65,1-7.32A1.14,1.14,0,0,0,1904.9,698.05Z"/><path class="cls-15" d="M1635.54,675.48a5,5,0,0,1-4.44-7h0l176-384.12a4.94,4.94,0,0,1,9,4.1h0L1640,672.59A4.93,4.93,0,0,1,1635.54,675.48Z"/><path class="cls-15" d="M1612.78,682.43a4.93,4.93,0,0,1-4.63-6.63l187-511.25a4.94,4.94,0,0,1,9.27,3.4l-187,511.24A4.92,4.92,0,0,1,1612.78,682.43Z"/><path class="cls-15" d="M1598.11,686.26a4.78,4.78,0,0,1-1.54-.25,4.94,4.94,0,0,1-3.15-6.23l163.14-497.4a4.93,4.93,0,0,1,9.38,3.07L1602.79,682.86A4.92,4.92,0,0,1,1598.11,686.26Z"/><path class="cls-15" d="M1612.77,688.87A5,5,0,0,1,1610,688a4.94,4.94,0,0,1-1.33-6.85l271.5-402.85a4.93,4.93,0,1,1,8.18,5.51l-271.5,402.85A4.94,4.94,0,0,1,1612.77,688.87Z"/><path class="cls-15" d="M1620.14,690.74a4.8,4.8,0,0,1-2.29-.57,4.93,4.93,0,0,1-2.07-6.66h0l230.29-436.58a4.93,4.93,0,0,1,8.73,4.6L1624.51,688.11A5,5,0,0,1,1620.14,690.74Z"/><path class="cls-15" d="M1630.42,688.39a4.78,4.78,0,0,1-1.79-.34,4.92,4.92,0,0,1-2.8-6.38h0L1800.9,234.44a4.93,4.93,0,0,1,9.18,3.59L1635,685.25A4.94,4.94,0,0,1,1630.42,688.39Z"/><path class="cls-21" d="M1623.73,562.69s-2.9,9.54,4.91,11.76c9.95,2.84,31.75-10.19,9.09-10.52-.66,0,12.89-2,12.57-6.16-.23-3.09-11.75-2.73-11.75-2.73s13.87-2.38,14.09-5.69-11.86-3.05-11.86-3.05,13.77-.57,10.9-5.49c-1.55-2.68-14-2.11-18.74-2.1-4.53,0-6.2,3.21-6.19,8,0,0-2.54,5-1.81,8,.28,1.18-.82,2.35-1,3.21A34.55,34.55,0,0,0,1623.73,562.69Z"/><path class="cls-21" d="M2096.3,941s76.74-.6,82.31,0,40.27-26.33,40.27-26.33l26.64,22s-34.34,38.23-61.35,39.84-93-2-93-2Z"/><path class="cls-21" d="M2229.58,882.77s-46.63,52-45.39,58.82,46.92,10.63,46.92,10.63l13.21-40.8Z"/><path class="cls-16" d="M2293.29,1319s-.27,10.66-7.53,13.66-28.31,5.72-20.45,12.56c4.51,3.93,25.78,1.4,31.78,1.4s11.64,2.59,16.1-1.4c4.91-4.38,0-26.22,0-26.22s-5.18,2.68-9.84,2.56C2296.64,1321.42,2293.29,1319,2293.29,1319Z"/><path class="cls-26" d="M2224.88,999.33s-1.45,48.07,14,140.29c11.16,66.57,24.33,133.66,30.8,165.82a25.22,25.22,0,0,0,23.61,20.38l6.21.25a21.15,21.15,0,0,0,21.79-20.49,22.59,22.59,0,0,0-.06-2.33l-15.68-217.59-3.87-71.61Z"/><path class="cls-16" d="M2356.33,1320.79s-.27,10.65-7.53,13.66-28.31,5.71-20.45,12.56c4.51,3.93,25.78,1.39,31.78,1.39s11.64,2.6,16.1-1.39c4.91-4.39,0-26.22,0-26.22s-5.18,2.68-9.84,2.56C2359.68,1323.17,2356.33,1320.79,2356.33,1320.79Z"/><path class="cls-26" d="M2293.67,999.33s-1.45,48.07,14,140.29c11.16,66.57,24.33,133.66,30.79,165.82a25.24,25.24,0,0,0,23.62,20.38l6.21.25a21.14,21.14,0,0,0,21.78-20.48,22.85,22.85,0,0,0-.06-2.34l-15.68-217.59-3.86-71.61Z"/><path class="cls-16" d="M2378.07,1052c-.15,5.8-35.49,8.11-79.2,6.75s-78.63-7.35-78.48-13.15,35.32-9.2,79-7.85S2378.22,1046.21,2378.07,1052Z"/><path class="cls-20" d="M2367.37,887.82s-7.73-30.4-64.75-30.71c-82.24-.45-74.62,74.54-82.23,188.5,0,0,81-11.37,157.72,5C2378.11,1050.59,2385.23,934.27,2367.37,887.82Z"/><path class="cls-20" d="M2388.42,883.46l-37.24,20.45s-81.55,7.35-103.2,3.81-27.59-19.32-27.59-19.32,23.06-23.67,62.25-30c3.68-.59,7.5-1,11.46-1.29a113,113,0,0,1,19.81.39C2363.58,863.06,2388.42,883.46,2388.42,883.46Z"/><path class="cls-26" d="M2227.27,1050.3s47.36-13.82,145.44,5.16l.76,14-143.78,5Z"/><path class="cls-16" d="M2389.2,884.31c3.16,4.43-1.5,13.19-10.39,19.56s-18.67,7.94-21.83,3.51,1.5-13.19,10.39-19.56S2386,879.88,2389.2,884.31Z"/><path class="cls-16" d="M2234.6,905.3a.48.48,0,0,0,.46-.34c2.35-8.46,10.29-19.08,10.37-19.19a.46.46,0,0,0-.08-.65h0a.48.48,0,0,0-.66.09c-.08.11-8.12,10.87-10.53,19.5a.48.48,0,0,0,.33.58Z"/><path class="cls-16" d="M2310.75,1158.79h.07a.48.48,0,0,0,.39-.55c-.07-.39-6.44-39.58-10.81-53.59-1.48-4.72-4.68-9.66-9.52-14.68a.49.49,0,0,0-.66,0,.46.46,0,0,0,0,.66h0c4.74,4.9,7.87,9.7,9.3,14.3,4.35,14,10.72,53.08,10.78,53.47A.46.46,0,0,0,2310.75,1158.79Z"/><path class="cls-21" d="M2315.34,862.94c3.14-4.46-1.14-5-2.35-9.65l-3.73-14.39-1.09-4.19-6.38-24.63-2.18,24.09-1.31,14.46-.41,4.58c-.28,3.1-1.16,3.51-3.62,6.1-1,1.05-4.73,5.31-.21,7.66C2298.11,869.07,2311.34,868.62,2315.34,862.94Z"/><path class="cls-16" d="M2314.92,833.59s24.22-7.52,21.23-25.32-22.36,15.3-22.36,15.3l-1.27,9.21Z"/><path class="cls-16" d="M2309.35,838.51l-.09.39c-1.86,7.58-10.91,9.78-10.91,9.78h0l1.31-14.46c2.74-.5,6.58-.84,8.56.54C2309.21,835.43,2309.74,836.62,2309.35,838.51Z"/><ellipse class="cls-21" cx="2305.39" cy="807.02" rx="25.8" ry="21.55" transform="translate(1119.84 2942.58) rotate(-80.26)"/><ellipse class="cls-21" cx="2299.88" cy="816.53" rx="25.68" ry="21.45" transform="translate(1106.03 2945.12) rotate(-80.26)"/><path class="cls-16" d="M2318.36,816.44s-7.11,1.19-9.94-4.13-4.45-9.85-16.72-9.79-22-7.4-21.25-13.87,7.51-8.37,13.56-5.07.21-3.71,7.38-7.37,15.15,7.61,22,7.4,27.36,6.72,22.78,24.66Z"/><path class="cls-21" d="M2320.87,821.71a4.47,4.47,0,0,1-6.14-1.2,4.4,4.4,0,0,1,1.89-5.93h0a4.46,4.46,0,0,1,6.14,1.21,4.38,4.38,0,0,1-1.86,5.91Z"/><path class="cls-9" d="M2286.92,792.67a34.37,34.37,0,0,0,7.88-1.13l-.08-.28c-.09,0-9.64,2.64-13.08-.24-1.66-1.4-1.77-2.54-1.33-3.16s2-.93,3.58,0a8.86,8.86,0,0,0,5.25,1.62v-.28h-.22a9.51,9.51,0,0,1-4.84-1.59c-1.68-1.08-3.34-.78-4,.06s-.44,2,1.37,3.55C2282.73,792.33,2284.8,792.67,2286.92,792.67Z"/><path class="cls-9" d="M2325.35,789.59l.17-.22c-2.52-1.9-5.67-1.81-9.24-1.74a47.14,47.14,0,0,1-5.7-.08c-6.07-.53-10.77-6.45-10.88-6.82l-.28.07c.1.39,4.74,6.48,11.13,7a45.66,45.66,0,0,0,5.73.09C2319.81,787.84,2322.9,787.77,2325.35,789.59Z"/><path class="cls-9" d="M2331.9,804.84c-.92-.1-2.28-2.85-2.28-4.22,0-.7.36-.84.57-.86h.1c1.65,0,2.3,4,2.33,4.19v0c-.14.7-.43.86-.67.86Zm-1.61-4.8h-.07c-.08,0-.31,0-.31.58,0,1.29,1.32,3.86,2,3.92h0c.21,0,.32-.31.38-.59-.15-1.14-.85-4-2-4Z"/><path class="cls-25" d="M2295.73,815.83a.44.44,0,0,1-.26-.29.43.43,0,0,1,.3-.53h0a4.72,4.72,0,0,1,5.45,1.9.43.43,0,0,1-.09.6.49.49,0,0,1-.61-.09,7.56,7.56,0,0,0-4.52-1.58A.42.42,0,0,1,2295.73,815.83Z"/><path class="cls-25" d="M2297.51,820.84c-.3,1-1.13,1.6-1.85,1.38a1.66,1.66,0,0,1-.75-2.18c.3-1,1.13-1.6,1.85-1.38A1.66,1.66,0,0,1,2297.51,820.84Z"/><path class="cls-25" d="M2279.73,813.19a.32.32,0,0,1-.2-.25.5.5,0,0,1,.25-.55,3,3,0,0,1,4.2,1,1.74,1.74,0,0,1,.11.18.49.49,0,0,1-.08.59.32.32,0,0,1-.47,0l0,0a4.52,4.52,0,0,0-3.57-1A.33.33,0,0,1,2279.73,813.19Z"/><path class="cls-25" d="M2283.59,818a1.71,1.71,0,0,1-1.18,2c-.75.09-1.44-.7-1.54-1.73a1.7,1.7,0,0,1,1.19-2C2282.81,816.18,2283.5,817,2283.59,818Z"/><path class="cls-9" d="M2274.13,829.51c-2.69-1.81-4.49-5.67-4.82-10.34-.54-7.63,3-15.14,7.86-16.72a5.79,5.79,0,0,1,5.27.75c2.68,1.81,4.48,5.66,4.81,10.33.54,7.63-3,15.14-7.87,16.73a5.88,5.88,0,0,1-5.25-.75Zm3.32-26.21c-4.51,1.46-7.76,8.56-7.24,15.81.31,4.39,2,8,4.42,9.65a5,5,0,0,0,4.47.66c4.51-1.48,7.77-8.59,7.25-15.83-.31-4.39-2-8-4.42-9.64a5.07,5.07,0,0,0-2.86-.92A5,5,0,0,0,2277.45,803.3Z"/><path class="cls-27" d="M2311.17,814.41c-.1,7.27-4.44,14.06-9.68,15.16s-9.41-3.89-9.31-11.16,4.44-14.06,9.68-15.17S2311.28,807.14,2311.17,814.41Z"/><path class="cls-27" d="M2287.3,814.15c-.11,7.3-4.06,14.29-8.82,15.62s-8.53-3.51-8.42-10.81,4.05-14.3,8.81-15.63S2287.4,806.84,2287.3,814.15Z"/><path class="cls-9" d="M2294.88,828.06c-2.65-2.19-4.15-6-4.11-10.54.09-7.79,4.84-15.07,10.6-16.22a7.29,7.29,0,0,1,6.41,1.62c2.65,2.18,4.14,6,4.1,10.52h0c-.07,7.77-4.83,15.06-10.6,16.23a9.43,9.43,0,0,1-1.59.17A7.5,7.5,0,0,1,2294.88,828.06Zm6.66-25.89c-5.36,1.09-9.8,8-9.87,15.35,0,4.17,1.37,7.85,3.78,9.84a6.58,6.58,0,0,0,5.65,1.43c5.38-1.1,9.81-8,9.87-15.35h0c.05-4.16-1.36-7.84-3.76-9.83A6.53,6.53,0,0,0,2303,802a8,8,0,0,0-1.46.17Z"/><path class="cls-9" d="M2292.78,816.91a.85.85,0,0,0,.35-1.61,9,9,0,0,0-7.56-.37.84.84,0,0,0-.39,1.12.85.85,0,0,0,1.12.38h0a7.58,7.58,0,0,1,6.13.4A.85.85,0,0,0,2292.78,816.91Z"/><path class="cls-16" d="M2336.24,808.48c3.86-1.77,3-5.93,3-6l-.47.09A4.93,4.93,0,0,1,2336,808Z"/><path class="cls-16" d="M2338.58,813.61l.41-.25c-.08-.13-1.88-3.09-4.08-3.63l-.11.47C2336.81,810.69,2338.57,813.58,2338.58,813.61Z"/><path class="cls-9" d="M2285.17,830.54a43.47,43.47,0,0,0,13.78,1.07s-1,6.62-8.34,5.3C2286.38,836.14,2285.17,830.54,2285.17,830.54Z"/><path class="cls-35" d="M2114.53,959.41s4.12,79.38,24.52,88.39,134.4-20.26,138.21-30.77-18.66-91.81-18.66-91.81Z"/><path class="cls-36" d="M2272.55,1050.44l-123.73,29.36a32.24,32.24,0,0,1-34.23-13.16,67.14,67.14,0,0,1-9.63-22.11c-32.66-137.53-4.86-197.66-4.86-197.66l121.25-30s44.48,64.68,60.26,111c13.17,38.66,23.42,67.69,25,85.13C2308.26,1031.91,2291,1046.07,2272.55,1050.44Z"/><path class="cls-8" d="M2238.73,841.52c1.4,5.9-29.71,18.34-69.49,27.79s-73.17,12.31-74.57,6.4,29.71-18.34,69.49-27.78S2237.33,835.62,2238.73,841.52Z"/><rect class="cls-8" x="2089.26" y="829.82" width="148.06" height="29.3" transform="translate(-136.53 522.32) rotate(-13.35)"/><path class="cls-37" d="M2232,813c1.4,5.91-29.71,18.35-69.49,27.79s-73.17,12.31-74.57,6.41,29.71-18.35,69.49-27.79S2230.56,807.11,2232,813Z"/><ellipse class="cls-9" cx="2186.55" cy="942.43" rx="74.03" ry="10.98" transform="translate(-158.52 530.34) rotate(-13.35)"/><path class="cls-16" d="M2126.58,840.3c3,0,3-4.59,0-4.59S2123.58,840.3,2126.58,840.3Z"/><path class="cls-16" d="M2149,837c3,0,3-4.6,0-4.6S2146,837,2149,837Z"/><path class="cls-16" d="M2170.63,832.84c3,0,3-4.6,0-4.6S2167.63,832.84,2170.63,832.84Z"/><path class="cls-16" d="M2191.75,826.25c2.95,0,3-4.59,0-4.59S2188.75,826.25,2191.75,826.25Z"/><path class="cls-16" d="M2178.25,823.79c3,0,3-4.6,0-4.6S2175.25,823.79,2178.25,823.79Z"/><path class="cls-16" d="M2156.47,830.22c3,0,3-4.6,0-4.6S2153.47,830.22,2156.47,830.22Z"/><path class="cls-16" d="M2138.82,832.83c3,0,3-4.6,0-4.6S2135.82,832.83,2138.82,832.83Z"/><path class="cls-21" d="M2281.18,989.8l-3.52-10.8c0-3.06,9.24-11.54,12.2-10.71,21.74,6.13,43,1.52,57.64-12.52,10.36-10,13.07-34.71,10.75-47.3-1.19-6.44,1-10.75,8.8-14.87a53.47,53.47,0,0,1,15.06-5.09c3.33-.56,6.63.76,7.49,4a134.41,134.41,0,0,1,3.92,22.26c2,22.07-2.32,41.27-12.4,55.52-12.39,17.49-53.6,35.74-97.95,33C2279.85,1003.15,2281.23,993.1,2281.18,989.8Z"/><g class="cls-38"><path class="cls-39" d="M2370.14,963.53a4.68,4.68,0,0,1-1.67-3.23,9.3,9.3,0,0,1,2.26-6.56c2.83-3.5,7-4.62,9.51-2.67a4.69,4.69,0,0,1,1.66,3.24,9.29,9.29,0,0,1-2.26,6.55h0a9,9,0,0,1-6.63,3.62A4.51,4.51,0,0,1,2370.14,963.53Zm8.33-3.6a7.84,7.84,0,0,0,1.93-5.47,3.25,3.25,0,0,0-1.1-2.21c-1.85-1.45-5.14-.34-7.4,2.44a7.8,7.8,0,0,0-1.93,5.46,3.16,3.16,0,0,0,1.11,2.19c1.77,1.47,5.17.31,7.39-2.41Z"/></g><path class="cls-21" d="M2289.86,968.31s-5.49-16.49-14.89-20.52-24.48-2.15-19.19,1.59,13.38,6.64,13.38,6.64-17.58-5.42-17.07-.79,15.83,9.19,15.83,9.19-21.43-4.79-19.53-.57,18.21,7.75,18.21,7.75-20.12-3.67-17.79,1.18,16.64,2.92,17.15,7.55,4.08,22.84,17.21,23Z"/><path class="cls-31" d="M2275.43,959.85l.68-.31c-1.44-3-6.67-3.86-6.9-3.89l-.11.74C2269.15,956.39,2274.16,957.19,2275.43,959.85Z"/><path class="cls-31" d="M2275.51,969l.6-.47c-2.85-3.78-7.92-4.48-8.14-4.51l-.1.74C2267.92,964.8,2272.85,965.5,2275.51,969Z"/><path class="cls-31" d="M2273.66,975.85l.7-.28c-1.26-3.34-7.44-4.3-7.7-4.35l-.11.75S2272.55,972.9,2273.66,975.85Z"/><path class="cls-21" d="M2082.62,964.91s-.12,11.62,9.34,11.54c12.06-.09,32.15-21.81,6.72-14.75-.75.21,13.74-6.5,12-11-1.27-3.38-14,.8-14,.8s14.73-7.21,13.88-11-14.26.47-14.26.47,15.21-5.15,10.39-9.72c-2.62-2.48-16.29,2.23-21.64,3.81-5.06,1.49-5.88,5.62-4.3,11,0,0-1.21,6.39.61,9.58.7,1.23-.14,2.9,0,3.92A40.76,40.76,0,0,0,2082.62,964.91Z"/><polygon class="cls-15" points="1564.72 1544.02 1391.77 1544.8 1414.81 1475.55 1588.95 1474.77 1564.72 1544.02"/><ellipse class="cls-15" cx="1576.87" cy="1509.5" rx="37.31" ry="16.74" transform="translate(-452.32 2314.16) rotate(-65.38)"/><path class="cls-40" d="M1420.33,1492.34a1,1,0,0,1,0-2l176-.8h0a1,1,0,0,1,0,2Z"/><path class="cls-40" d="M1418,1481.57a1,1,0,0,1,0-2l176-.79h0a1,1,0,0,1,0,2Z"/><path class="cls-40" d="M1419.46,1503.13a1,1,0,0,1,0-2l176-.8h0a1,1,0,0,1,0,2Z"/><path class="cls-40" d="M1414.51,1517.31a1,1,0,1,1,0-2l176-.78h0a1,1,0,0,1,0,2Z"/><path class="cls-40" d="M1408,1528.44a1,1,0,0,1,0-2l176-.8h0a1,1,0,0,1,0,2Z"/><path class="cls-40" d="M1399.26,1539.16a1,1,0,0,1,0-2l176-.8h0a1,1,0,0,1,0,2l-176,.79Z"/><path class="cls-41" d="M1422,1510.1c-4.74,13.52-12.89,25.26-20.79,31-3.26,2.36-6.48,3.7-9.4,3.72-10,0-12.63-15.43-5.94-34.56s20.21-34.65,30.18-34.71c4.92,0,8.06,3.73,9.17,9.83S1425.34,1500.4,1422,1510.1Z"/><path class="cls-42" d="M1422,1510.1c-4.74,13.52-12.89,25.26-20.79,31-5.62-3.21,2.43-12.39,1.29-17.62-1.4-6.47,13.32-11.38,13-22.42-.28-8.91,6.94-14,9.75-15.68C1426.33,1491.63,1425.34,1500.4,1422,1510.1Z"/><polygon class="cls-15" points="763.25 1555.72 590.3 1556.5 613.34 1487.26 787.49 1486.47 763.25 1555.72"/><ellipse class="cls-15" cx="775.38" cy="1521.19" rx="37.31" ry="16.74" transform="translate(-930.54 1592.35) rotate(-65.38)"/><path class="cls-40" d="M618.87,1504a1,1,0,1,1,0-2l176-.8h0a1,1,0,1,1,0,2Z"/><path class="cls-40" d="M616.53,1493.28a1,1,0,0,1,0-2l176-.79h0a1,1,0,0,1,0,2l-176,.8Z"/><path class="cls-40" d="M618,1514.83a1,1,0,0,1,0-2l176-.8h0a1,1,0,0,1,0,2Z"/><path class="cls-40" d="M613,1529a1,1,0,0,1,0-2l176-.78h0a1,1,0,1,1,0,2Z"/><path class="cls-40" d="M606.52,1540.14a1,1,0,1,1,0-2l176-.8h0a1,1,0,0,1,0,2Z"/><path class="cls-40" d="M597.79,1550.87a1,1,0,0,1,0-2l176-.79h0a1,1,0,0,1,0,2l-176,.8Z"/><path class="cls-41" d="M620.48,1521.8c-4.74,13.52-12.88,25.26-20.79,31-3.25,2.36-6.48,3.7-9.39,3.72-10,0-12.63-15.43-5.95-34.55s20.21-34.66,30.18-34.71c4.92,0,8.06,3.73,9.18,9.82C624.86,1503.33,623.88,1512.1,620.48,1521.8Z"/><path class="cls-42" d="M620.48,1521.8c-4.74,13.52-12.88,25.26-20.79,31-5.62-3.21,2.43-12.39,1.3-17.61-1.4-6.48,13.31-11.38,13-22.43-.28-8.91,6.94-14,9.76-15.68C624.86,1503.33,623.88,1512.1,620.48,1521.8Z"/><polygon class="cls-15" points="2027.2 1075.51 1891.68 1013.2 1932.22 960.94 2068.68 1023.68 2027.2 1075.51"/><ellipse class="cls-15" cx="2047.93" cy="1049.57" rx="33.46" ry="15" transform="translate(-106.93 1857.16) rotate(-47.68)"/><path class="cls-40" d="M2069.32,1041.09a1,1,0,0,1-.37-.08L1931,977.59a.86.86,0,0,1-.43-1.15h0a.85.85,0,0,1,1.11-.46l.06,0,137.91,63.41a.88.88,0,0,1,.44,1.16A.91.91,0,0,1,2069.32,1041.09Z"/><path class="cls-40" d="M2071,1030.79a.67.67,0,0,1-.37-.08L1932.72,967.3a.88.88,0,0,1-.44-1.16.85.85,0,0,1,1.11-.46l.07,0,137.92,63.41a.88.88,0,0,1-.38,1.67Z"/><path class="cls-40" d="M2065.13,1050.2a.67.67,0,0,1-.37-.08l-137.91-63.41a.86.86,0,0,1-.43-1.15h0a.85.85,0,0,1,1.11-.46l.06,0,137.91,63.41a.86.86,0,0,1,.44,1.13v0A.89.89,0,0,1,2065.13,1050.2Z"/><path class="cls-40" d="M2056.65,1060.83a.67.67,0,0,1-.37-.08l-137.92-63.41a.86.86,0,0,1-.43-1.15h0a.82.82,0,0,1,1.07-.47l.1,0,137.9,63.41a.87.87,0,0,1,.43,1.16A.89.89,0,0,1,2056.65,1060.83Z"/><path class="cls-40" d="M2047.92,1068.21a1,1,0,0,1-.37-.08l-137.91-63.42a.88.88,0,0,1-.44-1.16.85.85,0,0,1,1.13-.45l.05,0,137.91,63.41a.88.88,0,0,1,.44,1.16A.89.89,0,0,1,2047.92,1068.21Z"/><path class="cls-40" d="M2037.61,1074.41a.78.78,0,0,1-.37-.09l-137.92-63.41a.87.87,0,0,1-.43-1.16.84.84,0,0,1,1.09-.47l.09,0L2038,1072.73a.88.88,0,0,1-.37,1.68Z"/><path class="cls-41" d="M1926.57,993.79c-8.1,10.12-18.29,17.44-26.33,19.58-3.32.88-6.28.88-8.56-.17-7.81-3.59-4.86-18.11,6.58-32.43s27.08-23,34.9-19.41c3.85,1.78,5.09,6.21,4,11.95C1936,979.22,1932.38,986.53,1926.57,993.79Z"/><path class="cls-42" d="M1926.57,993.79c-8.1,10.12-18.29,17.44-26.33,19.58-3.36-4.86,5.92-10,6.74-15,1-6.18,14.11-5.12,17.43-14.92,2.68-7.91,10-9.76,12.73-10.18C1936,979.22,1932.38,986.53,1926.57,993.79Z"/><polygon class="cls-15" points="1382.8 499.93 1260.36 520.14 1263.95 465.23 1387.23 444.88 1382.8 499.93"/><path class="cls-15" d="M1397.8,470.29c-1.22,15.2-7.94,28.47-15,29.64s-11.79-10.22-10.57-25.42,7.94-28.47,15-29.63S1399,455.09,1397.8,470.29Z"/><path class="cls-40" d="M1395.78,456.58a.65.65,0,0,1-.29.11L1270.9,477.26a.73.73,0,0,1-.84-.6.71.71,0,0,1,.55-.84h.06l124.59-20.56a.73.73,0,0,1,.84.6A.75.75,0,0,1,1395.78,456.58Z"/><path class="cls-40" d="M1392.15,448.7a.56.56,0,0,1-.3.12l-124.59,20.57a.73.73,0,0,1-.84-.6.71.71,0,0,1,.53-.84h.08l124.59-20.57a.74.74,0,0,1,.84.6A.73.73,0,0,1,1392.15,448.7Z"/><path class="cls-40" d="M1397.14,464.81a.5.5,0,0,1-.29.12L1272.26,485.5a.74.74,0,0,1-.84-.6.71.71,0,0,1,.55-.84h.06l124.59-20.56a.72.72,0,0,1,.52,1.32Z"/><path class="cls-40" d="M1396.25,476.09a.5.5,0,0,1-.29.12l-124.6,20.57a.73.73,0,0,1-.84-.6.71.71,0,0,1,.53-.84h.08l124.6-20.57a.74.74,0,0,1,.83.6A.73.73,0,0,1,1396.25,476.09Z"/><path class="cls-40" d="M1393.67,485.24a.5.5,0,0,1-.29.12l-124.6,20.56a.72.72,0,0,1-.84-.58h0a.71.71,0,0,1,.55-.84h.06l124.6-20.57a.73.73,0,0,1,.52,1.33Z"/><path class="cls-40" d="M1389.46,494.32a.64.64,0,0,1-.3.11L1264.57,515a.72.72,0,0,1-.84-.58v0a.7.7,0,0,1,.52-.83h.09L1388.93,493a.73.73,0,0,1,.84.6A.75.75,0,0,1,1389.46,494.32Z"/><path class="cls-41" d="M1275.37,490.51c-.87,10.75-4.48,20.54-9,25.76a10.69,10.69,0,0,1-6,3.87c-7.06,1.17-11.79-10.22-10.57-25.42s8-28.46,15-29.63c3.49-.58,6.4,1.9,8.31,6.38S1276,482.8,1275.37,490.51Z"/><path class="cls-42" d="M1275.37,490.51c-.87,10.75-4.48,20.54-9,25.76-4.58-1.79-.56-9.64-2.33-13.45-2.18-4.73,7.35-10.11,5.07-18.41-1.84-6.7,2.33-11.38,4-12.94C1275.08,476.06,1276,482.8,1275.37,490.51Z"/><path class="cls-15" d="M1405.83,986s-54.87-56.51-70.67-56.86c-10.72-.25-75.44,4.1-75.44,4.1s1.23-20.35,11.78-29.71a78.92,78.92,0,0,1,3-17.45c2.42-8.21,6.79-17.13,14.61-21.4,0,0,.29-21.79,16.15-31.13,0,0,38.15,66.2,45,69.63,9.91,5,78.53-19.55,85.19-17.95s3.31,28.41-9,37.06a56.48,56.48,0,0,1-1.9,20,40.91,40.91,0,0,1-6.94,14S1420.09,978.09,1405.83,986Z"/><path class="cls-41" d="M1405.83,986s-54.87-56.51-70.67-56.86c-10.72-.25-75.44,4.1-75.44,4.1s1.23-20.35,11.78-29.71a78.92,78.92,0,0,1,3-17.45c10.13,8.12,45.62,35.56,65.38,38.69,23.21,3.64,15,5.86,30.56,13.12,12.85,6,42,.15,54.09,4.38a40.91,40.91,0,0,1-6.94,14S1420.09,978.09,1405.83,986Z"/><path class="cls-41" d="M1299.33,863.34c14.91,18.55,31,43.57,55,50.57,20.1,5.86,45,6,65.25.59,3-.8,2.14-5.57-.88-4.76a120.68,120.68,0,0,1-58.93.15c-24.44-6.41-41.4-30.59-56.73-49.67-2-2.43-5.66.69-3.71,3.12Z"/><path class="cls-41" d="M1286.8,885.81c32.2,31,73,45.62,117.11,49.13,3.1.25,3.47-4.58.36-4.83-42.72-3.4-82.52-17.34-113.77-47.42C1288.28,880.55,1284.5,883.69,1286.8,885.81Z"/><path class="cls-15" d="M2278.17,1458.13s-75.77-21.54-89.64-13.94c-9.41,5.13-63.3,41.24-63.3,41.24s-9.09-18.24-4.63-31.62a79,79,0,0,1-6.1-16.63c-2-8.32-2.67-18.23,2-25.84,0,0-10.64-19-1.57-35,0,0,66.12,38.28,73.79,37.82,11.06-.64,58.25-56.17,64.82-58.11s17.07,23,10.69,36.61a56.55,56.55,0,0,1,8.34,18.26,41.07,41.07,0,0,1,1,15.61S2286.58,1444.17,2278.17,1458.13Z"/><path class="cls-41" d="M2278.17,1458.13s-75.77-21.54-89.64-13.94c-9.41,5.13-63.3,41.24-63.3,41.24s-9.09-18.24-4.63-31.62a79,79,0,0,1-6.1-16.63c12.84,2,57.28,8,76,.85,21.92-8.44,16-2.44,33-3.9,14.13-1.23,36.49-20.87,49.05-23.24a41.07,41.07,0,0,1,1,15.61S2286.58,1444.17,2278.17,1458.13Z"/><path class="cls-41" d="M2124.64,1405.11c22.17,8.62,48.63,22.25,72.9,16.32,20.34-5,42-17.33,56.82-32.09,2.19-2.19-.93-5.89-3.14-3.69a120.72,120.72,0,0,1-51,29.58c-24.37,6.67-51.14-5.81-73.95-14.67-2.91-1.13-4.56,3.42-1.65,4.55Z"/><path class="cls-41" d="M2125,1430.84c43.38,10.76,86.07,3,126-16,2.81-1.34.71-5.71-2.11-4.37-38.7,18.4-80.14,26.22-122.23,15.78-3-.75-4.68,3.8-1.66,4.55Z"/><path class="cls-15" d="M1786,1602.48s-54.88-56.51-70.68-56.86c-10.72-.25-75.44,4.1-75.44,4.1s1.23-20.35,11.78-29.71a79.51,79.51,0,0,1,3-17.45c2.42-8.21,6.79-17.12,14.62-21.4,0,0,.28-21.79,16.14-31.13,0,0,38.15,66.2,45,69.63,9.91,5,78.53-19.55,85.19-18s3.32,28.41-9,37.06a56.72,56.72,0,0,1-1.91,20,40.91,40.91,0,0,1-6.94,14S1800.24,1594.59,1786,1602.48Z"/><path class="cls-41" d="M1786,1602.48s-54.88-56.51-70.68-56.86c-10.72-.25-75.44,4.1-75.44,4.1s1.23-20.35,11.78-29.71a79.51,79.51,0,0,1,3-17.45c10.13,8.13,45.62,35.56,65.38,38.69,23.21,3.65,15,5.86,30.56,13.13,12.85,6,42,.15,54.09,4.37a40.91,40.91,0,0,1-6.94,14S1800.24,1594.59,1786,1602.48Z"/><path class="cls-41" d="M1679.49,1479.84c14.9,18.55,31,43.58,55,50.57,20.1,5.86,45,6,65.25.59,3-.8,2.14-5.57-.88-4.76a120.68,120.68,0,0,1-58.93.15c-24.44-6.41-41.39-30.58-56.73-49.66-2-2.44-5.65.68-3.7,3.11Z"/><path class="cls-41" d="M1667,1502.31c32.2,31,73,45.62,117.11,49.13,3.11.25,3.47-4.58.36-4.83-42.72-3.4-82.52-17.33-113.77-47.41C1668.48,1497.05,1664.7,1500.2,1667,1502.31Z"/><path class="cls-1" d="M2010.43,404.51s-13-25.07-46-21.93-29.06,28.27-44.77,25.91-37.69,0-42.4,15.71-25.92,7.07-26.7,20.42,24.34,22.77,53.4,11,43.19,9.15,84,5.36,45.89-8.5,70.06-6.14,23.6-14.2,12.6-25.19S2015.15,419.69,2010.43,404.51Z"/><path class="cls-1" d="M984.34,466.25s-14.62-28-51.6-24.5-32.58,31.59-50.19,29-42.26,0-47.54,17.55-29.06,7.9-29.94,22.81,27.3,25.45,59.87,12.29,48.43,10.22,94.22,6,51.46-9.5,78.56-6.87,26.45-15.86,14.13-28.14S989.62,483.22,984.34,466.25Z"/><path class="cls-41" d="M599.51,1056.22l407.73,120.23L915.5,1018.66S731.35,966.33,599.51,1056.22Z"/><path class="cls-15" d="M960.37,1258.93a43.06,43.06,0,0,0,43.06,43.06h0a29.88,29.88,0,0,0,3.8-.16v100.7a27.22,27.22,0,0,0,0,54.44v43.83L599.51,1397.06V1056.22l407.73,120.23V1216c-1.25-.12-2.51-.17-3.8-.17a43.07,43.07,0,0,0-43.07,43.07Z"/><circle class="cls-41" cx="893.01" cy="1233.45" r="39.64"/><circle class="cls-41" cx="674.22" cy="1290.51" r="39.64"/><circle class="cls-43" cx="688.91" cy="1292.01" r="31.58" transform="translate(-751.94 1552.47) rotate(-72.18)"/><circle class="cls-43" cx="891.56" cy="1242.14" r="43.06"/><circle class="cls-41" cx="779.76" cy="1370.76" r="30.03"/><circle class="cls-43" cx="779.73" cy="1362.25" r="32.62"/><circle class="cls-41" cx="908.41" cy="1360.71" r="35.44"/><circle class="cls-43" cx="907.79" cy="1367.72" r="38.5"/><circle class="cls-41" cx="786.72" cy="1233.4" r="27.51"/><circle class="cls-43" cx="775.19" cy="1236.61" r="29.88"/><circle class="cls-41" cx="692.73" cy="1158.11" r="32.05" transform="translate(-434.47 416.15) rotate(-25.76)"/><circle class="cls-43" cx="679.19" cy="1162.05" r="34.81" transform="translate(-585.09 700.27) rotate(-39.63)"/><path class="cls-44" d="M934.93,1102.3s-34.48-62.2-53-71.64-70.73-8.79-72.48-1.08,59.2,24.44,79.33,46.86S944.65,1118.59,934.93,1102.3Z"/><path class="cls-15" d="M1286.11,666.94a5.39,5.39,0,0,1-4.54-2.49L1032.2,272a5.37,5.37,0,0,1,9.06-5.75L1290.63,658.7a5.36,5.36,0,0,1-4.52,8.24Z"/><path class="cls-10" d="M1587.69,677.49l59.19-4.73-1,14.85s-14.31,3.68-14.8,3.52-41-1.79-41-1.79Z"/><circle class="cls-9" cx="1323.8" cy="629.77" r="29.66" transform="translate(-140.23 554.54) rotate(-22.5)"/><circle class="cls-9" cx="1365.16" cy="644.5" r="26.05" transform="translate(-142.72 571.48) rotate(-22.5)"/><circle class="cls-9" cx="1464.26" cy="635.33" r="35.22" transform="translate(-131.67 608.71) rotate(-22.5)"/><circle class="cls-9" cx="1116.63" cy="635.29" r="30.95" transform="translate(241.83 1576.13) rotate(-76.72)"/><ellipse class="cls-9" cx="1243.36" cy="659.43" rx="58" ry="20.06"/><ellipse class="cls-9" cx="1516.29" cy="644.5" rx="23.64" ry="20.06"/><ellipse class="cls-9" cx="1036.73" cy="639.37" rx="23.64" ry="20.06"/><ellipse class="cls-9" cx="1070.58" cy="649.83" rx="23.64" ry="20.06"/><ellipse class="cls-9" cx="1008.85" cy="648.03" rx="14.97" ry="12.71"/><path class="cls-21" d="M614.52,713c-.42,1.47-.8,2.75-1.06,3.73a9.8,9.8,0,0,1-.84,2.1A87.59,87.59,0,0,1,604,737.12s-25.74-1.41-26.85-3.73c-2.58-5.36-5.25-17.08-7.72-22.49-1.07-2.34-4.13-10.48-1.92-11.86,1.92-1.21,7.44,4.08,9.76,6.92,3.1-16.78,9.24-44.5,11.22-4.32h.06c.73-3.57,4.37-27.95,8.76-25.14,3.87,2.47,2,21.33.85,27.21h.16c1.68-5.88,5.46-22.84,8.37-19.3,3.64,4.46,2.12,23.09,2.12,23.09s3.87-15.39,6.82-12.39c2.64,2.68.93,10.84-1.07,17.86Z"/><path class="cls-21" d="M576.46,729.89c-7.69,39.85-23.41,97.37-47.15,141-5.5,10.1-7.75,13.88-11.8,19.29-3.25,4.36.72,15.05,8.11,20.7,6.94,5.3,16.64,5.18,21.53.69,3.65-3.35,6.57-7.61,12.88-18.77,22-38.8,35.8-93.69,46.91-160.8Z"/><path class="cls-39" d="M593,731.23a.48.48,0,0,0,.47-.38c0-.06,1-5.34-3.45-7.84-4.06-2.32-8.11-7.15-8.15-7.18a.48.48,0,0,0-.65-.16.47.47,0,0,0-.15.65.39.39,0,0,0,.08.1,37.11,37.11,0,0,0,8.4,7.41c3.83,2.17,3,6.64,3,6.84a.46.46,0,0,0,.36.54h0Z"/><path class="cls-16" d="M506.29,1342.78s.3,12,8.46,15.34,31.79,6.42,23,14.11c-5.06,4.41-28.94,1.56-35.68,1.56S489,1376.7,484,1372.22c-5.51-4.92,0-29.44,0-29.44s5.81,3,11,2.87C502.52,1345.46,506.29,1342.78,506.29,1342.78Z"/><path class="cls-16" d="M412.62,1342.78s.3,12,8.46,15.33,31.79,6.42,23,14.11c-5.07,4.42-29,1.56-35.69,1.56s-13.07,2.92-18.08-1.56c-5.52-4.92,0-29.44,0-29.44s5.82,3,11.05,2.87C408.86,1345.46,412.62,1342.78,412.62,1342.78Z"/><path class="cls-28" d="M566.91,1014.86s1.51,50.07-14.6,146.12c-11.62,69.35-25.35,139.22-32.08,172.72a26.27,26.27,0,0,1-24.6,21.23l-6.47.25a22,22,0,0,1-22.68-21.3,20.21,20.21,0,0,1,.06-2.46l16.33-226.64,4-74.6Z"/><path class="cls-16" d="M419.6,1058.92c.74,6.1,35.47,5.36,78,0s75.61-14.48,74.86-20.58-35-6.83-77.55-1.49S418.86,1052.83,419.6,1058.92Z"/><path class="cls-28" d="M518.1,1050.62,427.33,1340A29.21,29.21,0,0,1,400,1360.6l-5.46.09c-12.88.22-22.72-11.6-20.38-24.46l49.66-271.89a9,9,0,0,1,6.26-6.7C447.14,1052.77,519.77,1038.66,518.1,1050.62Z"/><path class="cls-45" d="M433.79,892.33s12.08-33.72,55.1-32.19,75.51,57.64,83.55,178.22c0,0-70.44-15.33-153,20.43C419.47,1058.79,414.9,941.48,433.79,892.33Z"/><path class="cls-45" d="M435.27,850l4.44,64.89s92.4,19.91,107,4.64c38.46-40.18-2.12-81-2.12-81s-22.9,26.35-44.8,22.66c-3.54-.6-7.1-.74-10.91-1-6.38-.45-10.68.3-17,.13C448.13,859.62,435.27,850,435.27,850Z"/><path class="cls-22" d="M477.53,1180l19.52-58.89A55.94,55.94,0,0,1,522.47,1090l-.76-1.31a57.39,57.39,0,0,0-26.1,32l-19.53,58.88Z"/><path class="cls-7" d="M518.39,852.64c.24-.07,5.81-1.41,7.45-5.38.85-2.07.46-4.47-1.18-7.11-.74-1.19-1.41-2.27-2-3.24-4.31-6.82-5.75-9.12-4.63-14.45l-.49-.1c-1.17,5.53.43,8.06,4.7,14.81.62,1,1.3,2.06,2,3.24,1.55,2.5,1.94,4.75,1.15,6.67-1.55,3.72-7,5-7.1,5.07Z"/><path class="cls-7" d="M517.74,822.41a25,25,0,0,0,3.81,17.52c5.72,9-.5,15.51-8.24,12.07s-10.7,6.35-20.6.93S517.74,822.41,517.74,822.41Z"/><path class="cls-21" d="M472,860.27a11.92,11.92,0,0,0,9.7-7l5.3-12.33,1.54-3.57,9.1-21-1.58,21.73-.94,13-.27,3.72a6,6,0,0,0,4.93,6.26h.05c1.62,2.62,3.86,7.93-2.82,10-7.85,2.48-20.55-3.66-25.11-10.92Z"/><path class="cls-16" d="M487,840.58v.36c.52,7,8.07,10.28,8.07,10.28h.05l.94-13c-2.3-.84-5.59-1.71-7.52-.77C487.56,837.87,486.93,838.85,487,840.58Z"/><ellipse class="cls-21" cx="498.66" cy="819.88" rx="20.57" ry="25.19"/><path class="cls-21" d="M480.83,823.68c2.33,2.21,5.59,2.43,7.28.51s1.17-5.29-1.16-7.5-5.59-2.43-7.28-.5S478.5,821.47,480.83,823.68Z"/><path class="cls-24" d="M509.74,836.18a44.81,44.81,0,0,1-14.06-2.29s-.58,6.88,7,7.34C507.13,841.49,509.74,836.18,509.74,836.18Z"/><path class="cls-9" d="M509.74,836.18s-1.7,1.4-5.67,1.38-8.39-3.67-8.39-3.67S504.15,836.2,509.74,836.18Z"/><path class="cls-25" d="M500.65,820.12a.49.49,0,0,0,.31-.27.48.48,0,0,0-.26-.61,5.1,5.1,0,0,0-6.06,1.35.46.46,0,0,0,0,.65.51.51,0,0,0,.66,0,8.05,8.05,0,0,1,5-1.12A.43.43,0,0,0,500.65,820.12Z"/><path class="cls-25" d="M496.94,825.23c0,1.11.6,2,1.41,2s1.49-.85,1.53-2-.6-2-1.41-2.05S497,824.12,496.94,825.23Z"/><path class="cls-25" d="M517.35,822.55a.51.51,0,0,0,.39-.14.47.47,0,0,0,0-.66,5.12,5.12,0,0,0-6.12-1,.47.47,0,0,0-.24.61.52.52,0,0,0,.62.24,8,8,0,0,1,5.08.87A.5.5,0,0,0,517.35,822.55Z"/><path class="cls-25" d="M512,825.86a1.54,1.54,0,1,0,3.06.35,1.53,1.53,0,0,0-.9-1.58A1.79,1.79,0,0,0,512,825.86Z"/><path class="cls-7" d="M507.39,799.26S507,808,496,809.49s-18.58,6.11-17.11,14S498.05,847.63,485,854s-10.26-5.46-24.38-2.73-16.68-16-6.95-26.85S459.48,784.76,496,786s23.11,30.16,23.11,30.16S507.37,808.91,507.39,799.26Z"/><path class="cls-9" d="M481.27,855.56c2.75-1.1,4.44-2.74,5-4.88,1.58-5.86-5.3-14.72-11.38-22.53-1.59-2-3.09-4-4.43-5.82-3.69-5.13-4-11-.89-15.71,3.47-5.23,10.14-7.5,17.36-5.77,13.71,3.16,19.53-5.13,19.59-5.19l-.25-.17c-.06.08-5.78,8.24-19.27,5.06-7.41-1.62-14.14.58-17.68,5.9-3.2,4.84-2.87,10.84.9,16,1.34,1.85,2.84,3.78,4.44,5.83,6,7.76,12.87,16.55,11.32,22.27-.56,2.09-2.14,3.62-4.84,4.7Z"/><path class="cls-26" d="M515.92,839.05a5.85,5.85,0,0,1-3.15-.92c-4.43-2.73-6.09-11-3.72-18.37h0c1.46-4.53,4.18-7.91,7.27-9a5.91,5.91,0,0,1,5.34.52c4.43,2.72,6.09,11,3.72,18.36-1.46,4.54-4.18,7.93-7.26,9.06A6.58,6.58,0,0,1,515.92,839.05Zm-6-19c-2.25,7-.76,14.79,3.34,17.32a5.13,5.13,0,0,0,4.54.44c2.83-1,5.34-4.22,6.71-8.49,2.25-7,.76-14.8-3.33-17.32a5.18,5.18,0,0,0-4.55-.43c-2.83,1-5.34,4.2-6.71,8.48Z"/><path class="cls-27" d="M485.25,815c-1.65,7.19,1,14.91,5.89,17.25s10.22-1.61,11.87-8.8-1-14.92-5.89-17.25S486.9,807.77,485.25,815Z"/><path class="cls-27" d="M508.86,820.37c-1.66,7.22.54,15.06,4.92,17.5s9.26-1.44,10.91-8.67-.55-15.06-4.92-17.5S510.51,813.14,508.86,820.37Z"/><path class="cls-26" d="M494.61,833.11a7.46,7.46,0,0,1-3.28-.77c-5.41-2.5-8.34-10.8-6.54-18.5h0c1-4.46,3.45-7.9,6.6-9.43a7.63,7.63,0,0,1,6.69,0c5.4,2.52,8.33,10.82,6.53,18.5-1,4.48-3.46,7.92-6.62,9.44A7.91,7.91,0,0,1,494.61,833.11Zm.19-28.59a6.93,6.93,0,0,0-3,.71c-2.87,1.39-5.16,4.69-6.12,8.82h0c-1.71,7.29,1,15.13,6,17.48a6.88,6.88,0,0,0,5.88,0c2.87-1.38,5.16-4.69,6.14-8.84,1.7-7.28-1-15.12-6-17.47a6.77,6.77,0,0,0-2.9-.7Z"/><path class="cls-26" d="M509.83,823.06a.85.85,0,0,1-.55-.2h0a7.72,7.72,0,0,0-6.13-1.07.89.89,0,0,1-1-.67.83.83,0,0,1,.65-1h0a9.25,9.25,0,0,1,7.55,1.42.84.84,0,0,1,.12,1.18h0A.82.82,0,0,1,509.83,823.06Z"/><path class="cls-28" d="M453.78,1052.32s84.85-16.09,112.36-8.5L553,1063.22,504,1066Z"/><path class="cls-45" d="M429.69,848s1.69,36.45-26.1,50.14c0,0,17.9,31.73,16,94.81l47.74-58.68,2.12-52.34Z"/><path class="cls-16" d="M435.27,850c7.07,11.31-14.74,60.1-31.68,48.11C394.34,891.56,429.8,841.24,435.27,850Z"/><path class="cls-21" d="M352.73,706.21c.42,1.47.8,2.75,1.06,3.73a9.8,9.8,0,0,0,.84,2.1,87.5,87.5,0,0,0,8.66,18.26s25.74-1.41,26.85-3.73c2.58-5.36,5.25-17.08,7.72-22.49,1.07-2.34,4.13-10.48,1.92-11.86-1.92-1.21-7.44,4.08-9.75,6.92-3.11-16.78-9.25-44.5-11.23-4.32h-.06c-.73-3.57-4.37-28-8.76-25.14-3.87,2.47-2,21.33-.85,27.21L369,697c-1.68-5.88-5.46-22.84-8.37-19.3-3.64,4.46-2.11,23.09-2.11,23.09s-3.88-15.39-6.83-12.39c-2.64,2.68-.93,10.84,1.07,17.86Z"/><path class="cls-21" d="M360.31,725.15c11.11,67.14,25,122,46.9,160.81q.62,1.1,1.2,2.1a4.52,4.52,0,0,0,5.6,2c15.38-6.12,19-22.78,19.86-32a5.36,5.36,0,0,0-.56-2.92c-21.17-42.3-35.34-94.87-42.51-132.07h0l-30.47,2.08Z"/><path class="cls-39" d="M374.21,724.41h.09a.45.45,0,0,0,.37-.53h0c0-.2-.84-4.67,3-6.84,4.21-2.4,8.25-7.2,8.41-7.41a.47.47,0,1,0-.64-.69.39.39,0,0,0-.08.1s-4.1,4.86-8.16,7.18c-4.42,2.5-3.45,7.78-3.44,7.84A.5.5,0,0,0,374.21,724.41Z"/><path class="cls-15" d="M355,705.63s126.91-23.53,148.63-10.32c14.74,9,98.29,70.36,98.29,70.36s17.28-26.62,11.72-47.49a117,117,0,0,0,12.16-24.53c4.37-12.4,6.76-27.38.15-39.5,0,0,19.91-27.61,7.16-53,0,0-113.31,50.15-125.81,48.52-18-2.32-88.07-92.42-98.57-96.17s-31,32.81-22.3,54.34a85.08,85.08,0,0,0-16,26.73,58.47,58.47,0,0,0-3.68,23.61S343.06,683.39,355,705.63Z"/><path class="cls-41" d="M355,705.63s126.91-23.53,148.63-10.32c14.74,9,98.29,70.36,98.29,70.36s17.28-26.62,11.72-47.49a117,117,0,0,0,12.16-24.53c-21.28,1.44-94.87,5.22-124.54-7.93-34.8-15.48-25.8-5.63-53.58-9.93-23-3.58-57-36.14-77.28-41.27a58.47,58.47,0,0,0-3.68,23.61S343.06,683.39,355,705.63Z"/><path class="cls-41" d="M613.4,643.68c-37.45,10.41-82.56,27.92-121.54,16-32.66-10-66.53-31.44-88.86-55.67-3.32-3.59,2.29-8.83,5.62-5.22,20.31,22,50.1,41.24,79.62,51.13,39,13.09,84.52-2.62,123-13.33,4.91-1.36,7,5.76,2.11,7.12Z"/><path class="cls-41" d="M609.44,682.74C537,693.83,468.07,676.88,405.17,643.2c-4.44-2.38-.44-8.76,4-6.38,61,32.66,127.83,49.56,198.14,38.8,5-.77,7.17,6.34,2.12,7.12Z"/></svg>