<svg id="Layer_1" data-name="Layer 1" xmlns="http://www.w3.org/2000/svg" viewBox="0 0 2450.75 395.86"><defs><style>.cls-1{fill:#05c167;}.cls-2{fill:#fff;}</style></defs><path class="cls-1" d="M1319.36,0h272.58V66.69H1393V161.4h193.42v64.43H1393v96.3h199v66.7H1319.36ZM2344.72,395.83c83.57,0,130.66-40,130.66-95,0-39.15-27.88-68.36-86.24-81l-61.69-12.6c-35.82-6.67-47.09-13.34-47.09-26.68,0-17.27,17.27-27.88,49.09-27.88,34.48,0,60,9.27,66.69,41.15h72.3c-3.94-60-47.09-99.64-134.59-99.64-75.63,0-128.72,31.22-128.72,91.71,0,41.81,29.21,69,92.24,82.3l69,15.94c27.21,5.33,34.48,12.67,34.48,23.94,0,17.94-20.54,29.21-53.75,29.21-41.76,0-65.63-9.27-74.9-41.15h-72.7c10.61,59.89,55,99.71,145.26,99.71Zm-166.27-7.27h-78.23c-49.09,0-76.3-30.54-76.3-69.09V166.74h-55v-65.1h55.29V19.94h72.69v81.7h81.57v65.1h-81.57V300.86c0,15.27,10.61,22.61,27.22,22.61h54.35ZM1865,101.78v25.87a141.17,141.17,0,0,0-91.57-33.34,150.79,150.79,0,1,0-6.35,301.52c2.12.05,4.23.05,6.35,0A140.69,140.69,0,0,0,1865,362.48v25.95h72.5V101.64Zm-85.57,231.09a87.7,87.7,0,1,1,86.7-88.7v1.07a86.69,86.69,0,0,1-85.9,87.49h-.93Z" transform="translate(-24.62)"/><path class="cls-2" d="M1157.56,155.46c-36.48,0-62.36,28.55-62.36,72.37V388.56h-55.69V105.64h55v34.55a74.62,74.62,0,0,1,66.29-36.55h20v51.82ZM1001,247.1c0-84.37-60-147.46-141.26-147.46a145.59,145.59,0,0,0-144.6,146.58c0,.29,0,.59,0,.88,0,84.3,65,148.06,149.86,148.06a147.86,147.86,0,0,0,122.05-60.42l-40.42-29.61A98.57,98.57,0,0,1,865,346.28a94.84,94.84,0,0,1-93.37-81h229.49ZM772.87,221.16c9.94-43.15,44.42-72.36,86.23-72.36s76.24,29.21,85.57,72.36ZM538.77,99.64a140.85,140.85,0,0,0-100,41.82V0H383V388.56h55V352.68A143,143,0,0,0,538.9,395.16a147.79,147.79,0,1,0,6.28-295.52q-3.13-.06-6.28,0Zm-4,245.77A98,98,0,1,1,632.28,247v.8a97.25,97.25,0,0,1-97.11,97.37h-.4ZM178,342.74c53.75,0,95.5-41.21,95.5-103V0h57.69V388.56h-57V351.81A141.62,141.62,0,0,1,171.35,395C88.45,395,24.62,334.54,24.62,242.9V0H83.38V240.1C83.38,302.19,123.4,342.74,178,342.74Z" transform="translate(-24.62)"/></svg>